<svg width="50" height="50" viewBox="0 0 50 50" fill="none" xmlns="http://www.w3.org/2000/svg">
<path d="M32.7928 16.3811C32.2957 16.3811 31.8189 16.1837 31.4674 15.8321C31.1159 15.4806 30.9185 15.0039 30.9185 14.5068V5.13538L30.9054 5.12235H11.3485C11.1023 5.12235 10.8586 5.17083 10.6312 5.26502C10.4038 5.35921 10.1972 5.49727 10.0232 5.67131C9.84912 5.84535 9.71106 6.05197 9.61687 6.27937C9.52268 6.50677 9.4742 6.75049 9.4742 6.99662V44.7951C9.4742 45.0413 9.52268 45.285 9.61687 45.5124C9.71106 45.7398 9.84912 45.9464 10.0232 46.1204C10.1972 46.2945 10.4038 46.4325 10.6312 46.5267C10.8586 46.6209 11.1023 46.6694 11.3485 46.6694H32.15C30.6134 45.0756 29.7553 42.9477 29.7565 40.7339C29.7565 40.4901 29.7731 40.2504 29.793 40.0118C29.9079 38.6158 30.3637 37.2693 31.1202 36.0905C31.8768 34.9116 32.9111 33.9364 34.1323 33.2504C35.3536 32.5644 36.7245 32.1885 38.1248 32.1557C39.5252 32.1229 40.9122 32.4343 42.1642 33.0624V16.3811H32.7928ZM11.9971 9.05329C11.9971 8.89014 12.0293 8.72858 12.0917 8.57785C12.1541 8.42711 12.2457 8.29015 12.361 8.17478C12.4764 8.05941 12.6134 7.96789 12.7641 7.90546C12.9148 7.84302 13.0764 7.81089 13.2395 7.81089H19.325C19.4881 7.81088 19.6497 7.84302 19.8004 7.90546C19.9512 7.96789 20.0881 8.05941 20.2035 8.17478C20.3189 8.29014 20.4104 8.42711 20.4728 8.57784C20.5352 8.72858 20.5674 8.89014 20.5674 9.05329V15.1387C20.5674 15.3019 20.5352 15.4634 20.4728 15.6142C20.4104 15.7649 20.3189 15.9019 20.2035 16.0172C20.0881 16.1326 19.9512 16.2241 19.8004 16.2866C19.6497 16.349 19.4881 16.3811 19.325 16.3811H13.2395C13.0764 16.3811 12.9148 16.349 12.7641 16.2866C12.6133 16.2241 12.4764 16.1326 12.361 16.0172C12.2457 15.9019 12.1541 15.7649 12.0917 15.6142C12.0293 15.4634 11.9971 15.3019 11.9971 15.1387V9.05329H11.9971ZM29.9598 32.5851H12.1653V30.6685H29.9598V32.5851ZM39.1601 28.9182H12.1653V27.0016H39.1601V28.9182ZM39.1601 25.2513H12.1653V23.3347H39.1601V25.2513Z" fill="#75B3D9"/>
<path d="M46.6703 12.0761H37.8722L30.9184 5.12235V14.5068C30.9184 15.0039 31.1159 15.4807 31.4674 15.8322C31.8189 16.1837 32.2956 16.3811 32.7927 16.3811H42.1642V33.0624C43.4774 33.7171 44.6007 34.698 45.4263 35.911C46.252 37.1241 46.7525 38.5288 46.8799 39.9907C47.2972 39.9409 47.682 39.74 47.9613 39.4259C48.2407 39.1118 48.3954 38.7063 48.3962 38.286V13.802C48.3962 13.3442 48.2144 12.9053 47.8907 12.5816C47.567 12.2579 47.1281 12.0761 46.6703 12.0761Z" fill="#A6D8F6"/>
<path d="M1.60374 13.802V38.286C1.60374 38.5126 1.64839 38.7371 1.73512 38.9465C1.82186 39.1559 1.94899 39.3461 2.10925 39.5064C2.26952 39.6666 2.45978 39.7938 2.66918 39.8805C2.87857 39.9672 3.103 40.0119 3.32964 40.0119H9.47417V12.0761H3.32964C2.87191 12.0761 2.43292 12.2579 2.10925 12.5816C1.78558 12.9053 1.60374 13.3443 1.60374 13.802Z" fill="#EF7857"/>
<path d="M44.3574 40.0118C44.1628 38.4646 43.3732 37.054 42.1561 36.0791C40.9391 35.1042 39.3901 34.6416 37.8378 34.7894C36.2854 34.9373 34.8516 35.6839 33.8404 36.871C32.8292 38.0581 32.3201 39.5924 32.421 41.1485C32.522 42.7047 33.225 44.1603 34.381 45.2069C35.5371 46.2534 37.0553 46.8086 38.6138 46.7547C40.1722 46.7007 41.6484 46.0419 42.7294 44.918C43.8104 43.794 44.4111 42.2933 44.4042 40.7339C44.403 40.4925 44.3874 40.2514 44.3574 40.0118ZM38.4438 43.865C38.4073 43.8913 38.3638 43.9061 38.3189 43.9074C38.274 43.9087 38.2297 43.8964 38.1918 43.8722C35.9834 42.465 35.4644 41.0513 35.3429 40.4313C35.3393 40.4148 35.337 40.3981 35.3339 40.3814C35.3163 40.2904 35.307 40.198 35.3061 40.1054C35.3061 40.0733 35.3135 40.0434 35.3155 40.0119C35.3371 39.6308 35.5017 39.2719 35.7765 39.0069C36.0513 38.7419 36.4159 38.5903 36.7975 38.5825C37.1792 38.5747 37.5497 38.7112 37.8351 38.9647C38.1204 39.2182 38.2996 39.5701 38.3368 39.95C38.374 39.5701 38.5532 39.2182 38.8386 38.9647C39.124 38.7112 39.4945 38.5747 39.8762 38.5825C40.2578 38.5903 40.6224 38.7419 40.8972 39.0068C41.172 39.2718 41.3366 39.6308 41.3582 40.0119C41.3602 40.0434 41.3676 40.0733 41.3676 40.1054C41.393 41.6041 39.0157 43.4442 38.4438 43.865Z" fill="#EF7857"/>
<path d="M46.88 39.9907C46.6953 37.8504 45.7139 35.8573 44.13 34.406C42.5461 32.9546 40.4751 32.1507 38.3268 32.1534C36.1785 32.156 34.1095 32.965 32.5291 34.4203C30.9488 35.8756 29.9724 37.871 29.793 40.0118C29.7731 40.2504 29.7566 40.4901 29.7566 40.7339C29.7566 43.0096 30.6606 45.192 32.2697 46.8012C33.8789 48.4103 36.0614 49.3144 38.337 49.3144C40.6127 49.3144 42.7952 48.4103 44.4044 46.8012C46.0135 45.192 46.9175 43.0096 46.9175 40.7339C46.9175 40.483 46.9011 40.2362 46.88 39.9907ZM41.9939 45.5671C41.0946 46.2494 40.0226 46.667 38.8988 46.7729C37.7749 46.8787 36.6438 46.6686 35.633 46.1661C34.6221 45.6637 33.7717 44.8889 33.1774 43.9292C32.5832 42.9694 32.2688 41.8627 32.2697 40.7339C32.2785 39.1274 32.9205 37.5892 34.0565 36.4533C35.1924 35.3173 36.7306 34.6753 38.3371 34.6666C39.8207 34.667 41.2526 35.2112 42.3621 36.1962C43.4715 37.1812 44.1814 38.5387 44.3575 40.0118C44.4898 41.0641 44.3408 42.1326 43.9256 43.1085C43.5104 44.0844 42.8438 44.9328 41.9939 45.5671V45.5671Z" fill="white"/>
<path d="M39.8445 38.5821C39.4684 38.5829 39.106 38.7232 38.8275 38.9759C38.5489 39.2286 38.3741 39.5757 38.3369 39.95C38.2997 39.5701 38.1205 39.2182 37.8352 38.9647C37.5498 38.7112 37.1792 38.5747 36.7976 38.5825C36.416 38.5903 36.0513 38.7418 35.7766 39.0068C35.5018 39.2718 35.3372 39.6307 35.3155 40.0118C35.3136 40.0434 35.3061 40.0733 35.3061 40.1053C35.3071 40.198 35.3164 40.2904 35.334 40.3814C35.3371 40.3981 35.3394 40.4148 35.343 40.4313C35.4645 41.0513 35.9835 42.465 38.1919 43.8722C38.2297 43.8964 38.274 43.9087 38.319 43.9074C38.3639 43.9061 38.4074 43.8913 38.4438 43.8649C39.0158 43.4442 41.393 41.6041 41.3677 40.1053C41.3677 40.0732 41.3602 40.0433 41.3583 40.0118C41.3355 39.6255 41.1662 39.2625 40.8849 38.9968C40.6035 38.7311 40.2314 38.5828 39.8445 38.5821Z" fill="white"/>
<path d="M24.1829 27.0013H12.1653V28.9182H24.1829H25.8167H39.1598V27.0013H25.8167H24.1829Z" fill="white"/>
<path d="M12.1653 25.2509H24.1829H25.8167H39.1598V23.3347H25.8167H24.1829H12.1653V25.2509Z" fill="white"/>
<path d="M29.9596 30.6686H25.8167H24.1829H12.1653V32.5848H24.1829H25.8167H29.9596V30.6686Z" fill="white"/>
<path d="M13.2395 16.3811H19.325C19.4881 16.3811 19.6497 16.349 19.8004 16.2866C19.9512 16.2241 20.0881 16.1326 20.2035 16.0172C20.3189 15.9019 20.4104 15.7649 20.4728 15.6142C20.5352 15.4634 20.5674 15.3019 20.5674 15.1387V9.0533C20.5674 8.89014 20.5352 8.72858 20.4728 8.57785C20.4104 8.42711 20.3189 8.29015 20.2035 8.17478C20.0881 8.05941 19.9512 7.9679 19.8004 7.90546C19.6497 7.84302 19.4881 7.81089 19.325 7.81089H13.2395C13.0764 7.81089 12.9148 7.84302 12.7641 7.90546C12.6134 7.9679 12.4764 8.05941 12.361 8.17478C12.2457 8.29015 12.1541 8.42711 12.0917 8.57785C12.0293 8.72858 11.9971 8.89014 11.9971 9.0533V15.1387C11.9971 15.3019 12.0293 15.4634 12.0917 15.6142C12.1541 15.7649 12.2457 15.9019 12.361 16.0172C12.4764 16.1326 12.6134 16.2241 12.7641 16.2866C12.9148 16.349 13.0764 16.3811 13.2395 16.3811ZM14.4254 11.6272V10.4537L15.7582 10.4744L16.8063 10.4906L18.1392 10.5113V11.6848L16.8063 11.6641V14.4019L15.7582 14.3856V11.6479L14.4254 11.6272Z" fill="white"/>
<path d="M16.8062 10.4904L15.758 10.4745L14.4253 10.4535V11.627L15.758 11.6479V12.0758V14.3858L16.8062 14.4017V12.0758V11.6639L18.1389 11.6849V10.5114L16.8062 10.4904Z" fill="#E5674A"/>
</svg>
