<svg width="50" height="51" viewBox="0 0 50 51" fill="none" xmlns="http://www.w3.org/2000/svg">
<path d="M47.3868 8.97834C47.1839 8.76049 46.9673 8.55571 46.7385 8.36524C46.2574 7.97293 45.7575 7.59375 45.245 7.22839C44.875 6.96466 44.4978 6.70982 44.1134 6.46388C44.103 6.49247 44.0885 6.51939 44.0703 6.54376C43.9717 6.66793 43.8368 6.75833 43.6845 6.80241C43.5383 6.84624 43.3844 6.85833 43.2331 6.83789C42.0784 6.74211 40.9924 6.24943 40.1599 5.44357C40.0587 5.3623 39.9877 5.24946 39.9582 5.1231C39.9545 5.01537 39.9794 4.90857 40.0303 4.81355C40.0697 4.72174 40.1126 4.63138 40.1525 4.5397C40.1657 4.5093 40.1797 4.47926 40.193 4.44886C37.5418 3.32011 34.6061 3.04041 31.7895 3.64822C27.768 4.62305 24.5662 7.69356 22.2633 11.145C22.198 11.2429 22.1307 11.3399 22.0669 11.4383C21.0866 12.9565 20.2398 14.5566 19.5359 16.221C19.1973 17.017 18.8889 17.8255 18.617 18.6468C18.1661 20.0015 17.8086 21.3855 17.5471 22.7891C17.4339 23.4024 17.341 24.0226 17.2737 24.6451C17.2088 25.2443 17.1698 25.8456 17.163 26.4459C17.1389 27.6121 17.2687 28.7763 17.549 29.9086C18.3848 32.6724 20.1666 35.054 22.5821 36.636C23.9523 37.5974 25.4456 38.37 27.0218 38.9331C27.7118 39.1694 28.4215 39.3437 29.1424 39.4539C27.9037 38.5273 26.9183 37.3038 26.2768 35.8962C26.0885 35.4966 25.9253 35.0857 25.7882 34.6657C25.7828 34.6491 25.7758 34.633 25.7705 34.6163C22.7283 25.0994 30.1873 14.284 37.901 9.38909C39.2659 8.467 40.8129 7.8488 42.4374 7.57631C43.2966 7.45741 44.1703 7.49787 45.0148 7.69566C45.2098 7.74205 45.4051 7.78849 45.5945 7.85396C46.1358 8.09966 46.6409 8.41833 47.0958 8.80109C47.1891 8.86754 47.2824 8.93085 47.3759 8.98909C47.4015 9.00502 47.427 9.02554 47.4527 9.04066C47.4322 9.01871 47.4075 9.00007 47.3868 8.97834ZM36.7353 8.76899C36.4761 9.74634 35.2318 9.85233 34.4153 9.60994C34.2941 9.58138 34.1819 9.52312 34.0888 9.44041C33.9861 9.31671 33.9208 9.16639 33.9004 9.00697C33.6942 7.91908 33.5717 6.81698 33.534 5.71036C33.4725 5.31781 33.5276 4.91585 33.6924 4.55428C33.8036 4.39576 33.9466 4.26205 34.1122 4.16159C34.2777 4.06113 34.4624 3.99611 34.6544 3.97065C34.8464 3.94518 35.0416 3.95982 35.2276 4.01363C35.4137 4.06745 35.5865 4.15927 35.7353 4.2833C35.7716 4.31844 35.8051 4.35632 35.8356 4.39659C36.0538 4.73378 36.1968 5.11404 36.2549 5.51148L36.6513 7.31882C36.7935 7.78878 36.8223 8.28575 36.7353 8.76899Z" fill="#E5674A"/>
<path d="M47.339 9.02527C47.3511 9.01276 47.364 9.0018 47.3759 8.98907C47.2824 8.93083 47.1891 8.86752 47.0958 8.80106C47.1763 8.87628 47.2625 8.94697 47.339 9.02527Z" fill="#FFDE9C"/>
<path d="M48.7094 6.47946C48.3612 6.06063 47.9417 5.70667 47.4702 5.43394C47.339 5.34245 47.1824 5.29446 47.0225 5.29675C46.8648 5.3289 46.7209 5.40887 46.6104 5.52576C46.0629 6.01262 45.6013 6.58821 45.245 7.22839C45.7576 7.59374 46.2574 7.97292 46.7385 8.36523C46.9673 8.55571 47.1839 8.76048 47.3868 8.97833C47.4809 8.87578 47.5703 8.7685 47.6519 8.66122L48.7073 7.27398C48.8141 7.16112 48.8804 7.01588 48.8956 6.86119C48.878 6.7167 48.8124 6.58228 48.7094 6.47946Z" fill="#FFDE9C"/>
<path d="M36.2549 5.51149C36.1968 5.11405 36.0538 4.73379 35.8356 4.3966C35.8051 4.35633 35.7716 4.31845 35.7353 4.28331C35.5865 4.15928 35.4137 4.06746 35.2276 4.01364C35.0416 3.95982 34.8464 3.94519 34.6544 3.97065C34.4624 3.99612 34.2777 4.06114 34.1122 4.1616C33.9466 4.26206 33.8036 4.39577 33.6924 4.55429C33.5276 4.91586 33.4725 5.31782 33.534 5.71037C33.5717 6.81699 33.6942 7.91909 33.9004 9.00698C33.9208 9.1664 33.9861 9.31672 34.0888 9.44041C34.1819 9.52313 34.2941 9.58138 34.4153 9.60995C35.2318 9.85234 36.4761 9.74635 36.7353 8.769C36.8223 8.28577 36.7935 7.7888 36.6514 7.31885L36.2549 5.51149Z" fill="#FFDE9C"/>
<path d="M18.6171 18.6468C18.8889 17.8255 19.1973 17.017 19.5359 16.2209C19.2939 15.7009 18.9088 15.2607 18.4256 14.9516C17.3298 14.27 16.2353 14.5519 15.0723 14.843C14.0282 15.0811 12.9357 14.9858 11.9486 14.5705C11.9486 14.5705 13.1992 20.1309 18.6171 18.6468Z" fill="#EF7857"/>
<path d="M44.9066 31.6125C47.1321 28.6694 48.7013 25.2837 49.5086 21.6832C50.3466 17.6942 50.3956 12.1523 47.339 9.02525C47.2624 8.94695 47.1763 8.87626 47.0958 8.80105C46.641 8.41829 46.1359 8.09963 45.5946 7.85393C45.4051 7.78845 45.2099 7.74201 45.0148 7.69562C44.1703 7.49783 43.2966 7.45738 42.4375 7.57628C40.813 7.84877 39.2659 8.46697 37.901 9.38908C30.1873 14.284 22.7283 25.0994 25.7704 34.6163C25.7757 34.633 25.7827 34.6491 25.7881 34.6657C25.9252 35.0857 26.0884 35.4966 26.2768 35.8962C26.9182 37.3038 27.9037 38.5273 29.1424 39.4539C28.4214 39.3436 27.7118 39.1694 27.0218 38.9331C25.4455 38.37 23.9522 37.5973 22.5821 36.636C20.1665 35.054 18.3847 32.6724 17.549 29.9085C17.2687 28.7763 17.1389 27.6121 17.1629 26.4459C17.1303 27.6476 17.2602 28.8482 17.549 30.0151C18.3783 32.7632 20.1445 35.1337 22.5406 36.7144C22.099 37.5821 21.6059 38.4227 21.0639 39.2316C20.2633 40.3867 18.9442 41.8416 17.2086 42.2128C15.9418 42.4765 14.2971 41.942 13.8669 40.7162L13.7625 40.4186C13.9393 39.9809 14.004 39.506 13.9508 39.037C13.7588 37.6479 12.1256 35.5879 10.609 36.6642C9.45626 37.4823 5.46942 40.8184 4.23837 41.7874C2.65084 43.0371 3.90059 44.0991 4.91161 44.9062C5.38003 45.2433 5.91998 45.4675 6.48934 45.5615C7.05871 45.6555 7.64209 45.6167 8.19399 45.4482C9.29572 45.1005 10.3059 44.5112 11.1507 43.7232C11.3824 43.5238 11.6375 43.2921 11.8967 43.0363C12.4646 43.7142 13.1758 44.2576 13.9791 44.6276C14.7824 44.9975 15.6577 45.1846 16.542 45.1756C16.9686 45.1764 17.3942 45.1326 17.8116 45.0448C20.4747 44.4764 22.3446 42.4673 23.4442 40.8816C24.0259 40.0185 24.5562 39.1218 25.0322 38.1962C25.678 38.5167 26.3423 38.7984 27.0217 39.0396C29.9684 40.0377 33.1739 39.9559 36.0658 38.8088C38.3989 38.8365 40.6637 39.5995 42.538 40.9891C42.8893 41.2683 42.871 41.4408 42.8593 41.5553C42.7563 42.541 41.074 44.1223 39.4524 45.2996C37.4464 46.0515 35.753 47.4587 34.6465 49.2931C34.6048 49.3701 34.5848 49.457 34.5889 49.5445C34.593 49.632 34.6209 49.7167 34.6696 49.7894C34.7184 49.8622 34.7861 49.9203 34.8654 49.9573C34.9448 49.9944 35.0327 50.0091 35.1198 49.9997C45.2222 49.7008 46.7185 50.1088 47.1381 49.6367C47.3998 49.3866 47.605 49.0835 47.7399 48.7476C47.8748 48.4118 47.9364 48.051 47.9205 47.6894C47.9045 47.3278 47.8115 46.9738 47.6475 46.6511C47.4835 46.3284 47.2525 46.0446 46.9698 45.8185C46.657 45.5621 46.3083 45.3528 45.9348 45.1975C45.4261 44.9888 44.8928 44.846 44.3478 44.7726C45.0816 43.9539 45.5646 42.9414 45.739 41.8558C45.8037 41.2567 45.7084 40.6511 45.4629 40.1007C45.2174 39.5503 44.8304 39.0749 44.3414 38.7227C43.0809 37.7315 41.6383 36.997 40.0952 36.5608C41.9304 35.1533 43.5511 33.4865 44.9066 31.6125ZM37.9148 36.0901C37.1662 36.534 36.3584 36.8696 35.5156 37.0868C34.3553 37.4284 33.1095 37.3271 32.0196 36.8025C31.6261 36.5906 31.2688 36.3172 30.9614 35.9927C30.9397 35.9706 30.9157 35.9517 30.8945 35.929C30.7527 35.7741 30.6213 35.6101 30.501 35.4381C30.4718 35.3973 30.4399 35.36 30.4118 35.3181C30.2986 35.1461 30.195 34.968 30.1013 34.7846C30.0708 34.7264 30.0382 34.6706 30.0093 34.6107C29.9219 34.4293 29.8447 34.2378 29.7715 34.0415C29.7431 33.9656 29.7134 33.8911 29.6871 33.813C29.6226 33.6207 29.5668 33.4206 29.5151 33.216C29.4913 33.1219 29.4672 33.0283 29.4462 32.9317C29.4025 32.7314 29.366 32.5255 29.3341 32.315C29.3169 32.2023 29.3008 32.0891 29.287 31.9736C29.2626 31.7679 29.2435 31.5583 29.2298 31.3447C29.2212 31.2131 29.2152 31.0801 29.2106 30.9455C29.2037 30.7369 29.2006 30.5263 29.2034 30.311C29.2053 30.1612 29.211 30.0091 29.2176 29.8562C29.2267 29.6466 29.238 29.4362 29.2559 29.2213C29.27 29.0528 29.2892 28.8818 29.3087 28.7104C29.3323 28.5025 29.3566 28.2948 29.3883 28.0829C29.4162 27.8959 29.4509 27.7063 29.485 27.5164C29.5217 27.3122 29.5575 27.1089 29.6014 26.9017C29.6448 26.6971 29.6965 26.4898 29.7469 26.2826C29.7953 26.0836 29.8414 25.8859 29.8963 25.6849C29.9569 25.4627 30.0274 25.2382 30.096 25.0139C30.1544 24.823 30.2089 24.6334 30.273 24.4412C30.3541 24.1981 30.4466 23.9533 30.5369 23.7085C30.6022 23.5314 30.6623 23.3555 30.7324 23.1778C30.8419 22.9004 30.9645 22.622 31.0858 22.3436C31.1498 22.1967 31.2073 22.0503 31.2745 21.9032C31.4694 21.4772 31.6777 21.0513 31.8994 20.6255C35.5532 13.636 41.5311 9.54641 45.2514 11.4912C45.3544 11.5451 45.444 11.6178 45.5414 11.6796L45.5415 11.6797C46.6645 12.4606 47.4477 13.6401 47.7318 14.978L47.735 14.9913C47.8107 15.2789 47.8745 15.577 47.9244 15.8876C47.9274 15.9059 47.9292 15.9251 47.9321 15.9434C47.9784 16.2417 48.0145 16.5476 48.0372 16.8647C48.0399 16.9022 48.0403 16.9414 48.0427 16.9791C48.0614 17.2805 48.0725 17.587 48.0701 17.9033C48.0697 17.9653 48.0654 18.0298 48.0642 18.0923C48.0581 18.3895 48.0472 18.6894 48.0228 18.9978C48.0156 19.0885 48.0029 19.1822 47.9943 19.2738C47.9669 19.5601 47.9374 19.8472 47.8945 20.1416C47.8767 20.2645 47.8514 20.3906 47.8309 20.5147C47.786 20.7849 47.7418 21.0545 47.6842 21.33C47.6519 21.4848 47.6103 21.6429 47.5739 21.7993C47.5154 22.0505 47.4597 22.3005 47.3908 22.5552C47.3402 22.7424 47.2786 22.9324 47.2223 23.1211C47.1539 23.3505 47.0902 23.5786 47.0134 23.8099C46.94 24.0314 46.8539 24.2549 46.7729 24.4778C46.6991 24.6806 46.6315 24.8822 46.5513 25.0859C46.4462 25.3531 46.3269 25.6215 46.2109 25.8898C46.1408 26.0517 46.0781 26.2131 46.004 26.3752C45.8071 26.8063 45.5963 27.2373 45.3716 27.6683C43.3415 31.5517 40.594 34.5348 37.9148 36.0901Z" fill="#EF7857"/>
<path d="M47.7318 14.978C47.4477 13.64 46.6645 12.4606 45.5415 11.6797C46.6631 12.4619 47.4459 13.6407 47.7318 14.978Z" fill="white"/>
<path d="M45.2514 11.4912C41.5311 9.54636 35.5532 13.6359 31.8994 20.6255C31.677 21.0509 31.4687 21.4768 31.2745 21.9032C31.2072 22.0502 31.1498 22.1966 31.0858 22.3436C30.9645 22.6219 30.842 22.9004 30.7324 23.1777C30.6623 23.3553 30.6022 23.5315 30.5369 23.7084C30.4465 23.9531 30.3541 24.1981 30.273 24.4411C30.209 24.6333 30.1543 24.8231 30.096 25.0138C30.0274 25.2381 29.957 25.4628 29.8963 25.6848C29.8414 25.8857 29.7953 26.0837 29.7469 26.2825C29.6964 26.4896 29.6449 26.6971 29.6014 26.9017C29.5576 27.1087 29.5216 27.3124 29.485 27.5164C29.4509 27.7061 29.4163 27.896 29.3883 28.0829C29.3568 28.2945 29.3323 28.5027 29.3087 28.7104C29.2891 28.8817 29.27 29.0528 29.2559 29.2212C29.2381 29.4359 29.2266 29.6468 29.2176 29.8562C29.2109 30.0091 29.2054 30.1611 29.2034 30.311C29.2008 30.526 29.2036 30.7372 29.2106 30.9455C29.215 31.08 29.2214 31.213 29.2298 31.3447C29.2437 31.5583 29.2628 31.7679 29.287 31.9735C29.3008 32.0889 29.317 32.2023 29.3341 32.3149C29.3661 32.5251 29.4024 32.7317 29.4462 32.9317C29.4671 33.0283 29.4914 33.1219 29.5151 33.216C29.5668 33.4203 29.6225 33.6209 29.6871 33.8129C29.7133 33.891 29.7432 33.9655 29.7715 34.0415C29.8447 34.2375 29.9218 34.4295 30.0093 34.6106C30.0382 34.6706 30.0709 34.7263 30.1013 34.7846C30.195 34.9679 30.2986 35.146 30.4118 35.318C30.4399 35.3599 30.4718 35.3973 30.501 35.438C30.6213 35.61 30.7528 35.774 30.8945 35.929C30.9156 35.9517 30.9397 35.9705 30.9613 35.9927C31.2688 36.3172 31.6261 36.5905 32.0196 36.8025C31.8224 36.6961 31.6342 36.5737 31.4568 36.4367C32.447 36.2159 33.4189 35.92 34.3642 35.5516C49.4862 29.7355 46.3322 14.6639 45.5414 11.6796C45.444 11.6177 45.3544 11.545 45.2514 11.4912ZM43.2858 27.1986C43.2375 27.1987 43.1893 27.194 43.142 27.1844L40.3017 26.6109C39.8139 27.3881 39.1037 27.8169 38.5483 27.5942C37.8702 27.3223 37.6856 26.1913 38.136 25.068C38.3562 24.4497 38.7878 23.9291 39.3547 23.5983L42.3258 16.0303C42.3962 15.8521 42.5345 15.7091 42.7102 15.6327C42.886 15.5563 43.0849 15.5527 43.2632 15.6227C43.4416 15.6927 43.585 15.8306 43.6618 16.0061C43.7387 16.1817 43.7428 16.3806 43.6732 16.5591L40.7085 24.1124C40.8366 24.4726 40.8715 24.8592 40.8099 25.2365L43.4283 25.7649C43.6042 25.8004 43.7608 25.8999 43.8675 26.0443C43.9742 26.1887 44.0235 26.3676 44.0057 26.5462C43.988 26.7249 43.9045 26.8905 43.7714 27.0111C43.6384 27.1316 43.4653 27.1985 43.2858 27.1986L43.2858 27.1986Z" fill="white"/>
<path d="M40.7085 24.1124L43.6732 16.5591C43.7428 16.3806 43.7387 16.1817 43.6618 16.0061C43.585 15.8306 43.4416 15.6927 43.2632 15.6227C43.0849 15.5527 42.886 15.5563 42.7102 15.6327C42.5345 15.7091 42.3962 15.8521 42.3258 16.0303L39.3547 23.5983C39.4791 23.5281 39.617 23.4855 39.7593 23.4731C39.9015 23.4607 40.0448 23.479 40.1794 23.5266C40.3032 23.5825 40.4141 23.6634 40.5052 23.7642C40.5962 23.865 40.6655 23.9836 40.7085 24.1124Z" fill="#34424D"/>
<path d="M43.4283 25.7649L40.8099 25.2365C40.7428 25.7262 40.5694 26.1953 40.3017 26.6109L43.142 27.1844C43.1893 27.194 43.2375 27.1987 43.2858 27.1986C43.4654 27.1984 43.6384 27.1316 43.7715 27.0111C43.9045 26.8905 43.988 26.7248 44.0057 26.5462C44.0235 26.3675 43.9742 26.1887 43.8675 26.0443C43.7608 25.8999 43.6043 25.8003 43.4283 25.7649L43.4283 25.7649Z" fill="#34424D"/>
<path d="M13.5492 6.9247C11.1613 7.21893 8.88019 8.08736 6.90119 9.45568C6.8573 9.49066 6.81612 9.52891 6.778 9.57011C8.545 9.63135 10.2634 9.7559 11.6471 10.9957C11.2129 10.9121 10.7855 10.8047 10.3558 10.7075C9.16046 10.4157 7.89858 10.5963 6.83305 11.2117C6.3966 11.4587 5.95631 11.6997 5.52746 11.9594C4.94383 12.3312 4.27987 12.5584 3.59077 12.622C2.90167 12.6856 2.20735 12.5838 1.56552 12.325C1.14661 12.1683 0.742551 11.9717 0.299831 11.7795C0.322142 11.8663 0.33712 11.9324 0.356115 11.9974C0.809918 13.4976 1.52939 14.9041 2.4803 16.1501C3.20423 17.1556 4.1627 17.9692 5.27246 18.5201C6.38223 19.0711 7.60972 19.3428 8.84834 19.3117C9.23787 19.316 9.62761 19.3029 10.0172 19.2979C9.37114 19.5669 8.77507 19.9429 8.25411 20.4102C7.99514 20.6138 7.69101 20.752 7.36738 20.8132C7.04376 20.8744 6.71015 20.8569 6.39473 20.7621C6.2962 20.7388 6.19842 20.7122 6.03437 20.6703C6.11756 20.7728 6.14695 20.8135 6.18083 20.85C7.14777 21.9032 8.25815 22.8151 9.47929 23.5589C10.7695 24.413 12.2522 24.932 13.7934 25.069C14.9696 25.138 16.1485 24.9944 17.2737 24.6451C17.341 24.0226 17.434 23.4024 17.5472 22.7891C17.8086 21.3855 18.1661 20.0015 18.617 18.6468C13.1992 20.1309 11.9485 14.5705 11.9485 14.5705C12.9356 14.9859 14.0281 15.0812 15.0722 14.843C16.2353 14.5519 17.3298 14.27 18.4256 14.9516C18.9087 15.2607 19.2938 15.701 19.5359 16.2209C20.2398 14.5566 21.0867 12.9564 22.0669 11.4383C22.1307 11.3398 22.1981 11.2428 22.2634 11.1449C22.1968 11.0394 22.1353 10.9322 22.0635 10.8283C21.1695 9.42825 19.891 8.31548 18.381 7.62318C16.8709 6.93088 15.1934 6.68838 13.5492 6.9247Z" fill="#FDCD6C"/>
<path d="M3.04958 11.3201C3.86114 11.0395 4.72152 10.928 5.57782 10.9922C5.56087 10.9491 5.53975 10.9077 5.51476 10.8686C5.19718 10.4952 4.80094 10.1967 4.35445 9.99444C3.90795 9.79217 3.42225 9.69116 2.93214 9.69864C2.28431 9.71071 1.64029 9.86818 0.991847 9.93313C0.661427 9.94977 0.330365 9.94924 0 9.93154C0.0500654 10.0222 0.085631 10.0961 0.129507 10.1646C0.412586 10.6603 0.856006 11.0448 1.38676 11.2548C1.91752 11.4649 2.50398 11.4879 3.04958 11.3201Z" fill="#FDCD6C"/>
<path d="M3.16567 18.4284C3.05374 18.3007 2.9348 18.1794 2.80942 18.0649C2.31507 17.5756 1.65687 17.2869 0.962056 17.2547C0.676567 17.2594 0.391883 17.2864 0.110632 17.3357L0.0975151 17.4295C0.929519 17.7797 1.60967 18.4147 2.01611 19.2207C2.0389 19.2565 2.06351 19.2911 2.08985 19.3244C2.27402 19.5717 2.50586 19.7796 2.77168 19.9357C3.0375 20.0919 3.33192 20.1933 3.63755 20.2338C3.94319 20.2744 4.25385 20.2533 4.55119 20.1718C4.84854 20.0903 5.12655 19.9501 5.36882 19.7594C5.28268 19.7284 5.22028 19.7008 5.15519 19.6833C4.37508 19.488 3.67791 19.0483 3.16567 18.4284Z" fill="#FDCD6C"/>
<path d="M45.6769 2.24493C45.34 1.73297 44.8839 1.31048 44.3477 1.01381C43.8114 0.717132 43.2112 0.555145 42.5985 0.541776C42.4246 0.528366 42.2505 0.563747 42.0957 0.643934C41.9374 0.763171 41.8155 0.924239 41.7437 1.10901C41.1982 2.20871 40.6813 3.32198 40.193 4.44882C40.1798 4.47922 40.1657 4.50926 40.1525 4.53966C40.1126 4.63134 40.0698 4.7217 40.0303 4.81351C39.9794 4.90854 39.9545 5.01535 39.9583 5.12309C39.9877 5.24945 40.0587 5.36228 40.1599 5.44356C40.9924 6.24941 42.0784 6.74209 43.2331 6.83787C43.3844 6.85831 43.5383 6.84622 43.6845 6.8024C43.8368 6.75831 43.9717 6.66792 44.0703 6.54374C44.0885 6.51937 44.103 6.49246 44.1134 6.46386L44.1137 6.46338C44.3434 5.6617 44.9059 4.79716 45.7159 2.75737C45.7501 2.67488 45.7644 2.58551 45.7576 2.49649C45.7508 2.40746 45.7232 2.32129 45.6769 2.24493Z" fill="#FDCD6C"/>
<path d="M40.1794 23.5266C40.0448 23.479 39.9015 23.4607 39.7593 23.4731C39.617 23.4854 39.4791 23.5281 39.3547 23.5983C38.7878 23.9291 38.3562 24.4497 38.136 25.068C37.6856 26.1913 37.8702 27.3223 38.5483 27.5942C39.1037 27.8169 39.8139 27.3881 40.3017 26.6109C40.5694 26.1953 40.7428 25.7262 40.8099 25.2365C40.8715 24.8592 40.8366 24.4725 40.7085 24.1124C40.6655 23.9836 40.5963 23.865 40.5052 23.7642C40.4141 23.6634 40.3032 23.5825 40.1794 23.5266Z" fill="#FDCD6C"/>
<path d="M47.3907 22.5551C47.3401 22.7423 47.2786 22.9324 47.2223 23.1211C47.2786 22.9323 47.3402 22.7423 47.3907 22.5551Z" fill="#F1F1F1"/>
<path d="M47.0134 23.8099C46.9399 24.0313 46.854 24.2549 46.7728 24.4777C46.8539 24.2548 46.94 24.0313 47.0134 23.8099Z" fill="#F1F1F1"/>
<path d="M46.5514 25.0858C46.4462 25.3531 46.3269 25.6215 46.2109 25.8897C46.3269 25.6214 46.4462 25.3531 46.5514 25.0858Z" fill="#F1F1F1"/>
<path d="M46.004 26.3751C45.8071 26.8062 45.5963 27.2373 45.3716 27.6682C45.5968 27.2376 45.8076 26.8066 46.004 26.3751Z" fill="#F1F1F1"/>
<path d="M47.6842 21.3299C47.6518 21.4848 47.6103 21.6429 47.5739 21.7992C47.6103 21.6428 47.6519 21.4848 47.6842 21.3299Z" fill="#F1F1F1"/>
<path d="M48.0228 18.9978C48.0156 19.0885 48.003 19.1821 47.9943 19.2737C48.0029 19.1821 48.0156 19.0885 48.0228 18.9978Z" fill="#F1F1F1"/>
<path d="M48.0372 16.8647C48.0398 16.9022 48.0403 16.9413 48.0427 16.9791C48.0403 16.9413 48.0399 16.9022 48.0372 16.8647Z" fill="#F1F1F1"/>
<path d="M47.9244 15.8875C47.9274 15.9058 47.9293 15.925 47.9321 15.9434C47.9292 15.925 47.9274 15.9058 47.9244 15.8875Z" fill="#F1F1F1"/>
<path d="M48.0701 17.9032C48.0696 17.9653 48.0654 18.0297 48.0642 18.0923C48.0654 18.0297 48.0697 17.9653 48.0701 17.9032Z" fill="#F1F1F1"/>
<path d="M47.7318 14.978L47.735 14.9913L47.7318 14.978Z" fill="#F1F1F1"/>
<path d="M47.8945 20.1416C47.8766 20.2644 47.8515 20.3906 47.8309 20.5147C47.8514 20.3906 47.8767 20.2644 47.8945 20.1416Z" fill="#F1F1F1"/>
<path d="M48.0427 16.9791C48.0403 16.9413 48.0398 16.9022 48.0372 16.8647C48.0142 16.5481 47.9792 16.241 47.9321 15.9434C47.9293 15.925 47.9274 15.9058 47.9244 15.8875C47.8741 15.5775 47.811 15.2787 47.735 14.9913L47.7318 14.978C47.446 13.6407 46.6631 12.4619 45.5415 11.6797L45.5414 11.6796C46.3322 14.6639 49.4862 29.7355 34.3642 35.5517C33.4189 35.92 32.447 36.2159 31.4568 36.4368C31.6342 36.5738 31.8224 36.6961 32.0196 36.8026C33.1095 37.3271 34.3553 37.4284 35.5156 37.0868C36.3584 36.8696 37.1662 36.534 37.9148 36.0901C40.594 34.5348 43.3415 31.5518 45.3716 27.6682C45.5967 27.2377 45.8075 26.8066 46.004 26.3751C46.078 26.213 46.1409 26.0516 46.2109 25.8897C46.3269 25.6215 46.4462 25.353 46.5513 25.0858C46.6314 24.8822 46.6991 24.6804 46.7729 24.4777C46.854 24.2549 46.9399 24.0313 47.0134 23.8098C47.0901 23.5786 47.154 23.3504 47.2223 23.121C47.2786 22.9323 47.3401 22.7422 47.3908 22.5551C47.4595 22.3006 47.5157 22.0502 47.574 21.7992C47.6104 21.6428 47.6518 21.4847 47.6842 21.3299C47.7416 21.0546 47.7863 20.7845 47.8309 20.5146C47.8515 20.3905 47.8766 20.2644 47.8945 20.1415C47.9371 19.8475 47.9672 19.5597 47.9943 19.2737C48.003 19.1821 48.0156 19.0884 48.0228 18.9977C48.0468 18.6897 48.0585 18.389 48.0642 18.0923C48.0655 18.0297 48.0696 17.9653 48.0701 17.9032C48.0721 17.5875 48.0618 17.28 48.0427 16.9791Z" fill="#F1F1F1"/>
</svg>
