<svg width="50" height="50" viewBox="0 0 50 50" fill="none" xmlns="http://www.w3.org/2000/svg">
<path d="M43.6593 24.1239V16.9C43.6593 15.1328 42.4227 13.7002 40.8974 13.7002H9.50452C7.97917 13.7002 6.74265 15.1329 6.74265 16.9V24.1239L6.75794 24.1221V36.5524L6.74265 36.5506V41.4478C11.6553 45.395 18.1387 43.9809 25.2492 43.9809C32.3137 43.9809 38.7581 45.4247 43.6592 41.5228V42.6581C43.6592 44.4252 42.4227 45.8578 40.8973 45.8578H40.8974C42.4227 45.8578 43.6592 44.4252 43.6592 42.6581V36.5506L43.6439 36.5523V24.1221L43.6593 24.1239Z" fill="#A6D8F6"/>
<path d="M43.6592 42.6581V41.5228C38.7581 45.4247 32.3137 43.9809 25.2492 43.9809C18.1387 43.9809 11.6553 45.395 6.74265 41.4478V42.6581C6.74265 44.4252 7.97917 45.8578 9.50452 45.8578H40.8973C42.4227 45.8578 43.6592 44.4252 43.6592 42.6581Z" fill="#75B3D9"/>
<path d="M32.0328 35.8365H18.3689C17.9826 35.8365 17.6121 35.99 17.3389 36.2631C17.0657 36.5363 16.9123 36.9068 16.9123 37.2932C16.9123 37.7664 17.0055 38.235 17.1866 38.6722C17.3677 39.1094 17.6331 39.5066 17.9677 39.8413C18.3024 40.1759 18.6996 40.4413 19.1368 40.6224C19.574 40.8035 20.0426 40.8967 20.5158 40.8967H29.886C30.8417 40.8967 31.7583 40.517 32.4341 39.8413C33.1099 39.1655 33.4895 38.2489 33.4895 37.2932C33.4895 37.1019 33.4519 36.9124 33.3787 36.7357C33.3055 36.559 33.1982 36.3984 33.0629 36.2631C32.9276 36.1279 32.767 36.0206 32.5903 35.9474C32.4136 35.8741 32.2241 35.8365 32.0328 35.8365Z" fill="white"/>
<path d="M29.9068 3.8733L29.9065 3.87112V3.87117C29.7268 4.77276 29.2915 5.60362 28.6525 6.26461C28.0135 6.9256 27.1979 7.38882 26.3029 7.599C25.5807 7.79005 24.8212 7.79005 24.099 7.599C23.204 7.38881 22.3884 6.92558 21.7494 6.26458C21.1104 5.60359 20.6751 4.77273 20.4954 3.87112C20.4661 4.02069 20.4436 4.17255 20.4279 4.32671C20.4182 4.42607 20.4161 4.52756 20.4126 4.62866C20.4106 4.6849 20.4042 4.74 20.4042 4.79678C20.4041 4.96057 20.4124 5.12426 20.4289 5.28722C20.5244 6.22799 20.897 7.11924 21.4995 7.84803C21.5972 7.96644 21.7004 8.07998 21.8091 8.18864C22.4392 8.81753 23.2322 9.25827 24.099 9.46135C24.1444 9.47204 24.1882 9.48668 24.2342 9.49609C24.8721 9.62605 25.5297 9.62605 26.1676 9.49609C26.2136 9.48668 26.2575 9.47201 26.3029 9.46135C27.3561 9.21743 28.2953 8.62306 28.9665 7.77561C29.6378 6.92816 30.0014 5.87787 29.9977 4.79678C29.9977 4.63794 29.989 4.48115 29.9739 4.32624C29.9586 4.17304 29.9359 4.02207 29.9068 3.8733Z" fill="#E5674A"/>
<path d="M11.7076 31.6233C11.1648 31.6233 10.6341 31.7843 10.1827 32.0858C9.73137 32.3874 9.37957 32.8161 9.17183 33.3176C8.96408 33.8192 8.90972 34.371 9.01563 34.9035C9.12154 35.4359 9.38295 35.925 9.7668 36.3088C10.1507 36.6927 10.6397 36.9541 11.1722 37.06C11.7046 37.1659 12.2565 37.1115 12.758 36.9038C13.2595 36.6961 13.6882 36.3443 13.9898 35.8929C14.2914 35.4415 14.4523 34.9108 14.4523 34.368C14.4523 33.64 14.1632 32.9419 13.6484 32.4272C13.1337 31.9125 12.4356 31.6233 11.7076 31.6233Z" fill="#E5674A"/>
<path d="M38.5847 31.6233C38.0419 31.6233 37.5112 31.7843 37.0599 32.0859C36.6085 32.3875 36.2567 32.8161 36.049 33.3177C35.8412 33.8192 35.7869 34.3711 35.8928 34.9035C35.9987 35.4359 36.2601 35.925 36.644 36.3088C37.0278 36.6927 37.5169 36.9541 38.0493 37.06C38.5817 37.1659 39.1336 37.1115 39.6351 36.9038C40.1367 36.696 40.5653 36.3442 40.8669 35.8929C41.1685 35.4415 41.3295 34.9108 41.3295 34.368C41.3295 34.0075 41.2585 33.6506 41.1205 33.3176C40.9826 32.9846 40.7804 32.682 40.5256 32.4272C40.2707 32.1723 39.9681 31.9701 39.6351 31.8322C39.3021 31.6943 38.9452 31.6233 38.5847 31.6233Z" fill="#E5674A"/>
<path d="M25.2009 26.4993C23.8438 26.4993 22.7437 29.0944 22.7437 30.4515C22.7437 31.1032 23.0026 31.7282 23.4634 32.1891C23.9242 32.6499 24.5492 32.9088 25.2009 32.9088C25.8526 32.9088 26.4776 32.6499 26.9384 32.1891C27.3993 31.7282 27.6581 31.1032 27.6581 30.4515C27.6581 29.0944 26.558 26.4993 25.2009 26.4993Z" fill="#EF7857"/>
<path d="M20.4126 4.62867C20.4107 4.68496 20.4041 4.74001 20.4041 4.79679C20.4041 4.96058 20.4124 5.12427 20.4289 5.28723C20.4124 5.12427 20.4041 4.96058 20.4042 4.79679C20.4042 4.73999 20.4106 4.6849 20.4126 4.62867Z" fill="#EF7857"/>
<path d="M25.2009 0C24.0102 0.000146856 22.8622 0.443142 21.98 1.24283C21.0978 2.04252 20.5446 3.14173 20.4279 4.32669C20.4434 4.17262 20.4659 4.02076 20.4954 3.87111C20.6751 4.77271 21.1104 5.60357 21.7494 6.26457C22.3884 6.92557 23.204 7.38879 24.099 7.59899C24.8212 7.79004 25.5807 7.79004 26.3029 7.59899C27.1979 7.3888 28.0136 6.92559 28.6525 6.2646C29.2915 5.6036 29.7268 4.77275 29.9065 3.87115C29.692 2.78069 29.1056 1.79854 28.2473 1.09248C27.3891 0.386426 26.3123 0.00027566 25.2009 0V0Z" fill="#EF7857"/>
<path d="M25.201 9.59358C24.8763 9.59375 24.5524 9.56109 24.2342 9.49612C24.5523 9.56109 24.8762 9.59375 25.2009 9.59358H25.201Z" fill="#EF7857"/>
<path d="M3.99997 26.8648V33.8097C4.00013 34.5338 4.28676 35.2284 4.79729 35.742C5.30783 36.2555 6.00079 36.5462 6.7249 36.5505C6.73096 36.5506 6.73657 36.5523 6.74262 36.5523V24.1221C6.73657 24.1221 6.73096 24.1238 6.7249 24.1239C6.00079 24.1283 5.30782 24.419 4.79729 24.9325C4.28676 25.446 4.00012 26.1407 3.99997 26.8648Z" fill="#EF7857"/>
<path d="M43.6769 24.1239C43.6708 24.1239 43.6652 24.1221 43.6592 24.1221V36.5524C43.6652 36.5524 43.6708 36.5506 43.6769 36.5506C44.401 36.5462 45.094 36.2555 45.6045 35.742C46.1151 35.2285 46.4017 34.5338 46.4018 33.8097V26.8648C46.4017 26.1407 46.115 25.446 45.6045 24.9325C45.094 24.419 44.401 24.1283 43.6769 24.1239Z" fill="#EF7857"/>
<path d="M26.3029 9.46135C26.2575 9.47204 26.2136 9.48669 26.1677 9.4961C25.8495 9.56107 25.5257 9.59373 25.201 9.59356H25.2009C24.8762 9.59373 24.5523 9.56107 24.2342 9.4961C24.1883 9.48669 24.1444 9.47201 24.099 9.46135V13.7003H26.3029V9.46135Z" fill="#34424D"/>
<path d="M14.4524 27.4115C14.4524 28.917 15.128 29.5383 16.0248 29.5383C16.9216 29.5383 17.5972 28.9169 17.5972 27.4115C17.5972 25.9061 16.9216 25.2847 16.0248 25.2847C15.128 25.2847 14.4524 25.906 14.4524 27.4115Z" fill="#34424D"/>
<path d="M34.2676 29.5383C35.1644 29.5383 35.84 28.9169 35.84 27.4115C35.84 25.9061 35.1644 25.2847 34.2676 25.2847C33.3708 25.2847 32.6952 25.9061 32.6952 27.4115C32.6952 28.9169 33.3708 29.5383 34.2676 29.5383Z" fill="#34424D"/>
<path d="M39.3221 45.8578H11.0797V50H39.3221V45.8578Z" fill="#34424D"/>
<path d="M16.6835 20.2492C16.4151 18.8274 14.6041 17.9756 12.6386 18.3466C10.673 18.7176 9.29715 20.171 9.56556 21.5928C9.83393 23.0146 11.3316 22.2069 13.2972 21.8358C15.2628 21.4648 16.9519 21.671 16.6835 20.2492Z" fill="#34424D"/>
<path d="M37.7633 18.3466C35.7978 17.9756 33.9868 18.8274 33.7184 20.2492C33.45 21.671 35.1391 21.4648 37.1047 21.8359C39.0703 22.2069 40.568 23.0146 40.8363 21.5928C41.1047 20.171 39.7289 18.7176 37.7633 18.3466Z" fill="#34424D"/>
</svg>
