<svg width="50" height="50" viewBox="0 0 50 50" fill="none" xmlns="http://www.w3.org/2000/svg">
<path d="M24.6613 12.4587H33.3789L22.9202 1.99997V10.7176C22.9202 11.1793 23.1037 11.6222 23.4302 11.9487C23.7567 12.2752 24.1996 12.4587 24.6613 12.4587Z" fill="#A6D8F6"/>
<path d="M41.9039 27.7087H37.2009C36.9722 27.7087 36.7458 27.6637 36.5346 27.5762C36.3233 27.4887 36.1314 27.3604 35.9697 27.1987C35.808 27.0371 35.6798 26.8451 35.5923 26.6339C35.5048 26.4226 35.4598 26.1962 35.4598 25.9676V17.2622L35.4476 17.2501H17.2806C16.8314 17.2506 16.3999 17.4251 16.0766 17.7369C15.7533 18.0487 15.5633 18.4736 15.5464 18.9225C15.5455 18.9458 15.5395 18.9676 15.5395 18.9911V32.3703L26.7312 40.2314L26.2144 40.5944L22.2789 43.3588H22.3236L26.2809 40.5944L26.7657 40.2557L27.2333 39.9291C28.277 39.2192 29.5105 38.8403 30.7728 38.842C32.035 38.8436 33.2675 39.2257 34.3094 39.9383L34.6922 40.2072L39.179 43.3588L34.7268 40.2314L45.9063 32.3788V27.7087H41.9039ZM19.1885 27.9144C18.8835 27.9112 18.5918 27.7886 18.376 27.5728C18.1603 27.3571 18.0377 27.0654 18.0345 26.7603V21.1073C18.0376 20.8022 18.1602 20.5105 18.376 20.2947C18.5917 20.079 18.8834 19.9564 19.1885 19.9532H24.8415C25.1467 19.9564 25.4384 20.079 25.6541 20.2947C25.8699 20.5105 25.9925 20.8022 25.9956 21.1073V26.7603C25.9956 26.9119 25.9658 27.062 25.9078 27.202C25.8498 27.342 25.7648 27.4692 25.6576 27.5764C25.5504 27.6836 25.4232 27.7686 25.2832 27.8266C25.1431 27.8846 24.9931 27.9144 24.8415 27.9144H19.1885H19.1885ZM33.3667 35.2546H21.3392V33.4742H38.0143V35.2546H33.3667ZM38.0143 32.03H21.3392V30.2497H38.0143V32.03Z" fill="#A6D8F6"/>
<path d="M22.9203 10.7176V2.01218L22.9081 2H4.74106C4.51242 2 4.28601 2.04504 4.07477 2.13255C3.86354 2.22005 3.6716 2.3483 3.50993 2.50998C3.34826 2.67166 3.22001 2.8636 3.13252 3.07484C3.04502 3.28608 2.99999 3.51249 3 3.74114V38.8533C3 39.3151 3.18343 39.758 3.50994 40.0845C3.83645 40.411 4.2793 40.5944 4.74106 40.5944H14.2286V31.4495L15.5396 30.5337V27.5111H5.57119V25.7307H15.5395V23.9275H5.57119V22.1471H15.5395V20.7029H5.57119V18.9225H15.5465C15.5633 18.4736 15.7533 18.0487 16.0766 17.7369C16.4 17.4251 16.8315 17.2506 17.2807 17.2501H33.3668V12.4587H24.6614C24.1996 12.4587 23.7568 12.2752 23.4302 11.9487C23.1037 11.6222 22.9203 11.1794 22.9203 10.7176ZM13.5324 11.3046C13.5323 11.6107 13.4107 11.9042 13.1943 12.1207C12.9779 12.3371 12.6843 12.4587 12.3782 12.4587H6.72524C6.41916 12.4587 6.12563 12.3371 5.9092 12.1207C5.69277 11.9042 5.57117 11.6107 5.57116 11.3046V5.65161C5.57117 5.34553 5.69276 5.05198 5.9092 4.83555C6.12564 4.61911 6.41919 4.49752 6.72527 4.49752H12.3783C12.6843 4.49752 12.9779 4.61911 13.1943 4.83554C13.4108 5.05197 13.5324 5.34551 13.5324 5.6516L13.5324 11.3046Z" fill="#75B3D9"/>
<path d="M35.4598 17.2501V25.9676C35.4598 26.1962 35.5048 26.4227 35.5923 26.6339C35.6798 26.8451 35.8081 27.0371 35.9697 27.1988C36.1314 27.3604 36.3234 27.4887 36.5346 27.5762C36.7458 27.6637 36.9723 27.7087 37.2009 27.7087H45.9185L35.4598 17.2501Z" fill="#75B3D9"/>
<path d="M45.9061 32.3737V32.3788L34.7268 40.2317L39.1788 43.359L47.2294 49.0134V31.4493L45.9061 32.3737Z" fill="#EF7857"/>
<path d="M45.9061 31.4493H47.2294L45.9061 30.5198V31.4493Z" fill="#EF7857"/>
<path d="M15.5396 30.5335L14.2286 31.4493H15.5396V30.5335Z" fill="#EF7857"/>
<path d="M14.2286 31.4493V40.5944V49.0134L22.3234 43.359H22.2792L26.2144 40.5944L26.7312 40.2317L15.5396 32.3701L14.2286 31.4493Z" fill="#EF7857"/>
<path d="M6.72526 12.4587H12.3783C12.6843 12.4587 12.9779 12.3371 13.1943 12.1207C13.4108 11.9042 13.5324 11.6107 13.5324 11.3046V5.6516C13.5324 5.34552 13.4108 5.05197 13.1943 4.83554C12.9779 4.61911 12.6843 4.49752 12.3783 4.49752H6.72526C6.41918 4.49753 6.12565 4.61912 5.90922 4.83555C5.69279 5.05198 5.57119 5.34551 5.57117 5.65159V11.3046C5.57118 11.6107 5.69277 11.9042 5.90921 12.1206C6.12564 12.3371 6.41918 12.4587 6.72526 12.4587ZM7.82681 6.95249L9.06497 6.97167L10.0386 6.98678L11.2767 7.00595V8.09606L10.0386 8.07688V10.6201L9.06497 10.6049V8.06177L7.82681 8.0426V6.95249Z" fill="white"/>
<path d="M15.5395 22.1471H5.57118V23.9274H15.5395V22.1471Z" fill="white"/>
<path d="M5.57118 20.7028H15.5395V18.9911C15.5395 18.9676 15.5455 18.9458 15.5465 18.9225H5.57118V20.7028Z" fill="white"/>
<path d="M15.5395 25.7307H5.57118V27.5111H15.5395V25.7307Z" fill="white"/>
<path d="M21.3389 33.474V35.2548H33.3666H38.0141V33.474H33.3666H21.3389Z" fill="white"/>
<path d="M33.3666 30.2498H21.3389V31.4493V32.0298H33.3666H38.0141V31.4493V30.2498H33.3666Z" fill="white"/>
<path d="M25.9956 26.7603V21.1073C25.9925 20.8022 25.8699 20.5105 25.6541 20.2947C25.4384 20.079 25.1466 19.9564 24.8415 19.9532H19.1885C18.8834 19.9564 18.5917 20.079 18.376 20.2947C18.1602 20.5105 18.0376 20.8022 18.0345 21.1073V26.7603C18.0377 27.0654 18.1603 27.3571 18.376 27.5728C18.5918 27.7886 18.8835 27.9112 19.1886 27.9144H24.8416C24.9931 27.9144 25.1432 27.8846 25.2832 27.8266C25.4232 27.7686 25.5505 27.6836 25.6576 27.5764C25.7648 27.4692 25.8498 27.342 25.9078 27.202C25.9658 27.0619 25.9956 26.9119 25.9956 26.7603ZM22.5018 26.0758L21.9338 26.067L21.5283 26.0607V23.5175L20.2901 23.4984V22.4082L21.5283 22.4274L22.5018 22.4425L23.74 22.4617V23.5518L22.5018 23.5326V26.0758V26.0758Z" fill="white"/>
<path d="M9.06504 6.97179L7.82716 6.95224V8.04245L9.06504 8.06199V10.6051L10.0387 10.6203V8.07719L11.2766 8.09601V7.00581L10.0387 6.98699L9.06504 6.97179Z" fill="#E5674A"/>
<path d="M45.9061 31.4493V32.3737L47.2294 31.4493H45.9061Z" fill="#E5674A"/>
<path d="M15.5397 31.4493H14.2287L15.5397 32.3701V31.4493Z" fill="#E5674A"/>
<path d="M34.6922 40.2072L34.3094 39.9383C33.2675 39.2257 32.0351 38.8436 30.7728 38.842C29.5105 38.8404 28.2771 39.2192 27.2333 39.9291L26.7658 40.2557L26.2809 40.5944L22.3236 43.3588L14.2286 49.0135H47.2294L39.179 43.3588L34.6922 40.2072Z" fill="#E5674A"/>
<path d="M21.5286 23.9272V26.0605L21.9339 26.067L22.5022 26.0757V25.6703V23.9272V23.5326L23.7401 23.5522V22.462L22.5022 22.4424L21.5286 22.4272L20.29 22.4084V23.4986L21.5286 23.5174V23.9272Z" fill="#E5674A"/>
</svg>
