<svg width="50" height="50" viewBox="0 0 50 50" fill="none" xmlns="http://www.w3.org/2000/svg">
<path d="M45.5358 21.768C45.4512 15.3168 44.644 8.86569 41.0752 5.46062C37.6701 1.8918 31.219 1.08465 24.7679 1C18.3167 1.08465 11.8656 1.8918 8.46053 5.46062C4.89173 8.86573 4.08461 15.3168 4 21.7679C4.08461 28.219 4.89172 34.6702 8.46053 38.0752C10.5402 40.2549 13.7584 41.4012 17.4165 41.9852V37.9858H16.4492C16.2618 37.9858 16.0763 37.9489 15.9032 37.8772C15.7301 37.8055 15.5728 37.7004 15.4403 37.5679C15.3078 37.4354 15.2027 37.2781 15.131 37.105C15.0593 36.9318 15.0224 36.7463 15.0224 36.5589V34.7439C15.023 34.3842 15.1599 34.0382 15.4054 33.7754C15.6509 33.5126 15.9868 33.3525 16.3456 33.3274C14.2695 31.8875 12.5966 29.9401 11.4863 27.6706C10.376 25.4011 9.86519 22.8851 10.0025 20.3623C10.1399 17.8395 10.9209 15.3938 12.271 13.2583C13.6212 11.1228 15.4956 9.36845 17.7158 8.16246C18.5612 7.70308 19.4496 7.32778 20.3683 7.04196C20.8316 6.89783 21.3042 6.77631 21.7862 6.6774C22.7674 6.47698 23.7664 6.37628 24.7678 6.37681H24.7682C25.2325 6.37681 25.6902 6.40332 26.1431 6.44631C26.3465 6.46509 26.5453 6.49738 26.7461 6.52429C26.9225 6.54824 27.1018 6.56304 27.2762 6.59287C27.3408 6.60391 27.4027 6.62242 27.4669 6.63431C27.7172 6.68052 27.9629 6.73686 28.2085 6.79545C28.4131 6.84423 28.6166 6.89491 28.8179 6.95213C29.0592 7.02074 29.297 7.09546 29.5331 7.17581C29.7307 7.24306 29.9254 7.31503 30.1192 7.39032C30.3495 7.4798 30.5777 7.5717 30.8023 7.67226C30.9935 7.7578 31.1799 7.85081 31.3667 7.94417C31.5837 8.05264 31.8005 8.16005 32.0112 8.27869C32.1974 8.38349 32.3766 8.49819 32.5577 8.61068C32.758 8.73523 32.9607 8.85559 33.1545 8.98928C33.343 9.11919 33.5215 9.26159 33.7036 9.39993C33.878 9.53252 34.0577 9.65809 34.2259 9.79811C34.5572 10.0737 34.8758 10.3632 35.1817 10.6668C35.3168 10.8007 35.4399 10.9457 35.5698 11.0847C35.748 11.2753 35.928 11.4639 36.096 11.6637C36.2249 11.8171 36.3432 11.9787 36.4658 12.1373C36.6202 12.3367 36.7745 12.5355 36.9186 12.7428C37.034 12.9088 37.1408 13.0803 37.2494 13.2511C37.3849 13.4639 37.5178 13.6779 37.6424 13.8979C37.7419 14.0736 37.8353 14.2521 37.9276 14.4321C38.0447 14.6601 38.156 14.8913 38.2616 15.1255C38.3433 15.3076 38.422 15.4905 38.4965 15.6764C38.5948 15.9215 38.684 16.1704 38.7694 16.4218C38.8321 16.6066 38.8951 16.7906 38.9507 16.9786C39.0297 17.2461 39.0957 17.5184 39.1598 17.7919C39.2019 17.972 39.2484 18.15 39.2839 18.3326C39.3437 18.6398 39.3859 18.9526 39.4264 19.2663C39.4464 19.4221 39.4749 19.575 39.4901 19.7323C39.5359 20.2062 39.5628 20.6857 39.5628 21.1717C39.5628 21.6714 39.5364 22.1648 39.488 22.6518C39.4717 22.816 39.4389 22.9748 39.4172 23.1374C39.3748 23.4565 39.3346 23.7763 39.272 24.0887C39.2332 24.2827 39.1779 24.47 39.1316 24.6612C39.0654 24.9344 39.0032 25.2091 38.922 25.4762C38.8605 25.6788 38.7839 25.8742 38.714 26.073C38.6273 26.3193 38.5444 26.5669 38.4453 26.8069C38.3611 27.0111 38.2636 27.2076 38.1706 27.4071C38.0662 27.6309 37.9647 27.8559 37.8496 28.0734C37.7427 28.2755 37.6243 28.4696 37.5085 28.6659C37.3886 28.8691 37.2708 29.073 37.1416 29.2699C37.0128 29.4663 36.8741 29.6546 36.7363 29.8445C36.6028 30.0282 36.4705 30.212 36.329 30.3892C36.1782 30.578 36.0192 30.7588 35.8595 30.94C35.715 31.1038 35.5708 31.2671 35.4193 31.4244C35.247 31.6034 35.0679 31.7745 34.8869 31.9446C34.7332 32.089 34.579 32.232 34.4192 32.3697C34.2259 32.5365 34.0272 32.6958 33.8253 32.8525C33.6643 32.9774 33.5022 33.1001 33.3359 33.2184C33.2865 33.2537 33.2401 33.2928 33.1902 33.3275C33.5489 33.3526 33.8849 33.5126 34.1304 33.7754C34.3759 34.0382 34.5127 34.3842 34.5134 34.7439V36.5589C34.5134 36.9373 34.3631 37.3003 34.0955 37.5679C33.8279 37.8355 33.4649 37.9858 33.0865 37.9858H32.1192V41.973C32.3352 41.9384 32.5584 41.9131 32.7712 41.8746L32.7699 41.8762L40.2592 44.6401C40.6692 44.792 41.1082 44.8488 41.5434 44.8065C41.9785 44.7641 42.3983 44.6236 42.7713 44.3955C43.1443 44.1675 43.4607 43.8578 43.6967 43.4898C43.9327 43.1218 44.0822 42.705 44.1339 42.2709C44.844 36.7134 45.2625 31.1226 45.3876 25.5213L45.3871 25.5221C45.4738 24.2856 45.5193 23.0272 45.5358 21.768Z" fill="#EF7857"/>
<path d="M27.2312 6.5983C27.2464 6.59715 27.261 6.59396 27.2762 6.59282C27.1018 6.563 26.9225 6.54819 26.7461 6.52425C26.5455 6.49703 26.3462 6.46549 26.1431 6.44627C25.6899 6.40443 25.2324 6.37677 24.7682 6.37677H24.7678C23.7664 6.37623 22.7674 6.47694 21.7862 6.67735C21.3046 6.77588 20.832 6.8974 20.3683 7.04191C18.0515 7.76406 15.9478 9.04486 14.2426 10.7715C12.5373 12.4981 11.2828 14.6176 10.5896 16.9433C9.89641 19.2689 9.78574 21.7293 10.2673 24.1078C10.749 26.4863 11.8081 28.7098 13.3514 30.5826C14.2193 31.6301 15.2267 32.5537 16.3456 33.3274C16.3805 33.3248 16.4137 33.317 16.4492 33.317H19.6946C17.2396 31.5429 15.3889 29.0575 14.3929 26.197C13.3969 23.3365 13.3038 20.2391 14.1261 17.324C14.9484 14.4088 16.6464 11.8166 18.9903 9.89827C21.3343 7.97991 24.211 6.82795 27.2312 6.5983Z" fill="#FFDE9C"/>
<path d="M16.3456 33.3274H16.3456C15.5074 32.7468 14.7305 32.0823 14.0268 31.3444C14.7304 32.0824 15.5074 32.7468 16.3456 33.3274Z" fill="#FFCC58"/>
<path d="M39.49 19.7323C39.4748 19.5751 39.4464 19.422 39.4263 19.2663C39.3859 18.9527 39.3436 18.6397 39.2839 18.3326C39.2484 18.1502 39.2019 17.9719 39.1597 17.7919C39.0957 17.5185 39.0295 17.2459 38.9506 16.9786C38.8951 16.7908 38.832 16.6064 38.7693 16.4218C38.6841 16.1705 38.5947 15.9214 38.4965 15.6764C38.4221 15.4907 38.3433 15.3073 38.2616 15.1255C38.1563 14.8909 38.045 14.6598 37.9276 14.4321C37.8352 14.2523 37.7418 14.0733 37.6424 13.8979C37.5179 13.678 37.3847 13.4639 37.2494 13.2511C37.1408 13.0805 37.0339 12.9086 36.9186 12.7428C36.7745 12.5356 36.62 12.3367 36.4658 12.1373C36.3432 11.9789 36.2248 11.817 36.096 11.6637C35.9281 11.4638 35.7478 11.2753 35.5697 11.0847C35.4399 10.9458 35.3167 10.8006 35.1817 10.6668C34.8759 10.3637 34.5573 10.0741 34.2259 9.79812C34.0577 9.65819 33.8779 9.5324 33.7035 9.39993C33.5216 9.26159 33.3429 9.11924 33.1545 8.98929C32.9607 8.85577 32.758 8.73506 32.5577 8.61068C32.3767 8.4982 32.1973 8.38349 32.0112 8.27869C31.8006 8.16023 31.5835 8.05247 31.3667 7.94418C31.18 7.85086 30.9933 7.75781 30.8022 7.67227C30.5779 7.57184 30.3493 7.47971 30.1191 7.39033C29.9255 7.31509 29.7304 7.24306 29.533 7.17582C29.2972 7.09558 29.0588 7.02102 28.8179 6.95213C28.6167 6.89494 28.413 6.84427 28.2084 6.79546C27.963 6.73691 27.7169 6.68044 27.4669 6.63432C27.4026 6.62243 27.3408 6.60391 27.2762 6.59287C27.261 6.59398 27.2464 6.59722 27.2312 6.59835C24.211 6.82799 21.3342 7.97994 18.9903 9.89831C16.6463 11.8167 14.9483 14.4089 14.126 17.324C13.3037 20.2392 13.3968 23.3366 14.3928 26.1971C15.3888 29.0576 17.2395 31.543 19.6945 33.3171H33.0865C33.117 33.3171 33.1456 33.3241 33.1757 33.326L33.1901 33.3275C33.2401 33.2929 33.2864 33.2537 33.3359 33.2185C33.502 33.1002 33.6644 32.9775 33.8253 32.8526C34.027 32.6961 34.2259 32.5363 34.4191 32.3697C34.5787 32.2321 34.7332 32.089 34.8868 31.9447C35.0678 31.7748 35.2471 31.6032 35.4192 31.4244C35.5705 31.2672 35.7151 31.1038 35.8595 30.94C36.0191 30.7592 36.1782 30.5779 36.3289 30.3893C36.4704 30.2122 36.603 30.0281 36.7363 29.8445C36.874 29.655 37.0128 29.4662 37.1415 29.2699C37.2705 29.0732 37.3887 28.8691 37.5085 28.666C37.6242 28.4698 37.7427 28.2754 37.8495 28.0735C37.9645 27.856 38.0663 27.6309 38.1705 27.4072C38.2635 27.2078 38.3611 27.011 38.4453 26.807C38.5443 26.567 38.6274 26.3192 38.7139 26.0731C38.7838 25.8743 38.8605 25.6788 38.922 25.4762C39.0031 25.2092 39.0654 24.9344 39.1316 24.6612C39.1779 24.4702 39.2332 24.2827 39.272 24.0888C39.3345 23.7764 39.3747 23.4566 39.4172 23.1374C39.4388 22.9749 39.4716 22.816 39.488 22.6518C39.5364 22.1649 39.5627 21.6714 39.5627 21.1718C39.5627 20.6858 39.5358 20.2062 39.49 19.7323ZM17.4165 23.64C16.943 23.64 16.4801 23.4996 16.0864 23.2366C15.6927 22.9735 15.3858 22.5996 15.2046 22.1621C15.0234 21.7246 14.976 21.2432 15.0683 20.7788C15.1607 20.3144 15.3887 19.8878 15.7236 19.553C16.0584 19.2182 16.485 18.9901 16.9494 18.8978C17.4138 18.8054 17.8952 18.8528 18.3327 19.034C18.7702 19.2152 19.1441 19.5221 19.4071 19.9158C19.6702 20.3095 19.8106 20.7724 19.8106 21.2459C19.8106 21.8809 19.5584 22.4898 19.1094 22.9388C18.6604 23.3878 18.0514 23.64 17.4165 23.64ZM24.7679 23.64C24.2944 23.64 23.8315 23.4996 23.4378 23.2366C23.044 22.9735 22.7372 22.5996 22.556 22.1621C22.3748 21.7246 22.3273 21.2432 22.4197 20.7788C22.5121 20.3144 22.7401 19.8878 23.0749 19.553C23.4098 19.2182 23.8364 18.9901 24.3008 18.8978C24.7652 18.8054 25.2466 18.8528 25.6841 19.034C26.1215 19.2152 26.4954 19.5221 26.7585 19.9158C27.0216 20.3095 27.162 20.7724 27.162 21.2459C27.162 21.8809 26.9098 22.4898 26.4608 22.9388C26.0118 23.3878 25.4028 23.64 24.7679 23.64ZM32.1192 23.64C31.6457 23.64 31.1828 23.4996 30.7891 23.2365C30.3954 22.9735 30.0885 22.5995 29.9073 22.1621C29.7261 21.7246 29.6787 21.2432 29.7711 20.7788C29.8635 20.3144 30.0915 19.8878 30.4264 19.553C30.7612 19.2181 31.1878 18.9901 31.6522 18.8978C32.1166 18.8054 32.598 18.8528 33.0355 19.034C33.4729 19.2152 33.8468 19.5221 34.1099 19.9158C34.373 20.3095 34.5134 20.7724 34.5134 21.2459C34.5134 21.5603 34.4515 21.8716 34.3312 22.1621C34.2108 22.4526 34.0345 22.7165 33.8122 22.9388C33.5898 23.1611 33.3259 23.3375 33.0354 23.4578C32.745 23.5781 32.4336 23.64 32.1192 23.64Z" fill="#FFCC58"/>
<path d="M33.1902 33.3275L33.1757 33.326C33.1456 33.3241 33.117 33.317 33.0865 33.317H16.4492C16.4137 33.317 16.3804 33.3249 16.3456 33.3274H16.3456C15.9868 33.3525 15.6509 33.5126 15.4053 33.7754C15.1598 34.0382 15.023 34.3842 15.0223 34.7439V36.5589C15.0223 36.7463 15.0592 36.9318 15.1309 37.105C15.2026 37.2781 15.3077 37.4354 15.4402 37.5679C15.5727 37.7004 15.73 37.8055 15.9032 37.8772C16.0763 37.9489 16.2618 37.9858 16.4492 37.9858H33.0865C33.4649 37.9858 33.8278 37.8355 34.0954 37.5679C34.363 37.3003 34.5134 36.9373 34.5134 36.5589V34.7439C34.5127 34.3842 34.3759 34.0382 34.1304 33.7754C33.8849 33.5126 33.5489 33.3526 33.1902 33.3275Z" fill="#34424D"/>
<path d="M20.6388 46.4142C20.7591 46.884 21.031 47.3009 21.4124 47.6005C21.7937 47.9001 22.2632 48.0655 22.7481 48.0712H26.7876C27.2725 48.0655 27.742 47.9001 28.1234 47.6005C28.5047 47.3009 28.7766 46.884 28.8969 46.4142L29.2759 45.0143H20.2598L20.6388 46.4142Z" fill="#34424D"/>
<path d="M17.4165 37.9858V42.7053C17.4165 43.0085 17.4762 43.3088 17.5923 43.5889C17.7083 43.869 17.8784 44.1236 18.0928 44.338C18.3072 44.5524 18.5618 44.7225 18.8419 44.8385C19.122 44.9546 19.4223 45.0143 19.7255 45.0143H29.8102C30.4226 45.0143 31.0099 44.771 31.4429 44.338C31.876 43.905 32.1192 43.3177 32.1192 42.7053V37.9858H17.4165Z" fill="#E5674A"/>
<path d="M17.4165 23.64C18.7387 23.64 19.8106 22.5682 19.8106 21.2459C19.8106 19.9237 18.7387 18.8518 17.4165 18.8518C16.0942 18.8518 15.0223 19.9237 15.0223 21.2459C15.0223 22.5682 16.0942 23.64 17.4165 23.64Z" fill="white"/>
<path d="M24.7679 18.8518C24.2944 18.8518 23.8315 18.9922 23.4378 19.2552C23.0441 19.5183 22.7372 19.8922 22.556 20.3297C22.3748 20.7672 22.3274 21.2486 22.4197 21.713C22.5121 22.1774 22.7401 22.604 23.075 22.9388C23.4098 23.2736 23.8364 23.5017 24.3008 23.5941C24.7652 23.6864 25.2466 23.639 25.6841 23.4578C26.1215 23.2766 26.4955 22.9697 26.7585 22.576C27.0216 22.1823 27.162 21.7194 27.162 21.2459C27.162 20.6109 26.9098 20.002 26.4608 19.553C26.0118 19.104 25.4029 18.8518 24.7679 18.8518Z" fill="white"/>
<path d="M32.1192 18.8518C31.6457 18.8518 31.1828 18.9922 30.7891 19.2553C30.3954 19.5184 30.0886 19.8923 29.9074 20.3297C29.7262 20.7672 29.6788 21.2486 29.7711 21.713C29.8635 22.1774 30.0915 22.604 30.4264 22.9388C30.7612 23.2737 31.1878 23.5017 31.6522 23.5941C32.1166 23.6864 32.598 23.639 33.0355 23.4578C33.473 23.2766 33.8469 22.9697 34.1099 22.576C34.373 22.1823 34.5134 21.7194 34.5134 21.2459C34.5134 20.9315 34.4515 20.6202 34.3312 20.3297C34.2108 20.0392 34.0345 19.7753 33.8122 19.553C33.5898 19.3307 33.3259 19.1543 33.0354 19.034C32.745 18.9137 32.4336 18.8518 32.1192 18.8518Z" fill="white"/>
</svg>
