<svg width="50" height="50" viewBox="0 0 50 50" fill="none" xmlns="http://www.w3.org/2000/svg">
<path d="M13.4139 39.1913L11.2913 37.0882C10.985 37.0029 10.6619 36.9973 10.3528 37.072C10.0437 37.1467 9.75883 37.2992 9.52527 37.515C8.75304 38.2871 6.32426 42.268 7.28161 43.2253C8.2389 44.1827 12.2198 41.7539 12.992 40.9817C13.2105 40.7448 13.3641 40.4556 13.4381 40.1419C13.512 39.8283 13.5037 39.5008 13.4139 39.1913Z" fill="#FFDE9C"/>
<path d="M17.8203 38.803L14.6191 35.6017L11.4891 32.4718C10.3743 32.4028 9.27519 32.7621 8.41643 33.4764C8.36279 33.518 8.3186 33.5706 8.28677 33.6306C8.25495 33.6906 8.23622 33.7566 8.23181 33.8244C8.22741 33.8922 8.23744 33.9601 8.26124 34.0237C8.28503 34.0873 8.32206 34.1452 8.36986 34.1934L9.73153 35.5426L11.2913 37.0882L13.4139 39.1913L14.9556 40.719L16.2793 42.0306C16.3311 42.0824 16.3943 42.1215 16.4639 42.1446C16.5334 42.1678 16.6074 42.1745 16.6799 42.1641C16.7525 42.1537 16.8217 42.1265 16.8819 42.0848C16.9421 42.043 16.9918 41.9878 17.027 41.9235C17.5697 40.9746 17.8439 39.8959 17.8203 38.803Z" fill="#34424D"/>
<path d="M45.4438 37.7932L44.0988 35.4911L42.7849 37.8902L40.3859 39.2041L42.6169 40.5078L44.0988 42.938L45.6023 40.5809L47.8117 39.2041L45.4438 37.7932Z" fill="#FDCD6C"/>
<path d="M12.9396 9.93502L13.9734 8.0449L15.8635 7.01116L13.9734 5.94991L12.9881 4.2719L12.1549 5.8073L9.93323 7.09079L11.9638 8.32288L12.9396 9.93502Z" fill="#FDCD6C"/>
<path d="M4.53529 32.8319C5.21052 32.8319 5.7579 32.2845 5.7579 31.6093C5.7579 30.9341 5.21052 30.3867 4.53529 30.3867C3.86006 30.3867 3.31268 30.9341 3.31268 31.6093C3.31268 32.2845 3.86006 32.8319 4.53529 32.8319Z" fill="#FDCD6C"/>
<path d="M13.4139 39.1914C13.5036 39.5009 13.5119 39.8283 13.438 40.142C13.3641 40.4556 13.2104 40.7449 12.9919 40.9817C12.2198 41.7539 8.23883 44.1827 7.28157 43.2254C6.32423 42.268 8.75302 38.2872 9.52522 37.515C9.75879 37.2992 10.0437 37.1467 10.3528 37.072C10.6619 36.9973 10.9849 37.0029 11.2913 37.0882L9.73151 35.5426C9.12972 35.4441 8.51329 35.4861 7.93045 35.6655C7.34761 35.8448 6.81417 36.1566 6.37186 36.5764C4.68817 38.26 -0.607382 46.9397 1.4799 49.027C3.56715 51.1143 12.2469 45.8187 13.9305 44.1351C14.3563 43.6853 14.6708 43.142 14.8488 42.5488C15.0268 41.9556 15.0633 41.3289 14.9556 40.719L13.4139 39.1914Z" fill="#FDCD6C"/>
<path d="M35.9015 32.6249C32.6825 35.4469 29.0256 37.7262 25.0743 39.3733L26.1436 46.7188C26.182 46.983 26.2932 47.2313 26.4647 47.436C26.6362 47.6406 26.8612 47.7935 27.1146 47.8776C27.368 47.9617 27.6398 47.9737 27.8997 47.9122C28.1595 47.8506 28.3971 47.7181 28.5859 47.5293L35.3664 40.7488C35.8317 40.2834 36.182 39.7158 36.3893 39.0912C36.5966 38.4666 36.6551 37.8022 36.5603 37.151L35.9015 32.6249Z" fill="#FDCD6C"/>
<path d="M9.75812 15.1405L2.97762 21.921C2.78883 22.1098 2.65627 22.3474 2.59475 22.6072C2.53324 22.8671 2.5452 23.1389 2.6293 23.3923C2.71339 23.6457 2.86631 23.8707 3.07096 24.0422C3.27561 24.2137 3.52392 24.3249 3.78813 24.3633L10.9253 25.4023C12.5563 21.4517 14.8186 17.7925 17.6238 14.5678L13.356 13.9466C12.7047 13.8518 12.0403 13.9103 11.4157 14.1176C10.7911 14.3249 10.2235 14.6752 9.75812 15.1405Z" fill="#FDCD6C"/>
<path d="M24.5711 8.27734C25.4829 7.62854 26.4231 7.01925 27.3916 6.44947C26.4244 7.02018 25.4842 7.62947 24.5711 8.27734Z" fill="#EF7857"/>
<path d="M27.3916 6.44944C28.3 5.91345 29.2251 5.4026 30.1786 4.93951C29.2251 5.40261 28.3 5.91345 27.3916 6.44944Z" fill="#EF7857"/>
<path d="M24.5711 8.27733C18.4976 12.5835 13.7667 18.5206 10.9253 25.4023C10.3871 26.6999 9.91916 28.0257 9.52355 29.3737C9.46957 29.5747 9.45787 29.7847 9.48917 29.9905C9.45788 29.7847 9.4696 29.5747 9.52359 29.3737C11.1301 23.9144 13.8928 18.8648 17.6239 14.5678C19.6832 12.2041 22.0152 10.0926 24.5711 8.27733Z" fill="#EF7857"/>
<path d="M48.861 1.68851C40.6908 3.34535 33.1277 7.20049 26.9869 12.8384C20.846 18.4764 16.3602 25.6834 14.013 33.6826C13.9991 33.7441 13.9927 33.807 13.9939 33.8701C14.0758 34.4854 14.289 35.076 14.6191 35.6017L17.8203 38.803L19.4417 40.4244C19.6383 40.6223 19.8844 40.7639 20.1542 40.8346C20.4241 40.9053 20.7079 40.9025 20.9763 40.8264C22.3682 40.4184 23.7363 39.9332 25.0744 39.3733C29.0257 37.7261 32.6826 35.4469 35.9016 32.6249C40.1307 28.9296 43.5191 24.3712 45.8389 19.2566C48.1586 14.1419 49.3558 8.58974 49.35 2.97364L49.35 2.97359C49.3492 2.49994 49.1753 2.04292 48.861 1.68851ZM29.1525 24.2683C29.3818 24.039 29.6738 23.8829 29.9918 23.8197C30.3098 23.7564 30.6394 23.7889 30.9389 23.913C31.2384 24.037 31.4944 24.2471 31.6745 24.5167C31.8547 24.7862 31.9508 25.1032 31.9508 25.4274C31.9508 25.7516 31.8547 26.0685 31.6745 26.338C31.4944 26.6076 31.2384 26.8177 30.9389 26.9418C30.6394 27.0658 30.3098 27.0983 29.9918 27.035C29.6738 26.9718 29.3818 26.8157 29.1525 26.5864C28.8451 26.279 28.6724 25.8621 28.6724 25.4274C28.6724 24.9926 28.8451 24.5757 29.1525 24.2683ZM23.2911 32.448C23.0618 32.2187 22.9057 31.9266 22.8424 31.6087C22.7792 31.2907 22.8116 30.9611 22.9357 30.6616C23.0598 30.362 23.2699 30.106 23.5394 29.9259C23.809 29.7458 24.1259 29.6497 24.4501 29.6497C24.7743 29.6497 25.0913 29.7458 25.3608 29.9259C25.6304 30.106 25.8405 30.362 25.9645 30.6616C26.0886 30.9611 26.1211 31.2907 26.0578 31.6087C25.9946 31.9266 25.8384 32.2187 25.6092 32.448C25.3018 32.7553 24.8849 32.928 24.4501 32.928C24.0154 32.928 23.5985 32.7553 23.2911 32.448H23.2911ZM41.4409 20.5305C40.8245 21.1468 40.0393 21.5666 39.1844 21.7366C38.3296 21.9067 37.4435 21.8194 36.6382 21.4858C35.8329 21.1523 35.1446 20.5874 34.6604 19.8627C34.1762 19.138 33.9177 18.2859 33.9177 17.4143C33.9177 16.5427 34.1762 15.6907 34.6604 14.9659C35.1446 14.2412 35.8329 13.6764 36.6382 13.3428C37.4435 13.0093 38.3296 12.922 39.1844 13.092C40.0393 13.2621 40.8245 13.6818 41.4409 14.2981C42.2673 15.1246 42.7316 16.2455 42.7316 17.4143C42.7316 18.5831 42.2673 19.704 41.4408 20.5305H41.4409Z" fill="#EF7857"/>
<path d="M48.5646 1.40701C48.6727 1.49062 48.772 1.58493 48.861 1.6885L48.8627 1.68816C48.773 1.58467 48.6732 1.49047 48.5646 1.40701Z" fill="#EF7857"/>
<path d="M48.5646 1.40703L48.56 1.40323C48.4584 1.32663 48.3496 1.25998 48.2351 1.20423C48.2223 1.198 48.2106 1.18982 48.1976 1.18386C48.0922 1.1362 47.9826 1.0981 47.8703 1.07C47.8456 1.06359 47.8228 1.0529 47.7977 1.04742C47.6594 1.01621 47.5181 1.00031 47.3764 1.00001L47.3763 1.00005C46.8158 1.00005 46.258 1.01167 45.7031 1.03491C44.5935 1.08124 43.4963 1.17284 42.4115 1.3097C41.3274 1.44591 40.2577 1.62555 39.2022 1.8486C38.6748 1.95982 38.1513 2.08152 37.6319 2.2137C36.593 2.47783 35.5713 2.78262 34.5667 3.12808C34.0647 3.30053 33.5674 3.48271 33.0747 3.67463C32.0895 4.05841 31.1241 4.48004 30.1786 4.93952C21.4745 9.17656 14.6249 16.4565 10.9254 25.4023C10.3871 26.7 9.91919 28.0257 9.52354 29.3737C9.46955 29.5747 9.45783 29.7848 9.48912 29.9906C9.52866 30.3364 9.68221 30.6593 9.92557 30.9083L11.4891 32.4718L14.619 35.6018C14.2889 35.076 14.0757 34.4855 13.9939 33.8701C13.9927 33.8071 13.9991 33.7441 14.0129 33.6826C16.3616 25.6838 20.8481 18.4774 26.989 12.8396C33.13 7.20175 40.6928 3.34618 48.8627 1.68818C48.773 1.58468 48.6732 1.49049 48.5646 1.40703Z" fill="#E5674A"/>
<path d="M41.4409 14.2981C40.8245 13.6818 40.0393 13.2621 39.1844 13.0921C38.3296 12.922 37.4435 13.0093 36.6382 13.3428C35.8329 13.6764 35.1446 14.2412 34.6604 14.966C34.1762 15.6907 33.9177 16.5427 33.9177 17.4143C33.9177 18.286 34.1762 19.138 34.6604 19.8627C35.1446 20.5874 35.8329 21.1523 36.6382 21.4858C37.4435 21.8194 38.3296 21.9067 39.1844 21.7366C40.0393 21.5666 40.8245 21.1469 41.4409 20.5305C42.2673 19.7041 42.7316 18.5831 42.7316 17.4143C42.7316 16.2455 42.2673 15.1246 41.4409 14.2981Z" fill="white"/>
<path d="M30.3116 27.0666C31.2169 27.0666 31.9508 26.3327 31.9508 25.4274C31.9508 24.5221 31.2169 23.7882 30.3116 23.7882C29.4063 23.7882 28.6724 24.5221 28.6724 25.4274C28.6724 26.3327 29.4063 27.0666 30.3116 27.0666Z" fill="white"/>
<path d="M24.4501 32.9281C25.3554 32.9281 26.0893 32.1942 26.0893 31.2889C26.0893 30.3836 25.3554 29.6497 24.4501 29.6497C23.5448 29.6497 22.8109 30.3836 22.8109 31.2889C22.8109 32.1942 23.5448 32.9281 24.4501 32.9281Z" fill="white"/>
</svg>
