<svg width="102" height="102" fill="none" xmlns="http://www.w3.org/2000/svg"><path d="M50.91 101.822c28.118 0 50.912-22.794 50.912-50.911S79.028 0 50.911 0 0 22.794 0 50.91c0 28.118 22.794 50.912 50.91 50.912Z" fill="#fff"/><path opacity=".85" d="M50.91 97.143c25.534 0 46.233-20.699 46.233-46.232 0-25.533-20.699-46.232-46.232-46.232-25.533 0-46.232 20.699-46.232 46.232 0 25.533 20.699 46.232 46.232 46.232Z" fill="#75B3D9"/><path d="M63.919 81.593c.16.148.31.305.453.47.267.327.483.692.643 1.082.183.413.289.856.312 1.307l-.008-.151c.303 1.2.398 2.444.282 3.677a12.809 12.809 0 0 1-.865 3.564 14.305 14.305 0 0 1-1.761 3.154c-.286.376-.591.737-.91 1.084a46.024 46.024 0 0 0 16.209-7.61 22.007 22.007 0 0 0-10.098-5.227 42.145 42.145 0 0 1-4.257-1.35Z" fill="#75B3D9"/><path d="M30.553 92.135c.768.252 1.52.549 2.254.888 1.054.486 2.051 1.038 3.036 1.595a46.177 46.177 0 0 0 25.131 1.413c.297-.667.585-1.328.85-1.988a25.2 25.2 0 0 0 .597-1.566c.199-.515.372-1.038.517-1.565.319-1.034.557-2.09.713-3.16.158-1.067.218-2.145.18-3.223l-.007-.151a3.663 3.663 0 0 0-.012-.886 4.113 4.113 0 0 0-.241-.951 5.454 5.454 0 0 0-1.157-1.796c.122.04.243.092.365.141a9.734 9.734 0 0 0-6.489-5.382c-.02.68-.143 1.83-.302 3.062l-.233 3.07s-.072-.023-.193-.065c-.182 1.184-.334 2.058-.36 2.073-.226.127.944 5.611-2.48 5.067-5.433-.864-15.931-11.853-16.42-12.138-.06-.035.291-2.083.67-4.738-4.88.356-10.252 1.959-14.077 6.309-1.496 1.999-2.68 4.214-3.51 6.569a46.34 46.34 0 0 0 10.043 7.134c.378.083.762.179 1.125.288Z" fill="#75B3D9"/><path d="M71.394 47.292c.044-.293.101-.613.168-.953-.443-.128-.893-.23-1.347-.307a6.25 6.25 0 0 1-1.95-.462c-.882-.443-1.395-1.473-.63-2.007.828-.577 2.419-.093 3.432.291.3.097.573.194.821.29a13.016 13.016 0 0 0-.635-5.08 9.77 9.77 0 0 1-6.112-1.422 11.916 11.916 0 0 1-1.393-.975c-.05-.016-.101-.026-.15-.044 3.032 6.426-17.188-2.099-20.06-1.307-3.844 1.06-3.073 11.973-2.143 16.716.06.307.121.587.182.838l.006.03c.214.88-.042 4.707-1.706 3.882a5.64 5.64 0 0 1-1.88-2.166c-.093-.152-2.071-6.988-5.18-6.143-.29.08-.565.21-.812.382l.035.08a3.27 3.27 0 0 0-1.363 2.393c-.285 3.288 1.053 8.308 4.543 9.53 1.68.587 2.214.245 2.416.003.465 2.179-.126 7.19-.665 10.974-.378 2.655-.729 4.704-.669 4.738.489.285 10.987 11.274 16.42 12.138 3.423.544 2.254-4.94 2.48-5.067.026-.015.178-.889.36-2.073-1.333-.462-9.472-3.491-12.915-9.642-1.688-3.015-2.248-6.78-.316-11.36 0 0-.128 3.854 1.542 6.166 1.67 2.313 12.39 8.209 12.39 8.209a11.03 11.03 0 0 0 5.356.415c4.25-.992 5.106-1.977 5.644-2.86 1.951-3.203 5.09-12.004 5.259-16.04.23-5.54-1.845-4.398-1.128-9.167Zm-7.096 13.37a2.202 2.202 0 0 0 1.387-1.192c.206-.64.246-1.322.116-1.981-.279-1.477-.619-3.06-.88-4.604a44.062 44.062 0 0 1-.594-4.747 27.454 27.454 0 0 1 1.719 4.47c.46 1.54.811 3.111 1.05 4.702.146.91.025 1.844-.35 2.687a3.118 3.118 0 0 1-2.185 1.597c-1.575.201-3.17.178-4.738-.07 1.506-.205 3-.492 4.475-.861ZM49.02 46.028c1.354-1.77 4.107-2.711 6.253-3.276 1.048-.275 2.681-.588 3.443.072.705.611.087 1.582-.836 1.93a6.251 6.251 0 0 1-1.988.254c-.743.048-1.481.154-2.207.316a20.463 20.463 0 0 0-4.088 1.348c-.52.23-.87-.26-.577-.644Zm6.476 5.342c-.884.036-1.978 1.149-2.021.083a2.025 2.025 0 0 1 4.041-.166c.044 1.066-1.137.047-2.02.083Zm13.673 0c-.883.036-1.977 1.149-2.02.083a2.025 2.025 0 0 1 4.041-.166c.044 1.066-1.137.047-2.02.083Z" fill="#F4BFA6"/><path d="M55.988 78.566c.159-1.231.282-2.382.302-3.062a2.333 2.333 0 0 0-.026-.56l-.042.543-.234 3.079Z" fill="#F4BFA6"/><path d="M30.553 92.135c-.363-.11-.747-.205-1.125-.288a45.941 45.941 0 0 0 6.415 2.77c-.985-.556-1.982-1.108-3.037-1.594a20.948 20.948 0 0 0-2.253-.888Z" fill="#67A1D6"/><path d="M80.164 25.132a8.703 8.703 0 0 0-2.346-3.963 9.675 9.675 0 0 0-6.746-2.642c-1.92.041-2.058.24-3.93-.41-2.28-.79-3.246-2.257-5.375-3.423-3.275-1.794-5.685-2.913-9.375-3.116-5.176-.283-9.344-.528-13.654 2.861-1.386 1.09-2.805 4.47-3.282 5.192-.228.345-4.249 1.098-6.253 2.401-6.511 4.233-1.808 15.616.373 21.232.946 2.434 1.615 6.309 1.715 6.205.216-.228.456-.434.714-.614.247-.172.522-.301.812-.382 3.109-.845 5.087 5.99 5.18 6.143a5.64 5.64 0 0 0 1.88 2.166c1.664.825 1.92-3.003 1.706-3.882l-.006-.03a20.39 20.39 0 0 1-.182-.838c-.93-4.743-1.701-15.657 2.142-16.716 2.873-.792 23.093 7.733 20.061 1.308l-.003-.001a11.469 11.469 0 0 1-4.044-2.436c1.346.741 2.78 1.31 4.268 1.691.34.084.683.152 1.026.209 1.123.197 2.27.216 3.398.053.499-.079.992-.19 1.476-.336a9.358 9.358 0 0 0 2.65-1.21l.486-.289c.155-.107.294-.236.446-.35l.902-.704c.332-.276.64-.58.951-.886.242-.238.483-.478.745-.704-.216.338-.44.676-.672 1.011-.216.313-.44.623-.676.925a11.412 11.412 0 0 1-1.738 1.638 8.28 8.28 0 0 1-2.605 1.421c-.593.212-1.204.37-1.825.474a9.915 9.915 0 0 1-3.363-.122 10.32 10.32 0 0 1-1.272-.34c.44.357.906.683 1.393.974a9.77 9.77 0 0 0 6.111 1.422c.547 1.635.763 3.362.636 5.08-.248-.096-.52-.193-.821-.29-1.013-.384-2.604-.867-3.432-.29-.765.533-.252 1.563.629 2.006.621.258 1.28.414 1.95.462.455.076.905.179 1.347.307-.066.34-.123.66-.167.953.275-.252.536-.51.778-.773.067.02.137.038.204.06 1.03.333 2.463-.534 1.031-1.634a14.72 14.72 0 0 0 2.253-7.898c2.807-2.776 5.294-8.484 4.504-11.915Zm-28.1-8.364a7.089 7.089 0 0 1 2.13 1.726c.56.693 1.065 1.427 1.512 2.196.92 1.397 1.922 2.94 3.543 2.362.817-.237 1.62-.522 2.404-.854.82-.3 1.634-.621 2.474-.868a34.573 34.573 0 0 1-4.665 2.473 3.255 3.255 0 0 1-1.465.183 2.9 2.9 0 0 1-1.382-.64 9.595 9.595 0 0 1-1.752-2.118A18.59 18.59 0 0 0 53.47 19.1a7.052 7.052 0 0 0-1.795-1.659 6.957 6.957 0 0 0-4.84-.988 6.232 6.232 0 0 1 5.23.316ZM45.18 31.28a11.83 11.83 0 0 1-2.14-.532 12.258 12.258 0 0 1-3.885-2.133 13.541 13.541 0 0 1-2.195-2.236 12.515 12.515 0 0 1-2.417-5.11 22.153 22.153 0 0 0 2.299 3.596c.304.388.64.746.971 1.107a16.768 16.768 0 0 0 1.968 1.865 15.678 15.678 0 0 0 3.547 2.186c1.301.58 2.65 1.048 4.032 1.397a18.05 18.05 0 0 1-2.18-.14Z" fill="#EF7857"/><path d="M55.272 42.751c-2.146.565-4.899 1.506-6.253 3.276-.294.385.058.875.577.644a20.48 20.48 0 0 1 4.088-1.348 14.409 14.409 0 0 1 2.207-.316 6.248 6.248 0 0 0 1.988-.254c.923-.348 1.541-1.319.836-1.93-.762-.66-2.395-.347-3.443-.072Z" fill="#EF7857"/><path d="M55.416 49.439a2.144 2.144 0 0 0-1.942 2.013c.043 1.066 1.137-.047 2.02-.083.884-.036 2.065.983 2.021-.083a2.145 2.145 0 0 0-2.1-1.847ZM69.09 49.439a2.144 2.144 0 0 0-1.942 2.013c.043 1.066 1.137-.047 2.02-.083.884-.036 2.065.983 2.021-.083a2.145 2.145 0 0 0-2.1-1.847Z" fill="#004B6A"/><path d="M67.058 64.058a1.628 1.628 0 0 0-.546.097c-.292.075.038.042-.251.124a1.929 1.929 0 0 1-.925 1.787c-1.151.588-6.783 1.107-8.99-1.566.08.985.542 1.9 1.288 2.55a7.636 7.636 0 0 0 7.54 1.444c.936-.324.061-2.01 1.924-4.28.066-.08.076-.142-.04-.156Z" fill="#E09B80"/><path d="M65.336 66.066a1.93 1.93 0 0 0 .925-1.787l-.052.015a14.772 14.772 0 0 1-3.953.77c-.265 0-.53-.017-.793-.048-.25-.028-.5-.067-.753-.108a16.408 16.408 0 0 1-2.81-.658 5.282 5.282 0 0 1-.64-.266c-.598-.304-.9-.02-.914.516 2.207 2.673 7.839 2.154 8.99 1.566Z" fill="#fff"/><path d="M43.873 66.735c-1.67-2.312-1.542-6.166-1.542-6.166-1.932 4.58-1.372 8.345.316 11.36 3.443 6.15 11.582 9.18 12.915 9.642.121.042.193.065.193.065l.233-3.07.234-3.079.042-.543s-10.721-5.897-12.391-8.209Z" fill="#E2A993"/><path d="M64.56 61.593a3.119 3.119 0 0 0 2.185-1.596 4.747 4.747 0 0 0 .35-2.687 33.93 33.93 0 0 0-1.05-4.703 27.456 27.456 0 0 0-1.718-4.469 44.09 44.09 0 0 0 .593 4.747c.262 1.544.602 3.127.88 4.604.131.66.091 1.341-.115 1.98a2.201 2.201 0 0 1-1.387 1.194 41.515 41.515 0 0 1-4.475.862 16.73 16.73 0 0 0 4.737.069Z" fill="#E09B80"/><path d="M63.598 36.624c.049.017.1.027.15.044-.135-.11-.204-.17-.194-.149.019.038.027.068.044.105ZM75.9 31.66c-.263.227-.504.467-.745.705.018.07.043.174.073.307.231-.335.455-.673.671-1.011Z" fill="#D85D32"/><path d="M73.301 33.956c-.152.113-.29.242-.446.35l-.486.287a9.355 9.355 0 0 1-2.65 1.211c.17.276.333.56.49.852a8.281 8.281 0 0 0 2.604-1.421 11.407 11.407 0 0 0 1.738-1.638c.236-.302.46-.612.677-.925-.03-.133-.055-.237-.073-.307-.311.306-.62.61-.952.886l-.902.705ZM64.846 36.087a13.724 13.724 0 0 1-1.027-.209 18.251 18.251 0 0 1-4.268-1.691 11.469 11.469 0 0 0 4.044 2.436h.003c-.017-.036-.025-.066-.044-.104-.01-.02.06.04.194.148.417.14.842.255 1.273.34l-.175-.92Z" fill="#D85D32"/><path d="M68.383 37.13a10.598 10.598 0 0 0 1.825-.474 17.14 17.14 0 0 0-.489-.852c-.484.145-.977.257-1.476.336a10.745 10.745 0 0 1-3.398-.053l.175.92a9.92 9.92 0 0 0 3.363.123ZM51.674 17.44a7.052 7.052 0 0 1 1.795 1.66c.513.676.979 1.387 1.394 2.128.48.787 1.07 1.5 1.752 2.118.396.333.873.554 1.382.64.496.052.997-.01 1.465-.183a34.569 34.569 0 0 0 4.666-2.473c-.841.247-1.656.568-2.475.868-.784.332-1.587.617-2.404.854-1.62.579-2.622-.965-3.543-2.362a17.433 17.433 0 0 0-1.512-2.195 7.086 7.086 0 0 0-2.13-1.727 6.23 6.23 0 0 0-5.23-.316 6.956 6.956 0 0 1 4.84.988ZM34.543 21.269a12.515 12.515 0 0 0 2.417 5.11c.275-.14.56-.275.853-.407-.331-.361-.667-.72-.971-1.107a22.153 22.153 0 0 1-2.299-3.596Z" fill="#D85D32"/><path d="M39.155 28.615c1.154.941 2.47 1.664 3.884 2.133a11.83 11.83 0 0 0 2.14.532c.724.09 1.452.137 2.182.14a24.828 24.828 0 0 1-4.033-1.397 15.677 15.677 0 0 1-3.547-2.186 16.775 16.775 0 0 1-1.968-1.865c-.293.132-.578.268-.853.407.642.828 1.38 1.578 2.195 2.236Z" fill="#D85D32"/><path d="M63.919 81.593a2.902 2.902 0 0 0-.449-.348 3.376 3.376 0 0 0-.69-.359c.087.202.133.33.133.33.345.133.68.258 1.006.377ZM64.736 91.542c.458-1.14.749-2.34.865-3.564a10.876 10.876 0 0 0-.282-3.677l.008.15a3.713 3.713 0 0 0-.312-1.306 4.288 4.288 0 0 0-.643-1.082 5.945 5.945 0 0 0-.453-.47 64.537 64.537 0 0 1-1.006-.377s-.046-.128-.134-.33c-.122-.05-.243-.1-.365-.14a5.45 5.45 0 0 1 1.157 1.795c.118.306.199.626.24.951.04.294.045.591.013.886l.008.151a17.817 17.817 0 0 1-.18 3.223 21.039 21.039 0 0 1-.714 3.16c-.145.527-.318 1.05-.517 1.566a25.138 25.138 0 0 1-.598 1.565c-.264.66-.552 1.321-.849 1.988.365-.08.73-.162 1.09-.251.32-.347.626-.708.91-1.084a14.3 14.3 0 0 0 1.762-3.154Z" fill="#67A1D6"/><path d="M31.737 51.734a1.99 1.99 0 0 1 1.684-1.209 2.62 2.62 0 0 1 2.09.798c.478.549.784 1.225.883 1.946.117.67.083 1.358-.1 2.014-.225-.636-.422-1.24-.653-1.807a4.818 4.818 0 0 0-.858-1.468 1.871 1.871 0 0 0-.61-.452 2.278 2.278 0 0 0-.754-.253 2.482 2.482 0 0 0-1.682.43Z" fill="#E09B80"/><path opacity=".15" d="M58.785 54.392a9.06 9.06 0 0 1-3.729.489 8.951 8.951 0 0 0-2.79-.388 2.385 2.385 0 0 0-1.75 2.029 2.55 2.55 0 0 0 .934 2.285c.743.585 1.923.17 2.747.035a34.879 34.879 0 0 0 9.11-2.436c.326-.172.678-.289 1.042-.344.71-.063 1.126.456 1.467.994.99 1.565 3.561 3.332 4.645.855a1.59 1.59 0 0 0-1.113-2.312c-.445-.13-.9-.221-1.36-.276-.839-.218-1.65-.533-2.415-.94-2.371-1.012-4.387-.685-6.788.01Z" fill="#F79B86"/></svg>