<svg width="103" height="102" fill="none" xmlns="http://www.w3.org/2000/svg"><path d="M51.733 101.822c28.117 0 50.911-22.794 50.911-50.911S79.85 0 51.733 0 .822 22.794.822 50.91c0 28.118 22.794 50.912 50.91 50.912Z" fill="#fff"/><path opacity=".85" d="M51.733 97.143c25.533 0 46.232-20.699 46.232-46.232 0-25.533-20.7-46.232-46.232-46.232C26.2 4.68 5.5 25.378 5.5 50.911c0 25.533 20.699 46.232 46.232 46.232Z" fill="#65C898"/><path d="m41.347 78.918-.023-.007c-.025.936-.042 1.85-.045 2.704 0 .085.018.17.051.248-.008-.924 0-1.92.017-2.945Z" fill="#733832"/><path d="M41.347 78.918a117.764 117.764 0 0 0-.017 2.945c.517 1.299 5.031 1.938 6.358 1.563 7.394-2.09 9.403-6.746 10.072-9.064-2.733 2.86-6.234 5.002-10.356 5.126a19.34 19.34 0 0 1-6.057-.57Z" fill="#733832"/><path d="M45.655 89.273a6.859 6.859 0 0 0 5.02.976 11.917 11.917 0 0 0 4.092-1.801c.284-.185.57-.369.846-.57.16-.115.317-.24.476-.36 1.365-1.027 2.68-2.177 4.06-3.331l.023-.02-.015-2.305-.064-10.332c.416-.577.808-1.169 1.177-1.774a1.18 1.18 0 0 1-.208-.16l-.987-.983-.658-.656a1.18 1.18 0 0 1-.28-1.227l.383-1.091.386-1.1a1.17 1.17 0 0 1 1.08-.783 18.558 18.558 0 0 1-2.839-5.764c-4.255 4.201-2.593-5.367-2.593-5.367-3.943 1.748-.88-3.793.105-5.461a4.328 4.328 0 0 0-2.323-2.114c-2.336-1.155-1.067-4.645-3.763-5.577a13.215 13.215 0 0 1-7.912 4.254c-5.42.62-1.849-2.124-.17-3.268l-.092.022c-.076.017-.13.022-.193.033a18.12 18.12 0 0 1-6.17 1.911c-.46.676-.877 1.38-1.249 2.109a25.09 25.09 0 0 0-1.292 5.524 3.051 3.051 0 0 1 1.713-.74c.936-.165 2.392-.313 3.04.375.6.637.018 1.494-.811 1.739a5.148 5.148 0 0 1-1.767.061 11.838 11.838 0 0 0-1.963.1c-.1.01-.2 0-.296-.03.022.664.158 1.319.402 1.936 1.561 3.85-.031 6.05-.543 7.23a4.189 4.189 0 0 0-.278 1.864c.195 4.074 2.45 7.112 4.475 11.922a7.269 7.269 0 0 0 4.857 4.395l.023.008c1.976.508 4.02.7 6.057.57 4.122-.124 7.622-2.266 10.356-5.126-.669 2.318-2.678 6.974-10.072 9.064-1.327.375-5.842-.265-6.358-1.563.007.831.026 1.606.06 2.28.011.252.025.486.041.708l.018.217c.008.094.015.188.024.275a17.036 17.036 0 0 0 4.182 3.93ZM45.59 57.87a2.046 2.046 0 0 1 4.073 0c0 1.02-1.148.013-2.039.013-.89 0-2.034 1.007-2.034-.013Zm5.858 3.875a.552.552 0 1 1 .246 1.076.552.552 0 0 1-.246-1.076Zm-8.11-11.884c.618-.734 2.2-.682 3.226-.579 2.102.212 4.83.69 6.366 2.152.334.318.076.831-.447.691a19.503 19.503 0 0 0-4.043-.66 13.72 13.72 0 0 0-2.122.03 5.95 5.95 0 0 1-1.908.056c-.92-.19-1.645-1.01-1.072-1.69Zm-9.16 7.917a1.777 1.777 0 0 1 3.537 0c0 .886-.993.012-1.766.012s-1.77.874-1.77-.012Zm2.193 6.53a2.505 2.505 0 0 1-.283-2.137c.126-.341.316-.655.558-.926.19-.243.398-.47.607-.694a12.458 12.458 0 0 1 2.851-2.342 18.082 18.082 0 0 1-2.12 2.99c-.194.23-.385.462-.588.682a1.77 1.77 0 0 0-.4.61 1.647 1.647 0 0 0 .138 1.368 3.307 3.307 0 0 0 2.732 1.503 7.107 7.107 0 0 0 3.322-.733 1.039 1.039 0 0 0-.721-.54 1.165 1.165 0 0 0-1.202.587 1.19 1.19 0 0 1 1.24-.967 1.348 1.348 0 0 1 .376 2.622 1.19 1.19 0 0 1-1.462-.58 1.164 1.164 0 0 0 1.319.223 1.01 1.01 0 0 0 .461-1.323 6.136 6.136 0 0 1-3.336 1.296 3.818 3.818 0 0 1-3.492-1.64Zm.991 6.824a2.774 2.774 0 0 1-.628-.402c-.07-.07-.088-.124.019-.152a1.55 1.55 0 0 1 .528.025c.301.036.601.083.902.128 1.126.21 2.271.298 3.416.263.137-.01.274-.007.41-.025.25-.033.498-.08.742-.142.233-.058.464-.125.698-.195.883-.247 1.743-.57 2.57-.968a5.04 5.04 0 0 0 .57-.33c1.19-.813-.065 1.85-1.622 3.17a3.542 3.542 0 0 1-3.451.467 19.622 19.622 0 0 1-4.154-1.84Z" fill="#915851"/><path d="M56.615 89.076a11.204 11.204 0 0 1-5.565 3.137 7.38 7.38 0 0 1-3.382-.122 7.902 7.902 0 0 1-2.925-1.56 10.388 10.388 0 0 1-3.26-5.104c.029.268.062.51.101.704.048.242.568 3.755 1.457 7.8.286.866.607 1.706.923 2.549 2.567.438 5.165.66 7.769.663 1.38 0 2.742-.072 4.09-.19a85.869 85.869 0 0 0 4.352-12.286l-.003-.452a18.321 18.321 0 0 1-3.557 4.86Z" fill="#915851"/><path d="M39.863 65.947a6.136 6.136 0 0 0 3.336-1.295l-.011-.023a7.106 7.106 0 0 1-3.322.733 3.307 3.307 0 0 1-2.732-1.503 1.646 1.646 0 0 1-.138-1.368c.09-.229.226-.436.4-.61.203-.22.394-.452.588-.683a18.08 18.08 0 0 0 2.12-2.989 12.46 12.46 0 0 0-2.85 2.343c-.21.224-.418.45-.608.693a2.9 2.9 0 0 0-.558.926 2.507 2.507 0 0 0 .283 2.137 3.818 3.818 0 0 0 3.492 1.64Z" fill="#733832"/><path d="M47.626 56.021a2.116 2.116 0 0 0-2.036 1.849c0 1.02 1.144.013 2.034.013.89 0 2.039 1.007 2.039-.013a2.115 2.115 0 0 0-2.037-1.849ZM35.947 56.173a1.837 1.837 0 0 0-1.768 1.605c0 .886.997.012 1.77.012s1.766.874 1.766-.012a1.837 1.837 0 0 0-1.768-1.605Z" fill="#331817"/><path d="M46.59 69.333a5.04 5.04 0 0 1-.571.33c-.827.398-1.687.722-2.57.969-.233.07-.465.137-.698.195a6.54 6.54 0 0 1-.742.142c-.136.018-.273.016-.41.025a16.026 16.026 0 0 1-3.416-.263c-.3-.045-.6-.092-.902-.128a1.55 1.55 0 0 0-.528-.025c-.107.028-.088.082-.019.152.19.161.402.297.628.402a19.62 19.62 0 0 0 4.154 1.839 3.54 3.54 0 0 0 3.451-.468c1.557-1.319 2.812-3.982 1.623-3.17Z" fill="#733832"/><path d="M43.04 93.93c-.888-4.044-1.408-7.557-1.456-7.799a8.157 8.157 0 0 1-.101-.704c-.012-.042-.032-.082-.044-.124l.034.04c-.009-.087-.017-.181-.024-.275-.006 0-.02-.009-.023-.006-5.538 4.004-9.958 4.104-13.96 4.894.11.008.221.023.33.044a4.634 4.634 0 0 0-.515.142 45.933 45.933 0 0 0 15.906 6.2 20.622 20.622 0 0 1-.181-2.507c.01.032.024.063.035.096ZM77.218 88.72a8.714 8.714 0 0 0-3.307 2.761 46.22 46.22 0 0 0 4.362-2.726c-.35-.03-.703-.042-1.055-.036ZM76.153 88.794c-7.297.806-12.581-3.565-15.971-4.596l-.01.017.003.452a85.857 85.857 0 0 1-4.351 12.285 45.93 45.93 0 0 0 16.331-4.563c.18-.383.394-.75.639-1.095a6.881 6.881 0 0 1 1.96-1.893 5.327 5.327 0 0 1 1.399-.607ZM60.075 68.613l.987.983a1.194 1.194 0 0 0 1.946-.445l.77-2.19a1.247 1.247 0 0 0-.281-1.227l-.134-.134-.777-.774a2.405 2.405 0 0 1-.957-.463 4.566 4.566 0 0 1-.643-.607 1.17 1.17 0 0 0-1.08.783l-.386 1.1-.383 1.091a1.18 1.18 0 0 0 .28 1.227l.658.656Z" fill="#65C898"/><path d="m60.172 84.167-.023.02c-1.38 1.154-2.695 2.304-4.06 3.33-.159.12-.315.246-.476.362-.277.2-.562.384-.846.569a11.918 11.918 0 0 1-4.092 1.8 6.859 6.859 0 0 1-5.02-.975 17.04 17.04 0 0 1-4.182-3.93l-.034-.04c.012.042.032.082.044.124a10.388 10.388 0 0 0 3.26 5.104 7.902 7.902 0 0 0 2.925 1.56 7.38 7.38 0 0 0 3.382.122 11.204 11.204 0 0 0 5.565-3.137 18.321 18.321 0 0 0 3.557-4.86l.01-.018c.012-.025.028-.048.04-.073l-.05.042ZM42.738 65.974a1.165 1.165 0 0 1-1.319-.222 1.19 1.19 0 0 0 1.462.579 1.348 1.348 0 0 0-.377-2.622 1.19 1.19 0 0 0-1.24.967 1.165 1.165 0 0 1 1.203-.586 1.038 1.038 0 0 1 .72.54l.012.022a1.01 1.01 0 0 1-.461 1.322Z" fill="#FDCD6C"/><path d="M88.244 40.203s2.148-.174 1.14-2.834c-.554-1.462-2.058-3.674-5.406-7.028 0 0 2.358-2.552-4.612-7.306-6.97-4.754-7.785-4.258-8.264-2.291 0 0-12.313-13.906-9.72-4.59 0 0-13.468-7.45-13.813-4.894-.344 2.556 2.48 4.078 2.48 4.078s-17.29-6.611-8.29.93c0 0-9.277-.651-11.16 1.947-.23.316 1.98 2.787 1.27 2.931-12.1 2.464-14.552 5.499-10.352 7.161a97.839 97.839 0 0 0-5.225 9.062c-1.478 3.062-2.245 5.639-.406 5.284 0 0-4.002 15.003.412 13.994 0 0-1.496 12.418 1.051 11.371 0 0 3.813 10.585 7.243 9.337 0 0 4.469 5.326 7.74 4.733a44.681 44.681 0 0 0 9.1 2.763 53.954 53.954 0 0 1-.101-2.988.66.66 0 0 1-.052-.248c.003-.853.02-1.768.045-2.704a7.27 7.27 0 0 1-4.857-4.396c-2.025-4.81-4.28-7.848-4.475-11.922a4.187 4.187 0 0 1 .278-1.863c.512-1.182 2.104-3.381.543-7.23a5.802 5.802 0 0 1-.402-1.937c.096.03.197.04.296.03.65-.087 1.307-.12 1.963-.1.588.082 1.186.06 1.767-.061.829-.245 1.412-1.102.812-1.74-.65-.687-2.105-.539-3.041-.373a3.052 3.052 0 0 0-1.713.739 25.09 25.09 0 0 1 1.292-5.524c.372-.729.79-1.433 1.25-2.109a18.122 18.122 0 0 0 6.169-1.911c.064-.011.117-.016.193-.033l.091-.022c-1.678 1.143-5.248 3.888.17 3.268a13.215 13.215 0 0 0 7.913-4.254c2.696.932 1.427 4.422 3.763 5.577a4.328 4.328 0 0 1 2.323 2.114c-.986 1.668-4.048 7.21-.105 5.46 0 0-1.662 9.57 2.593 5.368a18.556 18.556 0 0 0 2.84 5.764c.194.222.409.426.642.607.28.224.608.382.957.463l.777.774.134.134a1.246 1.246 0 0 1 .28 1.226l-.769 2.191a1.177 1.177 0 0 1-1.738.605c-.37.606-.762 1.197-1.177 1.774l.064 10.332c6.095-.65 12.387-1.846 13.862-6.361 0 0 13.14 1.95 11.093-9.038 0 0 5.633.26 4.688-12.682 0 0 5.443-1.245-1.556-13.578ZM66.376 55.066a3.375 3.375 0 0 1-.198-.291 4.142 4.142 0 0 1-.486-.962 6.694 6.694 0 0 1-.29-1.214 8.499 8.499 0 0 1-.047-1.38 8.502 8.502 0 0 1 .967-3.586 31.75 31.75 0 0 0 .07 4.833c.017.127.039.252.06.377a5.46 5.46 0 0 0 .571 1.786c.045.083.102.158.153.237.385.574.886 1.06 1.47 1.429a3.488 3.488 0 0 1-2.27-1.23Zm-15.521-22.64c.429.445.907.841 1.426 1.18.474.3.977.556 1.5.763.656.269 1.35.439 2.056.504a6.014 6.014 0 0 1-3.944-.59c-.12-.058-.228-.138-.344-.204a8.05 8.05 0 0 1-1.35-.97 3.172 3.172 0 0 1-.733-.863 1.673 1.673 0 0 1-.122-1.331c.324-.7.872-1.271 1.557-1.624.59-.338 1.211-.617 1.856-.833a16.208 16.208 0 0 1 3.88-.825 74.81 74.81 0 0 0-3.585 1.544c-.57.266-1.12.572-1.648.913a2.72 2.72 0 0 0-1.113 1.146c-.146.363.077.734.564 1.19ZM22.177 56.557a2.787 2.787 0 0 1-.839-1.6 10.002 10.002 0 0 1 .015-3.4 19.93 19.93 0 0 1 .797-3.232c.34-1.055.783-2.075 1.32-3.044-.322 2.195-.811 4.306-1.129 6.425a15.054 15.054 0 0 0-.231 3.135c.006.487.15.962.416 1.37a1.605 1.605 0 0 0 1.347.567 1.65 1.65 0 0 1-1.696-.221Zm4.743 13.22a3.947 3.947 0 0 1-.983-1.774 5.202 5.202 0 0 1-.096-1.963c.073-.643.28-1.265.606-1.825l.171 1.84c.052.573.148 1.142.287 1.701.133.535.34 1.048.618 1.524.333.49.732.932 1.186 1.313a2.898 2.898 0 0 1-1.789-.817Zm3.241-28.997a13.257 13.257 0 0 1-1.546-.08 2.897 2.897 0 0 1-.829-.216 1.442 1.442 0 0 1-.742-.673 2.064 2.064 0 0 1 .218-1.798c.119-.223.25-.438.393-.645.159-.231.325-.453.497-.667a28.022 28.022 0 0 1 3.791-3.669c-.025-.013-.051-.02-.077-.034a2.86 2.86 0 0 1-.43-.306 1.625 1.625 0 0 1-.342-.485 1.605 1.605 0 0 1-.056-1.136c.094-.31.235-.604.416-.872a11.366 11.366 0 0 1 2.413-2.447 44.503 44.503 0 0 1 5.101-3.423 1.795 1.795 0 0 1-.378-.848 1.18 1.18 0 0 1 .205-.867c.07-.119.164-.223.275-.305a1.39 1.39 0 0 1 .304-.221 6.818 6.818 0 0 1 2.48-.706 34.623 34.623 0 0 1 4.901-.204c1.627.019 3.248.116 4.865.256a87.52 87.52 0 0 1 4.834.524c-3.235-.164-6.473-.24-9.697-.186-1.601.015-3.2.142-4.784.383-.748.1-1.474.322-2.15.66-.286.186-.412.36-.37.55.093.297.265.564.497.771l.373.418-.47.278a44.96 44.96 0 0 0-5.376 3.673 11.789 11.789 0 0 0-2.194 2.233c-.274.4-.436.85-.307 1.073.077.26.55.483 1.013.613l.907.255-.74.578a29.45 29.45 0 0 0-4.332 3.994c-.031.038-.06.079-.09.117a6.97 6.97 0 0 0-.72 1.04 1.423 1.423 0 0 0-.242 1.064c.09.24.506.427.955.492.48.07.963.114 1.447.13.9.038 1.802-.011 2.692-.149.724-.11 1.44-.272 2.14-.485.316-.096.634-.186.944-.3a10.551 10.551 0 0 0 3.107-1.792 8.037 8.037 0 0 0 1.551-1.737l.002-.002-.001.002a7.332 7.332 0 0 1-1.285 1.737 10.675 10.675 0 0 1-3.211 2.18 13.432 13.432 0 0 1-3.836 1.072c-.7.102-1.408.156-2.116.16Zm41.036 31.013a4.676 4.676 0 0 1-1.925 1.428 2.118 2.118 0 0 1-2.284-.403 2.436 2.436 0 0 0 1.966-.306 6.246 6.246 0 0 0 1.473-1.357c.438-.54.848-1.119 1.253-1.72.417-.594.798-1.22 1.29-1.816a8.63 8.63 0 0 1-1.773 4.174Zm2.582-32.545a2.226 2.226 0 0 0-.607-1.88 5.034 5.034 0 0 0-.43-.44 13.161 13.161 0 0 0-2.249-1.53c-1.606-.924-3.314-1.707-5.001-2.662.964.099 1.914.308 2.83.623.925.303 1.818.695 2.667 1.17a8.37 8.37 0 0 1 2.321 1.865c.235.295.425.623.562.974.062.13.114.264.155.402a1.864 1.864 0 0 1-.248 1.478Zm11.816 15.895c-.11.503-.393.952-.8 1.267-.39.274-.855.42-1.331.417a2.134 2.134 0 0 0 1.362-1.814 6.23 6.23 0 0 0-.464-2.355c-.27-.795-.63-1.576-.978-2.37-.36-.791-.728-1.586-1.072-2.42a10.4 10.4 0 0 1 1.751 2.041c.51.752.927 1.563 1.241 2.416.359.894.46 1.87.291 2.818Z" fill="#2B3A45"/><path d="M46.564 49.282c-1.026-.103-2.608-.155-3.227.579-.572.68.154 1.5 1.073 1.69a5.95 5.95 0 0 0 1.908-.056 13.72 13.72 0 0 1 2.122-.03c1.367.077 2.722.298 4.043.66.523.14.78-.373.447-.69-1.536-1.464-4.264-1.94-6.366-2.153ZM51.448 61.745a.552.552 0 1 0 .246 1.075.552.552 0 0 0-.246-1.075Z" fill="#2B3A45"/><path d="M76.153 88.794c-.493.134-.964.339-1.399.608a6.88 6.88 0 0 0-1.96 1.892 7.25 7.25 0 0 0-.639 1.096 46.057 46.057 0 0 0 1.756-.909 8.713 8.713 0 0 1 3.307-2.762c.039-.017.07-.042.11-.06a3.572 3.572 0 0 0-1.175.135ZM43.006 93.835c.01.838.07 1.675.181 2.506.145.027.29.052.436.078.114.02.227.042.341.06-.316-.842-.637-1.682-.923-2.548l-.035-.096ZM26.961 89.938l.15.096c.057.035.113.073.17.108.169-.057.34-.104.515-.142a2.721 2.721 0 0 0-.33-.044 3.171 3.171 0 0 0-.505-.019Z" fill="#50A578"/><path d="M51.62 21.435a64.907 64.907 0 0 0-4.864-.256 34.623 34.623 0 0 0-4.902.204 6.817 6.817 0 0 0-2.48.706c-.11.06-.213.134-.304.221a1.032 1.032 0 0 0-.275.305 1.18 1.18 0 0 0-.205.867c.05.31.18.603.378.848a44.516 44.516 0 0 0-5.1 3.423 11.362 11.362 0 0 0-2.414 2.447 3.24 3.24 0 0 0-.416.872c-.121.373-.1.777.056 1.136.083.181.199.346.341.485.134.115.278.217.431.306.026.014.052.021.077.034a28.022 28.022 0 0 0-3.79 3.668 10.84 10.84 0 0 0-.498.668 6.484 6.484 0 0 0-.393.645 2.062 2.062 0 0 0-.218 1.797c.16.306.422.545.742.674.264.112.544.185.83.215.513.057 1.029.084 1.545.08a15.178 15.178 0 0 0 2.116-.16 13.433 13.433 0 0 0 3.836-1.071 10.671 10.671 0 0 0 3.211-2.18 7.332 7.332 0 0 0 1.285-1.738l.001-.002-.002.003a8.033 8.033 0 0 1-1.55 1.737 10.548 10.548 0 0 1-3.108 1.791c-.31.115-.628.205-.944.3-.7.214-1.416.376-2.14.486-.89.138-1.792.187-2.692.149a12.63 12.63 0 0 1-1.447-.13c-.449-.066-.864-.253-.955-.492a1.426 1.426 0 0 1 .242-1.064c.208-.368.449-.716.72-1.04.03-.038.058-.079.09-.117a29.444 29.444 0 0 1 4.332-3.994l.74-.578-.907-.255c-.462-.13-.936-.353-1.013-.613-.129-.223.033-.673.306-1.073.63-.838 1.368-1.59 2.195-2.233a44.96 44.96 0 0 1 5.377-3.673l.47-.278-.374-.418a1.741 1.741 0 0 1-.498-.77c-.041-.19.085-.365.372-.552a6.847 6.847 0 0 1 2.149-.66 33.994 33.994 0 0 1 4.785-.382c3.223-.054 6.46.022 9.696.186a87.416 87.416 0 0 0-4.834-.524ZM22.526 56.212a2.567 2.567 0 0 1-.416-1.37c-.033-1.05.045-2.1.231-3.135.318-2.119.807-4.23 1.13-6.425-.538.97-.98 1.989-1.32 3.044a19.93 19.93 0 0 0-.798 3.231 10.002 10.002 0 0 0-.015 3.4c.094.612.39 1.175.84 1.6a1.65 1.65 0 0 0 1.695.222 1.606 1.606 0 0 1-1.347-.567ZM73.872 37.37a3.766 3.766 0 0 0-.562-.975 8.37 8.37 0 0 0-2.321-1.864 14.998 14.998 0 0 0-2.666-1.17 12.72 12.72 0 0 0-2.831-.624c1.687.955 3.394 1.738 5.001 2.662.8.43 1.554.944 2.248 1.53.153.138.296.285.43.44a2.225 2.225 0 0 1 .608 1.88 1.864 1.864 0 0 0 .248-1.478 2.806 2.806 0 0 0-.155-.402ZM85.304 52.326a11.146 11.146 0 0 0-1.24-2.416 10.407 10.407 0 0 0-1.752-2.041c.344.834.713 1.629 1.072 2.42.349.794.708 1.575.978 2.37a6.23 6.23 0 0 1 .464 2.355 2.132 2.132 0 0 1-1.362 1.814c.476.002.941-.143 1.33-.417.408-.315.692-.764.801-1.267a5.145 5.145 0 0 0-.29-2.818ZM70.427 71.156a6.249 6.249 0 0 1-1.473 1.357 2.437 2.437 0 0 1-1.966.306 2.119 2.119 0 0 0 2.284.403 4.674 4.674 0 0 0 1.925-1.428 8.63 8.63 0 0 0 1.773-4.174c-.492.596-.873 1.222-1.29 1.817-.405.6-.815 1.18-1.253 1.72ZM68.647 56.295a4.937 4.937 0 0 1-1.47-1.429c-.052-.079-.109-.154-.154-.237a5.465 5.465 0 0 1-.572-1.785c-.02-.126-.042-.251-.058-.378a31.75 31.75 0 0 1-.071-4.833 8.504 8.504 0 0 0-.967 3.585 8.52 8.52 0 0 0 .047 1.38c.058.414.155.82.29 1.215.119.34.283.664.486.962.06.1.127.197.198.29a3.488 3.488 0 0 0 2.27 1.23ZM27.523 69.281a5.804 5.804 0 0 1-.618-1.524 11.205 11.205 0 0 1-.287-1.702l-.171-1.839a4.676 4.676 0 0 0-.606 1.825c-.093.655-.06 1.32.096 1.963.168.667.507 1.278.983 1.773a2.898 2.898 0 0 0 1.789.817 6.42 6.42 0 0 1-1.186-1.313ZM51.404 30.09a13.752 13.752 0 0 1 1.648-.913 74.87 74.87 0 0 1 3.585-1.544 16.203 16.203 0 0 0-3.88.825c-.645.216-1.266.495-1.856.833a3.458 3.458 0 0 0-1.557 1.624 1.671 1.671 0 0 0 .122 1.33c.19.33.44.623.733.864.416.369.868.694 1.35.97.116.066.223.147.344.204 1.21.64 2.6.848 3.944.59a7.172 7.172 0 0 1-2.057-.504 8.99 8.99 0 0 1-1.5-.764 8.176 8.176 0 0 1-1.425-1.18c-.487-.454-.71-.826-.564-1.188a2.721 2.721 0 0 1 1.113-1.146Z" fill="#314551"/><path opacity=".3" fill-rule="evenodd" clip-rule="evenodd" d="M55.164 56.371c-.167.211.026.969.03 1.211a10.212 10.212 0 0 1-2.527 7.301c-1.665 1.717-4.71 3.06-6.892 1.556-2.224-1.533-1.502-5.97 1.62-5.5a5.537 5.537 0 0 0 4.258-1.128 18.018 18.018 0 0 0 3.51-3.44ZM33.443 66.075c2.314-1.394 3.11-5.313-.02-5.733a2.737 2.737 0 0 0-.752-.006 1.313 1.313 0 0 0-1.078 1.45c.147 1.48.63 5.024 1.85 4.29Z" fill="#B14234"/></svg>