<svg width="628" height="494" viewBox="0 0 628 494" fill="none" xmlns="http://www.w3.org/2000/svg">
<path d="M115.935 59.9366C55.5433 62.2489 6.47047 103.522 0.624435 164.962C-4.45907 218.711 21.8057 277.44 68.0996 306.195C92.3055 321.238 118.02 335.145 138.421 355.388C170.981 387.734 180.479 434.953 219.275 463.801C277.989 507.42 375.296 503.803 420.158 442.338C436.256 420.317 448.346 392.824 467.147 371.904C490.149 346.317 520.523 342.454 550.313 328.572C583.483 313.115 606.977 283.742 618.491 249.431C640.359 184.281 618.711 108.147 569.528 60.1399C520.345 12.1332 447.007 -7.91473 379.1 2.82494C336.06 9.60076 293.248 26.481 251.055 39.8887C207.362 53.7706 162.543 58.4459 116.935 59.9112L115.935 59.9366Z" fill="#F19378"/>
</svg>
