<svg width="103" height="102" fill="none" xmlns="http://www.w3.org/2000/svg"><path d="M51.555 101.822c28.117 0 50.911-22.794 50.911-50.911S79.672 0 51.555 0C23.437 0 .644 22.794.644 50.91c0 28.118 22.793 50.912 50.91 50.912Z" fill="#fff"/><path opacity=".85" d="M51.555 97.143c25.533 0 46.231-20.699 46.231-46.232 0-25.533-20.698-46.232-46.231-46.232S5.323 25.378 5.323 50.911c0 25.533 20.699 46.232 46.232 46.232Z" fill="#EF7857"/><path d="M71.534 77.248c.325-1.356 1.045-3.11.929-4.603-.127-.86-.341-1.705-.638-2.521-.653 1.327-1.415 2.704-2.209 4.213.65 1.682 1.701 3.81 1.918 2.91Z" fill="#F2D6C9"/><path d="M57.476 94.635a13.33 13.33 0 0 1-.212 2.144c.463-.057.927-.108 1.386-.179l.102-.543a4.396 4.396 0 0 0-1.467-4.157l-.707-.603c.333.481.575 1.018.715 1.586.125.575.186 1.163.183 1.752Z" fill="#915851"/><path d="M73.492 61.928c-.52-1.336-2.198-3.85-.298-8.066a6.455 6.455 0 0 0 .527-2.12.941.941 0 0 1-.33.005c-.719-.125-1.448-.19-2.178-.194a5.731 5.731 0 0 1-1.963-.143 1.87 1.87 0 0 1-.793-.525.988.988 0 0 1-.036-1.444c.64-.628 1.9-.556 2.9-.383.175.03.344.063.498.096a3.517 3.517 0 0 1 1.872.86 28.155 28.155 0 0 0-.377-2.856 28.937 28.937 0 0 0-.825-3.309 12.63 12.63 0 0 0-2.853-4.25c-1.138-1.006-2.396-.723-3.785-.56a3.402 3.402 0 0 1-1.656-.02c-2.724-.703-5.47-2.032-8.427-1.605-3.839.555-2.23 4.923-5.044 6.183-2.929 1.312-2.732 2.694-3.318 3.966-.328.715.245 9.498.147 12.014-.028.72-2.018 1.744-2.221.317-.27-1.89-.486-7.108-.669-7.892a2.093 2.093 0 0 0-2.1-1.676 4.623 4.623 0 0 0-3.436 2.389 12.064 12.064 0 0 0 .488 8.903 10.046 10.046 0 0 1 .918 7.162 8.943 8.943 0 0 1-.137.466c-.042.13-.092.26-.14.39-.052.139-.091.28-.15.417l-.07.163-3.196 9.228-1.307 3.775c-1.394.442-7.915 2.692-7.113 5.841.28.872.651 1.712 1.106 2.507a46.028 46.028 0 0 0 4.417 2.094 20.092 20.092 0 0 1-.859-4.449 9.327 9.327 0 0 1 .447-3.517 4.19 4.19 0 0 1 1.985-2.429c.095-.05.192-.093.29-.132-.109.06-.214.127-.314.203-.35.266-.65.594-.88.97a4.604 4.604 0 0 0-.634 1.523 8.688 8.688 0 0 0-.036 3.298 22.37 22.37 0 0 0 1.566 5.15 46.13 46.13 0 0 0 16.047 2.865 46.716 46.716 0 0 0 4.916-.263c.242-.741.417-1.502.524-2.274a5.982 5.982 0 0 0-.417-3.309l-.166-.141c-.038-.033-.08-.06-.12-.092.142-.37.29-.799.444-1.285.204-.627.417-1.345.634-2.113a2.98 2.98 0 0 1-3.401 1.545c-.204-.053-.394-.114-.591-.171a17.514 17.514 0 0 1-4.237-1.829 14.068 14.068 0 0 1-5.683-6.537 20.24 20.24 0 0 1-1.484-7.66c-.017-.113-.042-.608-.072-1.126l.047.075c-.018-.4-.035-.865-.048-1.376a155.214 155.214 0 0 1-.035-5.66 50.2 50.2 0 0 1 .066-2.17c.024-.4.368-.445.498-.062.24.705.45 1.432.671 2.151.2.654.407 1.3.597 1.961.307 1.073.608 2.151.903 3.224.17.619.447 1.39.627 2.121.08.3.135.604.166.912a8.58 8.58 0 0 1-.449 2.897c3.24 3.503 8.915 7.208 13.499 7.608l.019.002c.055.005.113.016.168.02 5.724.385 7.38-1.724 9.61-6.508.459-.983.92-1.88 1.376-2.746.793-1.509 1.555-2.886 2.207-4.213a16.865 16.865 0 0 0 1.898-6.112 4.663 4.663 0 0 0-.23-2.084Zm-3.737-5.418a2.543 2.543 0 0 1 1.935 2.311c-.035 1.105-1.02-.588-1.894-.725-.875-.136-2.14 1.205-2.105.1a1.866 1.866 0 0 1 2.064-1.686Zm-3.102 7.983a43.895 43.895 0 0 1-.835-3.17 20.596 20.596 0 0 1-.495-3.303 16.435 16.435 0 0 1 1.58 2.955 24.69 24.69 0 0 1 1.086 3.135c.171.567.276 1.152.311 1.743a2.925 2.925 0 0 1-.493 1.933 2.43 2.43 0 0 1-1.723.866c-.563.042-1.129.054-1.693.035.499-.273 1.051-.435 1.53-.651a1.9 1.9 0 0 0 1.02-.82 4.366 4.366 0 0 0-.288-2.723Zm-7.888-6.077c.05 1.3-1.45-.27-2.48-.104-.11.021-.218.057-.319.108l-.338.198c-.692.482-1.319 1.296-1.51.88a.846.846 0 0 1-.06-.318 2.995 2.995 0 0 1 2.265-2.737 2.237 2.237 0 0 1 1.85.672c.356.343.568.808.592 1.301Zm-7.86-7.701c1.77-1.562 4.826-1.978 7.172-2.124 1.146-.072 2.908-.063 3.565.78.608.78-.234 1.661-1.265 1.834a6.62 6.62 0 0 1-2.12-.143 15.288 15.288 0 0 0-2.358-.124c-1.524.029-3.04.218-4.525.564-.588.134-.853-.447-.468-.787ZM68.4 72.505a3.54 3.54 0 0 1-.82.483 10.295 10.295 0 0 1-6.901.935 10.072 10.072 0 0 1-4.564-2.257c-1.92-1.758-1.696-2.513-.219-1.42.228.165.466.315.713.45a19.94 19.94 0 0 0 3.232 1.36c.293.1.585.196.88.281.093.027.191.042.286.067.216.055.43.114.654.151 1.628.184 3.274.144 4.892-.118.385-.043.77-.088 1.156-.12.223-.04.452-.042.675-.006.135.04.109.11.016.195Z" fill="#915851"/><path d="M58.077 48.59c-2.346.147-5.401.563-7.171 2.125-.385.34-.12.92.468.787a21.704 21.704 0 0 1 4.525-.564c.788-.02 1.577.022 2.359.124a6.62 6.62 0 0 0 2.119.143c1.03-.172 1.873-1.055 1.265-1.835-.657-.842-2.419-.851-3.565-.78ZM71.82 49.154a12.29 12.29 0 0 0-.499-.096c-1-.173-2.26-.245-2.9.383a.99.99 0 0 0 .036 1.444c.215.24.488.421.793.525.641.16 1.305.209 1.963.143.73.004 1.46.07 2.179.194.109.018.22.016.33-.005.65-.121.716-1.005-.031-1.727a3.516 3.516 0 0 0-1.872-.861Z" fill="#2B3A45"/><path d="M72.49 43.85c.339 1.085.614 2.19.824 3.308a10.77 10.77 0 0 0 2.27-7.88 24.275 24.275 0 0 0-.646-3.473c-1.229-4.717-4.947-9.586-9.33-11.43a15.624 15.624 0 0 0-5.224-2.154 4.508 4.508 0 0 0 .816-1.816 3.513 3.513 0 0 0-.543-2.472 37.715 37.715 0 0 1-1.665-4.905c-.74-2.412-2.417-4.632-5.422-4.698a15.44 15.44 0 0 0-5.165 1.295c-1.872.73-5.637-.04-7.354.945-2.542 1.458-2.853 3.967-3.446 6.396-.586 2.404-.672 5.982 1.309 8.307a18.038 18.038 0 0 0-6.857 5.374c-5.101 7.549-2.037 20.508 2.032 26.68 3.115 4.722 3.306 6.105 4.82 13.183.111.516.683.428.934.097l.01.03.043-.1.02-.046c.03-.068.07-.163.12-.275l.07-.163c.059-.137.098-.278.15-.417.048-.13.098-.26.14-.39.05-.155.096-.31.137-.466.592-2.419.265-4.971-.918-7.162a12.064 12.064 0 0 1-.488-8.904 4.622 4.622 0 0 1 3.437-2.388 2.093 2.093 0 0 1 2.1 1.676c.183.784.399 6.003.668 7.892.203 1.427 2.193.402 2.22-.317.1-2.515-.474-11.3-.145-12.014.585-1.272.388-2.654 3.317-3.966 2.814-1.26 1.206-5.629 5.044-6.183 2.957-.427 5.703.902 8.427 1.606a3.403 3.403 0 0 0 1.656.018c1.39-.162 2.647-.445 3.785.56a12.631 12.631 0 0 1 2.853 4.251ZM45.154 27.485a15.218 15.218 0 0 0 1.843-.56l.91-.367c.354-.129.697-.281 1.068-.379.05-.016.105-.021.156-.036a8.179 8.179 0 0 1 1.682-.293c.876-.068 1.757-.03 2.624.113.65.119 1.306.19 1.966.216a7.027 7.027 0 0 0 2.017-.304 4.37 4.37 0 0 1-1.837 1.269 7.971 7.971 0 0 1-2.21.378 15.254 15.254 0 0 0-3.833.575c-.309.07-.607.203-.913.297-.337.103-.704.244-1.065.333a9.57 9.57 0 0 1-2.25.305 5.666 5.666 0 0 1-4.136-1.5 9.134 9.134 0 0 0 3.978-.047Zm20.139.403a16.607 16.607 0 0 1 3.276 2.56 14.103 14.103 0 0 1 2.456 3.41 9.063 9.063 0 0 1 1.002 4.066c-.793-1.168-1.513-2.224-2.32-3.228a51.885 51.885 0 0 0-2.567-2.85 128.38 128.38 0 0 0-2.781-2.715c-.959-.9-1.926-1.808-2.903-2.807 1.358.3 2.656.829 3.837 1.564ZM54.699 13.367c.49.119.95.34 1.348.65a5.778 5.778 0 0 1 1.687 2.282 7.713 7.713 0 0 1 .238 5.276 14.037 14.037 0 0 1-1.191-2.309l-.891-2.193a16.095 16.095 0 0 0-.968-1.966 3.53 3.53 0 0 0-1.656-1.549c.437-.242.948-.31 1.433-.191Zm-2.037 1.368c.49.12.95.341 1.348.65a5.777 5.777 0 0 1 1.687 2.284 7.954 7.954 0 0 1 .504 4.136 7.212 7.212 0 0 1-.266 1.14 9.013 9.013 0 0 1-.663-1.156c-.19-.39-.356-.775-.528-1.154l-.89-2.193a16.139 16.139 0 0 0-.969-1.966 3.531 3.531 0 0 0-1.656-1.549c.437-.242.949-.31 1.433-.191ZM42.388 44.578a14.282 14.282 0 0 1-1.576-.946 10.388 10.388 0 0 1-2.568-2.698c-.08-.127-.15-.263-.225-.394a8.811 8.811 0 0 1-1.113-3.136c-.004-.03-.004-.06-.007-.09a5.96 5.96 0 0 1 .538-3.579c.133.703.314 1.397.541 2.075.136.41.282.81.444 1.198.289.68.622 1.342.996 1.979.166.289.327.58.506.863.606.911 1.26 1.789 1.959 2.63l1.1 1.316c.406.441.787.906 1.14 1.391a11.967 11.967 0 0 1-1.735-.61Zm1.793-1.302a5.443 5.443 0 0 1-1.933-1.502 6.134 6.134 0 0 1-1.142-2.12 5.087 5.087 0 0 1-.205-1.86c.015-.185.045-.37.09-.551.098.1.18.195.273.294 1.003 1.063 1.738 2.035 2.522 2.959.414.512.845.99 1.297 1.492.442.532.96.978 1.516 1.634a4.023 4.023 0 0 1-2.418-.346Z" fill="#2B3A45"/><path d="M56.323 56.443a2.995 2.995 0 0 0-2.264 2.737c-.001.109.02.217.059.318.191.416.818-.398 1.51-.88a2.35 2.35 0 0 1 .338-.198c.101-.05.209-.087.32-.108 1.029-.167 2.528 1.405 2.48.104a1.94 1.94 0 0 0-.592-1.301 2.237 2.237 0 0 0-1.85-.672ZM69.755 56.51a1.866 1.866 0 0 0-2.064 1.687c-.035 1.104 1.23-.237 2.105-.1.874.136 1.86 1.829 1.894.724a2.542 2.542 0 0 0-1.935-2.311Z" fill="#331817"/><path d="M44.945 75.961c-.172.603-.355 1.184-.48 1.706-.306 1.27-2.283-3.503-2.429-4.522a14.653 14.653 0 0 1-.087-1.181l-.047-.076c.03.518.055 1.013.072 1.125a20.237 20.237 0 0 0 1.485 7.66 14.068 14.068 0 0 0 5.682 6.538 17.515 17.515 0 0 0 4.237 1.829c.197.057.387.118.59.171a2.977 2.977 0 0 0 3.619-2.117l.104-.404c.257-.988.516-2.04.772-3.119l-.02-.002c-4.583-.4-10.259-4.105-13.498-7.608ZM65.92 68.035c-.478.217-1.03.379-1.53.652.565.019 1.13.007 1.694-.035a2.428 2.428 0 0 0 1.723-.866c.386-.567.56-1.25.493-1.933a7.621 7.621 0 0 0-.31-1.743 24.688 24.688 0 0 0-1.088-3.135 16.428 16.428 0 0 0-1.579-2.955 20.6 20.6 0 0 0 .495 3.302c.241 1.072.517 2.13.835 3.17.385.854.486 1.809.288 2.724a1.899 1.899 0 0 1-1.02.82ZM68.383 72.311a1.98 1.98 0 0 0-.675.006c-.386.032-.771.077-1.156.12a17.947 17.947 0 0 1-4.892.118c-.223-.037-.438-.096-.654-.151-.095-.025-.192-.04-.286-.067a19.025 19.025 0 0 1-.88-.282 19.938 19.938 0 0 1-3.232-1.36 6.406 6.406 0 0 1-.712-.45c-1.477-1.093-1.703-.337.218 1.421a10.073 10.073 0 0 0 4.564 2.257c2.34.5 4.78.169 6.9-.936.295-.122.57-.284.821-.481.093-.086.12-.154-.016-.195Z" fill="#733832"/><path d="M41.883 42.48a30.826 30.826 0 0 1-1.959-2.63c-.179-.282-.34-.574-.505-.863a16.995 16.995 0 0 1-.997-1.979 17.201 17.201 0 0 1-.444-1.198 15.734 15.734 0 0 1-.541-2.075 5.96 5.96 0 0 0-.538 3.58c.003.029.003.06.007.089a8.811 8.811 0 0 0 1.113 3.136c.076.131.144.267.225.394a10.386 10.386 0 0 0 2.568 2.698c.504.349 1.03.665 1.576.946.562.247 1.142.451 1.736.61a15.58 15.58 0 0 0-1.142-1.392l-1.1-1.316Z" fill="#474D5E"/><path d="M43.786 40.495c-.784-.923-1.519-1.895-2.522-2.958-.094-.1-.175-.194-.274-.294a3.64 3.64 0 0 0-.09.552 5.087 5.087 0 0 0 .206 1.859 6.135 6.135 0 0 0 1.142 2.12 5.443 5.443 0 0 0 1.933 1.502c.75.363 1.596.484 2.418.346-.556-.656-1.074-1.102-1.516-1.634-.452-.502-.883-.98-1.297-1.492ZM53.438 25.964a10.932 10.932 0 0 0-2.624-.113 8.179 8.179 0 0 0-1.682.293c-.051.015-.105.02-.156.036-.37.098-.714.25-1.069.38l-.909.366c-.602.225-1.217.412-1.843.56a9.134 9.134 0 0 1-3.978.048 5.668 5.668 0 0 0 4.136 1.499 9.58 9.58 0 0 0 2.25-.305c.36-.089.728-.23 1.065-.333.306-.094.604-.227.913-.297a15.254 15.254 0 0 1 3.834-.575 7.975 7.975 0 0 0 2.21-.378 4.372 4.372 0 0 0 1.836-1.269c-.654.199-1.333.301-2.017.304a13.841 13.841 0 0 1-1.966-.216ZM52.885 16.476c.367.633.69 1.29.968 1.966l.891 2.193c.172.38.337.765.528 1.154.192.401.414.787.663 1.155.12-.372.208-.753.266-1.14a7.954 7.954 0 0 0-.504-4.136 5.776 5.776 0 0 0-1.687-2.283 3.573 3.573 0 0 0-1.348-.65 1.984 1.984 0 0 0-1.433.192 3.53 3.53 0 0 1 1.656 1.55Z" fill="#474D5E"/><path d="M56.047 14.017a3.574 3.574 0 0 0-1.348-.65 1.984 1.984 0 0 0-1.433.191 3.53 3.53 0 0 1 1.656 1.55c.367.632.69 1.289.968 1.965l.89 2.193c.326.805.724 1.578 1.192 2.31.544-1.732.46-3.6-.238-5.276a5.776 5.776 0 0 0-1.687-2.283ZM71.026 33.86a14.103 14.103 0 0 0-2.456-3.41 16.607 16.607 0 0 0-3.276-2.561 12.264 12.264 0 0 0-3.837-1.564c.977 1 1.944 1.907 2.903 2.807.954.902 1.876 1.807 2.78 2.716.892.923 1.746 1.86 2.569 2.849.806 1.005 1.526 2.06 2.319 3.228a9.065 9.065 0 0 0-1.002-4.065Z" fill="#474D5E"/><path d="M44.6 70.031a306.58 306.58 0 0 0-.902-3.224c-.19-.66-.397-1.307-.597-1.96-.22-.72-.431-1.447-.67-2.152-.13-.383-.474-.339-.5.062-.031.523-.052 1.29-.064 2.17a155.214 155.214 0 0 0 .034 5.66c.013.511.03.976.048 1.376.025.534.054.95.087 1.182.146 1.02 2.123 5.792 2.428 4.522.126-.522.31-1.103.481-1.706a8.577 8.577 0 0 0 .448-2.897 5.832 5.832 0 0 0-.165-.912c-.18-.73-.456-1.502-.627-2.12ZM34.611 84.306c.232-.374.53-.703.88-.97.1-.075.206-.142.316-.202a2.98 2.98 0 0 0-.29.132 4.19 4.19 0 0 0-1.986 2.429 9.328 9.328 0 0 0-.447 3.517c.118 1.51.406 3.003.859 4.449.518.213 1.038.422 1.565.617a22.368 22.368 0 0 1-1.566-5.15 8.687 8.687 0 0 1 .036-3.297 4.603 4.603 0 0 1 .633-1.525ZM57.293 92.883a4.822 4.822 0 0 0-.715-1.585c.45 1.04.595 2.188.417 3.308a13.092 13.092 0 0 1-.524 2.274c.266-.028.528-.068.793-.1.128-.709.199-1.426.212-2.145a8.072 8.072 0 0 0-.183-1.752Z" fill="#fff"/><path d="M27.271 84.203c-.84.64-1.684 1.325-2.533 2.056-.564.337-1.14.673-1.725 1.007.104.082.207.164.312.245.382.295.77.585 1.16.868.12-.255.226-.515.357-.765A14.98 14.98 0 0 1 26.3 85.31c.299-.39.623-.759.97-1.106ZM57.691 86.69l-.104.404a2.955 2.955 0 0 1-.218.572c-.216.768-.43 1.486-.633 2.113-.154.487-.301.915-.443 1.285.038.033.081.06.12.092l.165.141.706.603a4.395 4.395 0 0 1 1.468 4.157l-.102.543a45.964 45.964 0 0 0 2.444-.448 49.301 49.301 0 0 1-.147-1.015 16.724 16.724 0 0 0-.43-2.474 9.857 9.857 0 0 0-2.25-4.523 8.428 8.428 0 0 1 3.652 4.008c.392.837.72 1.704.979 2.591.094.32.169.628.246.938a45.836 45.836 0 0 0 5.546-1.828 65.619 65.619 0 0 0-10.999-7.16ZM33.807 80.287a25.628 25.628 0 0 0-4.725 2.609c-.503.452-.955.96-1.346 1.512a15.161 15.161 0 0 0-1.834 3.668c-.122.356-.223.718-.326 1.079.746.507 1.508.993 2.286 1.455.548.329 1.1.651 1.664.957a13.237 13.237 0 0 1-1.106-2.507c-.802-3.15 5.72-5.399 7.113-5.841l1.307-3.775c-1.042.155-2.06.438-3.033.843Z" fill="#EF7857"/><path d="M62.898 94.74a18.168 18.168 0 0 0-.979-2.592 8.428 8.428 0 0 0-3.651-4.008 9.857 9.857 0 0 1 2.25 4.523c.205.813.348 1.64.43 2.474.043.33.094.673.146 1.015.689-.144 1.373-.3 2.05-.475-.077-.31-.152-.619-.246-.938ZM26.301 85.31a14.98 14.98 0 0 0-1.46 2.304c-.13.25-.237.51-.355.765.361.262.721.524 1.09.776.103-.361.204-.723.326-1.079.442-1.3 1.06-2.534 1.834-3.668a9.148 9.148 0 0 1 1.346-1.512c.07-.063.134-.13.206-.19-.743.396-1.423.9-2.017 1.497-.347.347-.671.717-.97 1.106Z" fill="#B84222"/><path opacity=".3" fill-rule="evenodd" clip-rule="evenodd" d="M47.662 57.733c.167.211-.025.969-.03 1.211a10.213 10.213 0 0 0 2.527 7.301c1.665 1.717 4.71 3.06 6.892 1.556 2.224-1.533 1.502-5.97-1.62-5.5a5.537 5.537 0 0 1-4.258-1.128 18.009 18.009 0 0 1-3.51-3.44ZM71.835 68.039c-2.314-1.394-3.11-5.314.02-5.734.25-.036.503-.038.752-.006a1.312 1.312 0 0 1 1.078 1.45c-.147 1.48-.63 5.024-1.85 4.29Z" fill="#963D36"/><path d="M43.05 56.844a12.51 12.51 0 0 1-.58-2.72 9.256 9.256 0 0 0-.21-1.224.762.762 0 0 0-.204-.383c-.11-.097-.354-.071-.603-.024a.824.824 0 0 1 .683-.46 1.052 1.052 0 0 1 .813.499c.28.44.455.94.51 1.459.136.97-.006 1.96-.408 2.853Z" fill="#733832"/></svg>