<svg width="103" height="102" fill="none" xmlns="http://www.w3.org/2000/svg"><path d="M51.377 101.822c28.117 0 50.91-22.794 50.91-50.911S79.494 0 51.377 0C23.259 0 .465 22.794.465 50.91c0 28.118 22.793 50.912 50.91 50.912Z" fill="#fff"/><path opacity=".85" d="M51.377 97.143c25.533 0 46.231-20.699 46.231-46.232 0-25.533-20.698-46.232-46.232-46.232-25.532 0-46.231 20.699-46.231 46.232 0 25.533 20.698 46.232 46.231 46.232Z" fill="#DD6C6C"/><path d="M71.757 73.039c-1.275-4.093-5.619-7.573-5.62-7.573l-.22 3.834a27.711 27.711 0 0 1-9.328 5.99c-5.151 1.757-11.741-1.41-11.741-1.41l-.065-.551-.486-3.648c-.636.066-1.275.09-1.914.073a26.153 26.153 0 0 1-.748 1.119c-.148.206-.298.411-.457.612-.371.474-.778.92-1.216 1.332-1.856 1.736-4.189 2.862-6.214 4.285a16.985 16.985 0 0 0-6.46 8.332 17.498 17.498 0 0 0-.923 4.35A46.194 46.194 0 0 0 72.169 92.2c1.136-6.251 1.846-11.918-.412-19.161ZM61.237 77.6a13.484 13.484 0 0 1-7.896 2.315 23.302 23.302 0 0 1-7.987-1.94 12.218 12.218 0 0 1-1.333-.692 6.962 6.962 0 0 1-2.033-1.73 4.375 4.375 0 0 1-.763-3.93 4.328 4.328 0 0 0 1.097 3.659 6.58 6.58 0 0 0 1.618 1.283c.532.307 1.09.566 1.668.773a27.151 27.151 0 0 0 7.755 1.65 13.935 13.935 0 0 0 7.493-2.007 20.27 20.27 0 0 0 3.241-2.33 38.777 38.777 0 0 0 2.942-2.775 22.641 22.641 0 0 1-5.801 5.724Z" fill="#fff"/><path d="M63.548 40.526c-1.396 1.375-.576 6.06-2.411 9.481-.81-.031-1.62-.106-2.422-.223 1.565-2.16 2.824-13.595 1.652-15.885-.721-1.41-.198-1.67.333-3.614.802-2.938-2.288-2.496-4.033-1.718-2.22.991-4.198 2.611-6.55 3.23-.976.256-2.422.439-2.407-.935.004-.36.237-1.503.587-1.718-10.52 6.472-9.349 2.125-9.349 2.125a16.52 16.52 0 0 1-6.636.152l-.39 2.036c-.083.728-.167 1.488-.25 2.282a11.147 11.147 0 0 1 3.419-.488l.12.016c1.05.05 4.126.45 3.09 2.07-.322.52-1.42.578-1.996.617-1.014.087-2.027.175-3.034.28l-1.144.121a.694.694 0 0 1-.542-.185c.104.669.25 1.33.436 1.981.163.594.213 1.213.15 1.825a47.647 47.647 0 0 1-.947 5.354 12.196 12.196 0 0 0 .724 6.329c3.356 9.888 2.848 12.303 4.843 14.326a9.847 9.847 0 0 0 5.592 1.77c.639.016 1.278-.008 1.914-.074l.486 3.648.065.552s6.59 3.166 11.741 1.409a27.711 27.711 0 0 0 9.329-5.99l.22-3.834.394-6.863-.679-2.521-1.023-3.802a3.357 3.357 0 0 0 2.154-1.563c.784-1.1 1.526-2.967 1.715-6.153.287-4.834-3.755-5.414-5.151-4.038Zm-14.61 2.479c.034-1.148.85-2.055 1.463-2.036.614.018 1.376.972 1.343 2.12-.033 1.147-.85 2.054-1.463 2.036-.613-.018-1.375-.972-1.342-2.12Zm2.157-7.68.122.001a10.48 10.48 0 0 1 4.868 1.309c.27.154.505.361.694.608a1 1 0 0 1-.766 1.568 5.735 5.735 0 0 1-1.33-.2l-1.777-.257a112.42 112.42 0 0 0-3.019-.393c-.576-.064-1.667-.157-1.979-.733-.961-1.599 2.13-1.918 3.187-1.904ZM37.982 49.262a32.66 32.66 0 0 1 1.643-4.806 35.188 35.188 0 0 1 2.287-4.51l-1.588 4.773c-.512 1.587-1.03 3.17-1.42 4.771a4.578 4.578 0 0 0-.17 2.255 2.174 2.174 0 0 0 1.353 1.529c1.565.48 3.217.609 4.837.375a8.74 8.74 0 0 1-5.102.311 2.907 2.907 0 0 1-1.954-1.987c-.2-.898-.16-1.833.114-2.711Zm-1.636-5.226c-.54-.016-1.211-.856-1.182-1.867.029-1.01.748-1.81 1.288-1.793.54.016 1.211.856 1.182 1.867-.03 1.01-.748 1.81-1.288 1.793Zm.868 14.357a18.38 18.38 0 0 0 4.94.396c.097-.004.195-.024.291-.03 1.9-.23 3.78-.612 5.62-1.14-.825 1.603-3.22 2.628-5.317 2.901-.041.005-.084.015-.126.02a6.01 6.01 0 0 1-5.408-2.147Zm13.401 14.779c-2.23.33-4.993.5-5.905-.554l-.369-2.943v-.004l.011.003c.12.036 2.641.75 7.02-1.12a10.005 10.005 0 0 0 3.877-2.373c.326-.32.634-.658.921-1.013.175-.215.346-.435.51-.663l.116-.17a14.618 14.618 0 0 0 .464-.703 39.481 39.481 0 0 0 3.287-7.487 22.703 22.703 0 0 1-.056 5.524 19.212 19.212 0 0 1-.593 2.862c-1.097 3.762-3.628 7.59-9.283 8.64Zm16.852-27.94a4.694 4.694 0 0 1-.86 1.814c.057-.668.123-1.3.14-1.914a4.747 4.747 0 0 0-.202-1.703 1.901 1.901 0 0 0-.39-.667 2.272 2.272 0 0 0-.607-.533 2.464 2.464 0 0 0-1.725-.244 2 2 0 0 1 2.013-.42 2.607 2.607 0 0 1 1.583 1.546c.22.688.237 1.424.048 2.12Z" fill="#F1A98D"/><path d="M28.358 79.528s-4.147.65-8.336 5.348c.433.4.876.786 1.323 1.169a46.38 46.38 0 0 0 4.906 3.665l.114.073c.058-.69.157-1.376.296-2.054l.055-.263c.149-.688.34-1.367.573-2.032a16.984 16.984 0 0 1 6.459-8.332c2.025-1.423 4.358-2.549 6.214-4.285.438-.413.844-.858 1.216-1.332-4.247 2.592-8.754 5.092-12.827 8.08l.007-.037ZM77.228 70.719c-10.452-7.225-11.089-5.256-11.09-5.253 0 0 4.344 3.48 5.62 7.573 2.257 7.243 1.547 12.91.411 19.16a46.204 46.204 0 0 0 5.123-3c-.075-.51-.14-1.024-.2-1.541-.022-.895-.025-1.8.029-2.704a16.724 16.724 0 0 1 1.35-5.308 13.67 13.67 0 0 1 2.089-3.243c.373-.435.782-.838 1.222-1.206a8.618 8.618 0 0 1 4.992-2.122 13.936 13.936 0 0 0-3.988 3.165 16.193 16.193 0 0 0-2.264 3.438c-.122.244-.246.486-.356.736-.163.38-.349.753-.501 1.14-.133.397-.255.797-.399 1.192-.32.78-.43 1.629-.71 2.44-.17.835-.36 1.678-.552 2.53-.064.37-.13.744-.199 1.119a46.432 46.432 0 0 0 13.718-15.008c-5.08-2.823-9.633.115-14.295-3.108Z" fill="#DD6C6C"/><path d="M56.085 36.635a10.48 10.48 0 0 0-4.868-1.309l-.122-.002c-1.057-.014-4.148.306-3.187 1.904.312.576 1.403.67 1.979.733 1.006.116 2.014.25 3.02.393l1.776.258c.434.118.88.185 1.33.199a1 1 0 0 0 .766-1.568 2.338 2.338 0 0 0-.694-.608ZM35.212 35.267l-.121-.016a11.148 11.148 0 0 0-3.42.488l-.05.013a.7.7 0 0 0-.479.771c.062.421.149.898.22 1.269.031.147.11.28.223.378a.696.696 0 0 0 .542.185l1.144-.12c1.007-.106 2.02-.194 3.034-.28.576-.04 1.674-.099 1.996-.618 1.036-1.62-2.04-2.02-3.09-2.07Z" fill="#F3D3B4"/><path d="M68.128 23.766s2.415-9.995-11.346-13.87c-6.916-1.946-.197 1.142-.197 1.142s-12.404-3.239-11.128-.946l1.152.694s-8.5-.97-11.978 4.088c0 0-.007.73 1.301.377 0 0-7.927 5.11-6.887 11.954 1.04 6.843 2.5 8.23 2.5 8.23l.378-1.978.39-2.036c2.199.399 4.456.347 6.635-.152 0 0-1.171 4.347 9.349-2.125-.35.215-.583 1.358-.587 1.718-.015 1.374 1.431 1.19 2.407.934 2.352-.618 4.33-2.238 6.55-3.229 1.745-.778 4.835-1.22 4.033 1.718-.531 1.944-1.054 2.204-.333 3.614 1.172 2.29-.087 13.725-1.652 15.885.803.117 1.611.192 2.422.223 1.835-3.421 1.015-8.106 2.41-9.481 1.397-1.376 5.439-.796 5.152 4.038-.19 3.186-.93 5.053-1.715 6.153a3.359 3.359 0 0 1-2.154 1.563l1.023 3.802.679 2.52.024.09 6.63-21.794-.028.044c.338-1.161.61-2.341.813-3.534 1.581-9.128-5.843-9.642-5.843-9.642ZM52.246 12.08a9.47 9.47 0 0 1 3.932.924 13.119 13.119 0 0 1 3.254 2.326 12.758 12.758 0 0 1 2.4 3.13 30.807 30.807 0 0 0-2.887-2.573 18.625 18.625 0 0 0-3.18-2.026 11.461 11.461 0 0 0-3.554-1.039 11.644 11.644 0 0 0-3.787.309 7.793 7.793 0 0 1 3.822-1.05Zm-7.403 4.944a4.397 4.397 0 0 1 2.028-.742c1.4-.136 2.814-.03 4.179.315a25.144 25.144 0 0 1 7.542 3.154l.03.017-.282-.086-3.616-1.107c-1.294-.381-2.584-.762-3.885-1.05a16.206 16.206 0 0 0-3.904-.503c-.636 0-1.265.135-1.844.397a2.517 2.517 0 0 0-1.273 1.42 2.52 2.52 0 0 1 1.025-1.815Zm-8.61 11.203a5.12 5.12 0 0 1-3.223.107 1.52 1.52 0 0 1-.405-.25 1.857 1.857 0 0 1-.337-.375 5.038 5.038 0 0 1-.358-.783 3.253 3.253 0 0 1-.026-1.661 5.96 5.96 0 0 1 1.549-2.674 11.7 11.7 0 0 1 2.316-1.899c-.724.665-1.38 1.4-1.958 2.194a5.934 5.934 0 0 0-1.18 2.519c-.07.424-.039.858.091 1.267l.08.17c.06.131.127.258.2.38a.834.834 0 0 0 .393.291c.865.189 1.766.12 2.592-.199a36.482 36.482 0 0 0 5.378-2.25 263.2 263.2 0 0 0 5.267-2.712 40.819 40.819 0 0 1-4.915 3.366 26.28 26.28 0 0 1-5.465 2.51Zm18.833-5.636c-1.284.158-2.554.41-3.8.753-1.233.342-2.422.824-3.545 1.435a12.809 12.809 0 0 0-2.979 2.476 8.345 8.345 0 0 1 2.574-3.099 12.415 12.415 0 0 1 3.692-1.728 16.417 16.417 0 0 1 4.001-.574c1.34-.045 2.68.085 3.987.387-1.331.056-2.639.194-3.93.35Zm7.854 3.66a4.049 4.049 0 0 1 1.523-1.364 4.244 4.244 0 0 1 1.679-.51c.098-.007.193-.02.296-.018-.05.08-.107.144-.16.216a4.223 4.223 0 0 1-1.363 1.148 4.05 4.05 0 0 1-1.975.528Zm4.88 7.518a5.565 5.565 0 0 1-.433 1.833 7.963 7.963 0 0 1-.168-.914c-.048-.298-.108-.59-.14-.88a13.696 13.696 0 0 0-.393-1.66 5.359 5.359 0 0 0-1.83-2.798c.66.047 1.28.34 1.735.82.467.474.81 1.055 1.002 1.692.186.617.263 1.263.227 1.907Zm4.063-.937c-.08.45-.16.898-.28 1.332-.15.429-.297.854-.484 1.263-.019-.457.003-.898.022-1.334v-1.298a10.359 10.359 0 0 0-.356-2.467 5.314 5.314 0 0 0-3.18-3.578 3.864 3.864 0 0 1 2.573.925 4.758 4.758 0 0 1 1.52 2.388c.245.902.307 1.843.185 2.769Z" fill="#F3D3B4"/><path d="M41.345 25.064a36.482 36.482 0 0 1-5.378 2.25 4.523 4.523 0 0 1-2.592.199.834.834 0 0 1-.392-.291 3.655 3.655 0 0 1-.2-.38l-.08-.17a2.734 2.734 0 0 1-.093-1.267 5.935 5.935 0 0 1 1.18-2.52 14.817 14.817 0 0 1 1.959-2.193c-.85.532-1.629 1.17-2.316 1.9a5.958 5.958 0 0 0-1.55 2.673 3.253 3.253 0 0 0 .027 1.661c.097.27.216.533.358.783.095.14.208.265.337.374.121.105.258.19.405.25a5.118 5.118 0 0 0 3.222-.106 26.28 26.28 0 0 0 5.465-2.51 40.82 40.82 0 0 0 4.915-3.365 267.8 267.8 0 0 1-5.267 2.712ZM56.178 13.004a9.47 9.47 0 0 0-3.931-.924 7.792 7.792 0 0 0-3.823 1.05 11.644 11.644 0 0 1 3.787-.308c1.233.152 2.433.502 3.554 1.039a18.624 18.624 0 0 1 3.18 2.026 30.778 30.778 0 0 1 2.887 2.573 12.761 12.761 0 0 0-2.4-3.13 13.119 13.119 0 0 0-3.254-2.326ZM66.257 24.576c.054-.073.111-.137.161-.217-.103-.002-.198.011-.296.018a4.244 4.244 0 0 0-1.679.51 4.049 4.049 0 0 0-1.523 1.364 4.05 4.05 0 0 0 1.975-.528c.53-.281.995-.672 1.362-1.147ZM45.09 17.419a4.465 4.465 0 0 1 1.845-.397c1.317.009 2.628.177 3.904.503 1.301.288 2.59.669 3.885 1.05l3.617 1.107.282.087-.031-.018a25.143 25.143 0 0 0-7.542-3.154 12.24 12.24 0 0 0-4.179-.315 4.398 4.398 0 0 0-2.028.742 2.518 2.518 0 0 0-1.025 1.814 2.517 2.517 0 0 1 1.273-1.42ZM71.679 30.063a4.758 4.758 0 0 0-1.52-2.388 3.864 3.864 0 0 0-2.574-.925 5.313 5.313 0 0 1 3.18 3.578c.218.805.337 1.634.356 2.467v1.298c-.019.436-.04.877-.022 1.334.187-.409.334-.834.484-1.263.12-.434.2-.883.28-1.332a7.068 7.068 0 0 0-.184-2.77ZM66.571 30.17a2.645 2.645 0 0 0-1.735-.82 5.359 5.359 0 0 1 1.83 2.797c.165.545.296 1.1.393 1.66.032.29.092.583.14.88.039.308.095.613.168.915a5.449 5.449 0 0 0 .206-3.74 4.076 4.076 0 0 0-1.002-1.691ZM51.008 22.428a12.415 12.415 0 0 0-3.692 1.728 8.346 8.346 0 0 0-2.574 3.1 12.811 12.811 0 0 1 2.979-2.477 16.904 16.904 0 0 1 3.544-1.435 26.494 26.494 0 0 1 3.8-.753c1.292-.156 2.6-.294 3.93-.35a15.391 15.391 0 0 0-3.986-.387 16.417 16.417 0 0 0-4 .574Z" fill="#E0B290"/><path d="M80.516 79.458c0 .074.005.147.005.22a16.194 16.194 0 0 1 2.265-3.438 13.935 13.935 0 0 1 3.988-3.165c-1.85.151-3.6.896-4.992 2.123-.44.367-.849.77-1.222 1.206a5.898 5.898 0 0 1-.044 3.054Z" fill="#B53E35"/><path d="M77.12 84.954c-.053.904-.05 1.81-.028 2.704.06.517.125 1.03.2 1.541.174-.117.34-.244.513-.364.07-.375.135-.748.2-1.119.19-.852.38-1.695.55-2.53.28-.811.391-1.66.711-2.44.144-.395.266-.795.399-1.192.152-.387.337-.76.5-1.14.111-.25.235-.492.356-.736 0-.073-.005-.146-.005-.22.283-.996.298-2.05.044-3.055a13.668 13.668 0 0 0-2.09 3.243 16.724 16.724 0 0 0-1.35 5.308Z" fill="#B53E35"/><path d="M64.097 74.651a20.27 20.27 0 0 1-3.241 2.331 13.934 13.934 0 0 1-7.493 2.007 27.15 27.15 0 0 1-7.755-1.65 10.355 10.355 0 0 1-1.668-.773 6.583 6.583 0 0 1-1.617-1.283 4.327 4.327 0 0 1-1.098-3.66 4.374 4.374 0 0 0 .763 3.931 6.96 6.96 0 0 0 2.033 1.73c.43.257.875.488 1.333.691a23.302 23.302 0 0 0 7.987 1.941c2.81.07 5.57-.74 7.897-2.315a22.643 22.643 0 0 0 5.8-5.724 38.76 38.76 0 0 1-2.94 2.774Z" fill="#DCCCC3"/><path d="M50.401 40.969c-.613-.019-1.429.888-1.462 2.036-.033 1.148.73 2.102 1.342 2.12.614.018 1.43-.889 1.463-2.036.033-1.148-.73-2.102-1.343-2.12ZM36.452 40.377c-.54-.017-1.26.782-1.288 1.793-.03 1.01.642 1.85 1.182 1.867.54.016 1.259-.783 1.288-1.793.03-1.011-.642-1.851-1.182-1.867Z" fill="#664B10"/><path d="M39.822 53.961a8.74 8.74 0 0 0 5.102-.311c-1.62.234-3.272.105-4.837-.375a2.174 2.174 0 0 1-1.353-1.53 4.58 4.58 0 0 1 .17-2.254c.39-1.601.908-3.184 1.42-4.77l1.588-4.773a35.187 35.187 0 0 0-2.287 4.51 32.66 32.66 0 0 0-1.643 4.805 5.263 5.263 0 0 0-.114 2.71 2.907 2.907 0 0 0 1.953 1.988ZM48.065 57.62c-1.84.528-3.72.91-5.62 1.14-.096.006-.194.026-.29.03a18.377 18.377 0 0 1-4.941-.396 6.01 6.01 0 0 0 5.408 2.147c.042-.005.085-.015.126-.02 2.098-.273 4.492-1.298 5.317-2.902ZM57.26 63.633a15.506 15.506 0 0 1-.464.703c-.04.056-.077.114-.117.17-.163.228-.334.448-.509.663-.287.355-.595.693-.921 1.013a10.005 10.005 0 0 1-3.877 2.373c-4.379 1.87-6.9 1.156-7.02 1.12l-.011-.003v.004l.369 2.943c.912 1.055 3.675.884 5.905.554 5.655-1.05 8.186-4.88 9.283-8.64.27-.939.468-1.895.593-2.863.243-1.832.262-3.687.056-5.524a39.48 39.48 0 0 1-3.287 7.487ZM67.42 43.112a2.606 2.606 0 0 0-1.584-1.546 2 2 0 0 0-2.013.42 2.464 2.464 0 0 1 1.725.244c.232.14.438.32.606.533.175.193.308.42.39.667.171.55.24 1.128.203 1.703-.017.614-.083 1.246-.14 1.914a4.695 4.695 0 0 0 .86-1.814 3.748 3.748 0 0 0-.048-2.12Z" fill="#E38766"/><path opacity=".35" d="M35.789 46.286a2.257 2.257 0 0 0-2.635 1.38c-.656 1.83-.104 4.055 1.544 3.791 1.648-.263 4.343-3.275 5.705-2.838a48.335 48.335 0 0 1 4.99 2.318c1.703.826 5.428 3.23 7.006.223 1.578-3.007-1.928-4.316-3.463-3.731-1.535.585-5.921-5.23-13.147-1.143Z" fill="#F79B86"/></svg>