<svg width="103" height="102" fill="none" xmlns="http://www.w3.org/2000/svg"><path d="M51.198 0a50.91 50.91 0 1 0 0 101.822A50.91 50.91 0 0 0 51.198 0Zm18.427 93.314c-.242.106-.485.212-.73.313-.95.394-1.92.751-2.901 1.083l-.076.025-.073.025-.031.01a48.686 48.686 0 0 1-2.46.746 46.314 46.314 0 0 1-12.156 1.627 46.74 46.74 0 0 1-3.804-.169 45.992 45.992 0 0 1-2.117-.222 46.173 46.173 0 0 1-2.827-.447 46.001 46.001 0 0 1-3.33-.767 46.229 46.229 0 1 1 30.505-2.224Z" fill="#fff"/><path d="m39.777 71.524-.014-.01.007.026.007-.016Z" fill="#fff"/><path d="M51.198 4.68a46.23 46.23 0 0 0-27.875 83.11c.092-.035.186-.067.28-.1l-.027-.007.042.002.121-.04a4.085 4.085 0 0 1-.338-1.924c.128-2.107 2.56-3.477 5.53-5.35 2.723-1.719 3.953-4.694 5.528-7.847a3.768 3.768 0 0 1 4.237-2.012 5.9 5.9 0 0 1-.771-1.224c-8.45-7.508-13.02-5.832-11.67-23.872.033-.446.087-.877.14-1.308a8.575 8.575 0 0 1-.885-.304c-2.646-1.12-5.316-4.602-1.331-18.68 3.966-14.01 16.245-9.722 21.955-7.549 3.241 1.233 4.094 3.471 4.212 5.226a31.57 31.57 0 0 1 9.343.202 18.866 18.866 0 0 1 14.58 12.045 18.696 18.696 0 0 1 6.822 8.393c9.883 13.124-6.036 21.61-6.036 21.61l-.06-.03c-.277.737-.487 1.278-.626 1.555a5.413 5.413 0 0 0-.379.944c.128.16.242.33.377.484a2.208 2.208 0 0 1 .572 2.087 3.326 3.326 0 0 1-1.23 1.623c-.388.297-.828.52-1.298.657a.796.796 0 0 0-.221.47 12.899 12.899 0 0 1-3.494 6.131c-2.305 2.061-5.031 4.705-6.559 4.384a11.737 11.737 0 0 1-1.61-.504l.326.372c-.354.07-.703.16-1.044.275 2.799 1.916 5.649 4.027 6.572 5.254a53.072 53.072 0 0 1 3.244 4.561A46.233 46.233 0 0 0 51.198 4.68Z" fill="#fff"/><path opacity=".85" d="M51.198 4.68a46.23 46.23 0 0 0-27.875 83.11c.092-.035.186-.067.28-.1l-.027-.007.042.002.121-.04a4.085 4.085 0 0 1-.338-1.924c.128-2.107 2.56-3.477 5.53-5.35 2.723-1.719 3.953-4.694 5.528-7.847a3.768 3.768 0 0 1 4.237-2.012 5.9 5.9 0 0 1-.771-1.224c-8.45-7.508-13.02-5.832-11.67-23.872.033-.446.087-.877.14-1.308a8.575 8.575 0 0 1-.885-.304c-2.646-1.12-5.316-4.602-1.331-18.68 3.966-14.01 16.245-9.722 21.955-7.549 3.241 1.233 4.094 3.471 4.212 5.226a31.57 31.57 0 0 1 9.343.202 18.866 18.866 0 0 1 14.58 12.045 18.696 18.696 0 0 1 6.822 8.393c9.883 13.124-6.036 21.61-6.036 21.61l-.06-.03c-.277.737-.487 1.278-.626 1.555a5.413 5.413 0 0 0-.379.944c.128.16.242.33.377.484a2.208 2.208 0 0 1 .572 2.087 3.326 3.326 0 0 1-1.23 1.623c-.388.297-.828.52-1.298.657a.796.796 0 0 0-.221.47 12.899 12.899 0 0 1-3.494 6.131c-2.305 2.061-5.031 4.705-6.559 4.384a11.737 11.737 0 0 1-1.61-.504l.326.372c-.354.07-.703.16-1.044.275 2.799 1.916 5.649 4.027 6.572 5.254a53.072 53.072 0 0 1 3.244 4.561A46.233 46.233 0 0 0 51.198 4.68Z" fill="#FDCD6C"/><path d="M75.14 59.31c-.85-.196-1.373-.532-1.06-.861.029-.032.064-.077.098-.119-1.283.78-2.7 1.318-4.177 1.584a9.66 9.66 0 0 1-1.136.148c.445-.3.87-.63 1.27-.988.226-.267-1.198.457-3.169.316-.807-.057 3.03-3.032 4.436-5.982 1.406-2.95 3.277-6.87 3.277-6.87a15.037 15.037 0 0 1-8.59 7.104c.02.01.048.02.067.03.823.402 1.536 2.167 1.677 2.725.142.556-2.242-.375-4.652-.731-2.409-.357-6.425.998-6.559.77-.089-.151.975-.956 2.322-1.76-3.654.133-4.438-.066-4.554-.212a8.327 8.327 0 0 0-1.406 2.225c-.423.994-1.093 2.522-2.118 4.869-.35.816-.608 1.669-.767 2.543-1.085 5.75 1.616 12.028 1.616 12.028.683 1.586 3.391 3.786 5.01 5.002.732.549 1.242.898 1.242.898.89.142 1.754.42 2.56.823.524.207 1.062.375 1.61.504 1.528.32 4.254-2.323 6.56-4.384a12.899 12.899 0 0 0 3.493-6.131.795.795 0 0 1 .221-.47 4.635 4.635 0 0 1-2.304.066 5.088 5.088 0 0 0 3.12-1.288c.377-.347.66-.783.823-1.269a1.344 1.344 0 0 0-.413-1.213 10.268 10.268 0 0 1-1.97-3.154 9.385 9.385 0 0 1-.72-3.59 19.673 19.673 0 0 0 3.043 5.597c.096-.326.223-.642.379-.944.14-.277.35-.818.626-1.556.487-1.3 1.188-3.232 2.112-5.529-.32-.027-.754.013-1.425-.08a6.135 6.135 0 0 1-.541-.101Zm-11.65 2.095c.283-.97 1.178-1.56 1.695-1.41a1.531 1.531 0 0 1 .753 1.503c0 .202-.028.403-.083.598-.284.969-1.178 1.56-1.695 1.409-.47-.137-.866-.96-.723-1.835.012-.09.03-.178.053-.265Zm5.671 15.215a11.535 11.535 0 0 1-2.601-.53 10.372 10.372 0 0 1-4.637-3.388 37.045 37.045 0 0 0 4.102 1.605c1.148.332 1.893.331 3.205.599 1.348.275-.053 1.72-.069 1.714Zm5.67-11.61c-.202.692-.84 1.114-1.21 1.006-.368-.107-.68-.807-.477-1.499a1.49 1.49 0 0 1 .776-.928.657.657 0 0 1 .433-.078c.355.104.643.753.488 1.417-.006.028-.001.055-.01.083Z" fill="#F5C9BB"/><path d="M62.79 48.705s-2.573 1.702-6.574 4.202l-.066.04a7.994 7.994 0 0 0-1.633 1.389 9.586 9.586 0 0 0 5.673-1.975c2.893-2.158 2.6-3.656 2.6-3.656ZM54.432 54.333s-.098.06-.042.131c.04-.045.086-.084.126-.128l-.084-.003ZM78.376 47.828a10.69 10.69 0 0 1-1.63 8.17 8.807 8.807 0 0 1-1.037 1.155 2.735 2.735 0 0 1 1.322.014c.345.086.656.154.947.216.15-.355.305-.714.465-1.08 1.172-2.677.675-5.95-.067-8.475ZM41.83 61.052a26.95 26.95 0 0 1-.132-11.442c-1.01-.837-2.325-1.247-3.673.621-3.755 5.208.269 8.853 2.856 11.14a5.85 5.85 0 0 1 .95-.319Zm-2.735-4.794a4.76 4.76 0 0 0 1.083 1.916 3.133 3.133 0 0 1-1.803-1.616 5.18 5.18 0 0 1-.56-2.419 4.665 4.665 0 0 1 .648-2.429 2.097 2.097 0 0 1 1.036-.842 1.612 1.612 0 0 1 1.24.084 1.73 1.73 0 0 0-1.594 1.133 5.92 5.92 0 0 0-.33 2.061 7.12 7.12 0 0 0 .28 2.112ZM54.417 87.008a9.933 9.933 0 0 1-2.132-3.779 20.88 20.88 0 0 1-.823-3.327 12.521 12.521 0 0 1-.18-3.856c-1.47-.387-3.187-2.127-4.748-4.388a5.877 5.877 0 0 1-6.757-.134l-.007.016c.137.52.317 1.027.54 1.516.325.726.707 1.425 1.142 2.091a34.941 34.941 0 0 0 2.833 3.823c.727.85 1.481 1.677 2.247 2.49a71.432 71.432 0 0 0 3.064 3.066c.453.425.907.85 1.37 1.262a78.275 78.275 0 0 0 2.966 2.529c.416-.893.765-1.63 1.026-2.048a30.05 30.05 0 0 1 2.847-4.118.705.705 0 0 1 .162-.122 1.71 1.71 0 0 0-.176.113c-1.37.935-3.374 4.866-3.374 4.866Z" fill="#F5C9BB"/><path d="m39.777 71.524-.014-.01.007.026.007-.016ZM31.076 90.47a43.782 43.782 0 0 0-7.473-2.78c-.094.034-.188.066-.28.1a46.051 46.051 0 0 0 15.796 7.748c-.44-.345-.893-.695-1.324-1.036a37.618 37.618 0 0 0-6.72-4.033ZM66.381 88.753c-.923-1.227-3.773-3.338-6.572-5.254.342-.114.69-.206 1.044-.275l-.326-.372a8.826 8.826 0 0 0-2.56-.823.705.705 0 0 0-.162.122 30.057 30.057 0 0 0-2.847 4.118c-.26.418-.61 1.155-1.026 2.048a96.15 96.15 0 0 0 4.515 3.461c1.312.917 2.643 1.832 4.027 2.615.566.351 1.168.64 1.795.864.519-.153 1.034-.315 1.545-.486.014-.056.024-.113.031-.17.01-.106.01-.213.001-.32.068.136.118.28.148.429a45.866 45.866 0 0 0 2.902-1.083c.244-.101.487-.207.73-.313-1.001-1.576-2.084-3.099-3.245-4.561Z" fill="#FDCD6C"/><path d="M57.23 93.778a38.8 38.8 0 0 1-4.564-2.803 41.127 41.127 0 0 1-3.702-2.955 40.132 40.132 0 0 1-2.164-2.106 36.148 36.148 0 0 1-3.035-3.578 32.931 32.931 0 0 1-1.366-1.994 22.804 22.804 0 0 1-2.272-4.569 13.118 13.118 0 0 1-.614-2.495 10.115 10.115 0 0 1-.074-1.028c-.01-.313.009-.627.056-.938a5.931 5.931 0 0 1-.8-.8 3.769 3.769 0 0 0-4.236 2.012c-1.575 3.153-2.805 6.128-5.529 7.847-2.969 1.873-5.401 3.243-5.529 5.35a4.086 4.086 0 0 0 .338 1.924l-.12.04c.103.002.206.017.309.02a30.13 30.13 0 0 1 7.684 1.392c1.313.424 2.6.918 3.859 1.482a31.556 31.556 0 0 1 3.654 1.997 357.266 357.266 0 0 1 6.152 4.176c.701.09 1.407.164 2.117.222a46.74 46.74 0 0 0 3.804.169c3.697-.001 7.38-.445 10.97-1.321l-.27-.073a27.783 27.783 0 0 1-4.668-1.971Z" fill="#FDCD6C"/><path d="M69.23 74.906c-1.312-.268-2.057-.267-3.205-.599a37.005 37.005 0 0 1-4.102-1.605 10.37 10.37 0 0 0 4.637 3.389c.844.276 1.717.453 2.601.53.016.005 1.417-1.44.07-1.715Z" fill="#AF666F"/><path d="m66.156 53.671-.066-.029a18.436 18.436 0 0 1-4.933.931c-.84.047-1.566.08-2.213.103-1.347.804-2.41 1.609-2.322 1.76.134.228 4.15-1.127 6.56-.77 2.409.356 4.793 1.287 4.651.73-.141-.556-.854-2.322-1.677-2.725ZM77.978 57.383c-.291-.063-.602-.13-.948-.216a2.735 2.735 0 0 0-1.321-.014 9.67 9.67 0 0 1-1.53 1.177c-.035.042-.07.087-.1.119-.312.33.21.665 1.062.86.17.04.348.075.541.102.671.093 1.104.053 1.425.08a.782.782 0 0 1 .563.242c.37.4-.484.945.192.77a3.146 3.146 0 0 0 1.681-1.626c.07-.22.141-.435.201-.684-.049-.451-.713-.585-1.766-.81Z" fill="#281B23"/><path d="M65.185 59.995c-.517-.15-1.412.44-1.695 1.41a2.15 2.15 0 0 0-.053.264c-.143.877.253 1.699.723 1.836.517.15 1.412-.44 1.695-1.41a2.21 2.21 0 0 0 .083-.597 1.531 1.531 0 0 0-.753-1.503ZM74.353 63.511a.657.657 0 0 0-.433.078 1.491 1.491 0 0 0-.776.928c-.203.692.109 1.392.477 1.5.37.107 1.008-.315 1.21-1.006.008-.028.004-.055.01-.083.155-.664-.134-1.313-.488-1.416Z" fill="#331817"/><path d="M43.265 65.595s-.262-.569-.602-1.564a28.936 28.936 0 0 1-.832-2.978 5.904 5.904 0 0 0-3.135 9.46c.24.29.508.559.799.8.034.028.072.052.106.08.053.041.108.08.162.12l.014.01a5.877 5.877 0 0 0 6.757.135 32.798 32.798 0 0 1-3.269-6.063Z" fill="#75B3D9"/><path d="M81.091 43.44a18.696 18.696 0 0 0-6.822-8.392 18.866 18.866 0 0 0-14.58-12.045 31.57 31.57 0 0 0-9.343-.202c-.118-1.755-.97-3.992-4.212-5.226-5.71-2.173-17.99-6.46-21.955 7.55-3.985 14.077-1.315 17.558 1.331 18.68.29.117.585.218.885.303-.053.431-.107.863-.14 1.308-1.35 18.04 3.22 16.364 11.67 23.872a5.877 5.877 0 0 1 2.956-7.916c-2.587-2.288-6.612-5.933-2.856-11.14 1.348-1.869 2.664-1.459 3.673-.622a26.95 26.95 0 0 0 .133 11.442 29.024 29.024 0 0 0 .832 2.979c.34.995.602 1.564.602 1.564a32.795 32.795 0 0 0 3.269 6.063c1.56 2.261 3.278 4.001 4.748 4.388.086-.353.235-.378.433.082 0 0-2.701-6.276-1.616-12.027a11.79 11.79 0 0 1 .767-2.543c1.025-2.347 1.695-3.875 2.118-4.869a8.328 8.328 0 0 1 1.406-2.225c-.056-.072.042-.13.042-.13l.084.002a7.998 7.998 0 0 1 1.634-1.388l.066-.041c4-2.5 6.574-4.202 6.574-4.202s.293 1.498-2.6 3.656a9.586 9.586 0 0 1-5.673 1.975c-.041.044-.087.083-.127.128.116.147.9.345 4.554.212a116.2 116.2 0 0 0 2.213-.102 18.44 18.44 0 0 0 4.933-.932 15.037 15.037 0 0 0 8.589-7.105s-1.871 3.92-3.277 6.871c-1.406 2.95-5.243 5.925-4.436 5.982 1.971.14 3.395-.583 3.169-.316-.4.358-.825.689-1.27.988.381-.027.76-.076 1.136-.148a12.194 12.194 0 0 0 4.177-1.584 9.664 9.664 0 0 0 1.937-1.582c.224-.238.435-.488.632-.75a10.69 10.69 0 0 0 1.63-8.17c.74 2.524 1.238 5.798.066 8.475-.16.366-.314.725-.465 1.08 1.053.224 1.717.359 1.766.81-.06.25-.131.465-.201.684a3.146 3.146 0 0 1-1.68 1.625c-.677.176.177-.368-.193-.77a.782.782 0 0 0-.563-.241c-.924 2.297-1.625 4.23-2.112 5.53l.06.03s15.919-8.486 6.036-21.61ZM58.536 25.158c1.463.113 2.907.406 4.299.872 1.404.483 2.73 1.17 3.934 2.039a9.76 9.76 0 0 1 2.899 3.325c-1.286-.742-2.463-1.411-3.7-1.986a50.5 50.5 0 0 0-3.782-1.487c-1.29-.43-2.593-.843-3.926-1.233-1.336-.387-2.683-.773-4.082-1.229a13.311 13.311 0 0 1 4.358-.301Zm-18.29-4.299-2.48-.388a15.65 15.65 0 0 0-2.328-.169 3.69 3.69 0 0 0-2.29.712 2.104 2.104 0 0 1 .614-1.382c.373-.374.82-.665 1.314-.854a6.15 6.15 0 0 1 2.966-.287 8.379 8.379 0 0 1 4.93 2.576c-.913.01-1.825-.06-2.727-.208Zm-6.628-3.817c.373-.373.82-.664 1.313-.854a6.149 6.149 0 0 1 2.967-.287 8.38 8.38 0 0 1 4.93 2.576c-.913.01-1.826-.06-2.727-.207l-2.48-.389c-.77-.114-1.548-.17-2.327-.168a3.69 3.69 0 0 0-2.291.711 2.104 2.104 0 0 1 .615-1.382Zm-5.926 21.617a14.92 14.92 0 0 1 1.654-4.857 17.123 17.123 0 0 1 3.087-4.168 16.93 16.93 0 0 1 4.183-3.073 12.352 12.352 0 0 1 4.917-1.504l-.002.001a45.622 45.622 0 0 0-4.08 2.814 36.603 36.603 0 0 0-3.607 3.179 38.622 38.622 0 0 0-3.19 3.602c-1.023 1.258-1.91 2.62-2.95 3.99l-.012.016Zm5.017 23.486a15.483 15.483 0 0 1-1.493-1.234 11.127 11.127 0 0 1-2.268-3.2 9.57 9.57 0 0 1-.882-3.875 6.442 6.442 0 0 1 1.058-3.755c.033 1.207.2 2.407.499 3.577a18.83 18.83 0 0 0 1.141 3.217 30.56 30.56 0 0 0 1.675 3.048l.969 1.532c.365.516.7 1.052 1.007 1.606-.59-.263-1.16-.57-1.706-.916Zm4.53-.353a4.322 4.322 0 0 1-2.449-.755 5.83 5.83 0 0 1-1.78-1.857 6.6 6.6 0 0 1-.886-2.374 4.99 4.99 0 0 1 .196-2.525c.99 1.417 1.642 2.658 2.392 3.85.359.602.745 1.168 1.153 1.758.392.619.878 1.155 1.373 1.903Zm3.964-22.799c-.276-.165-.533-.36-.795-.546-.59-.407-1.14-.867-1.645-1.376-.74-.755-1.36-1.619-1.838-2.563a6.13 6.13 0 0 1-.667-3.114 72.161 72.161 0 0 0 1.97 2.234l1.968 2.05c.422.44.847.88 1.272 1.327a28.36 28.36 0 0 1 2.65 3.134 8.846 8.846 0 0 1-2.915-1.146Zm6.036 6.263a19.317 19.317 0 0 0-2.298 3.74 25.417 25.417 0 0 0-1.051 2.708c-.153.473-.281.954-.383 1.441-.215.72-.279 1.472-.44 2.228-.136.76-.172 1.533-.348 2.339-.276-.76-.488-1.54-.634-2.335a12.292 12.292 0 0 1-.125-2.44 10.77 10.77 0 0 1 .406-2.677c.198-.727.456-1.437.769-2.123a12 12 0 0 1 2.975-3.95 9.946 9.946 0 0 1 4.255-2.316 28.507 28.507 0 0 0-3.126 3.385Zm23.92-2.583c-.034.486-.102.969-.203 1.446-.19.99-.55 1.94-1.065 2.807a9.552 9.552 0 0 1-1.284 1.767c-.504.514-1.056.978-1.648 1.388.24-.698.58-1.29.825-1.924.226-.642.523-1.23.681-1.866.228-.66.396-1.34.502-2.03.091-.566.154-1.132.195-1.696.074-1.272-.01-2.55-.25-3.801a29.584 29.584 0 0 0-1.073-3.924 8.557 8.557 0 0 1 2.56 3.468 9.715 9.715 0 0 1 .76 4.365Z" fill="#352D35"/><path d="M32.439 59.922a30.571 30.571 0 0 1-1.675-3.048 18.83 18.83 0 0 1-1.141-3.217 16.248 16.248 0 0 1-.499-3.577 6.442 6.442 0 0 0-1.058 3.755 9.57 9.57 0 0 0 .882 3.874 11.127 11.127 0 0 0 2.268 3.201c.471.442.97.854 1.493 1.234.545.346 1.115.653 1.706.916a17.203 17.203 0 0 0-1.007-1.606l-.97-1.532ZM34.712 58.13c-.75-1.192-1.402-2.433-2.392-3.85a4.991 4.991 0 0 0-.196 2.525 6.6 6.6 0 0 0 .886 2.374 5.83 5.83 0 0 0 1.78 1.857 4.322 4.322 0 0 0 2.448.755c-.495-.748-.981-1.284-1.373-1.903a31.393 31.393 0 0 1-1.153-1.758ZM35.076 18.777c-.493.19-.94.48-1.314.854-.37.368-.588.86-.615 1.382a3.691 3.691 0 0 1 2.291-.712c.78-.001 1.557.055 2.327.169l2.48.388c.902.148 1.814.218 2.728.207a8.379 8.379 0 0 0-4.93-2.575 6.15 6.15 0 0 0-2.967.287Z" fill="#493A43"/><path d="m37.621 17.88 2.48.389c.901.148 1.814.217 2.727.207a8.38 8.38 0 0 0-4.93-2.576 6.149 6.149 0 0 0-2.967.287c-.492.19-.94.48-1.313.854-.37.368-.589.861-.615 1.382a3.69 3.69 0 0 1 2.291-.711c.779-.002 1.557.054 2.327.168ZM66.769 28.068a15.145 15.145 0 0 0-3.934-2.04 17.918 17.918 0 0 0-4.3-.871 13.311 13.311 0 0 0-4.357.301c1.399.456 2.746.842 4.082 1.229 1.333.39 2.637.803 3.926 1.233a50.5 50.5 0 0 1 3.782 1.487c1.237.575 2.414 1.244 3.7 1.986a9.76 9.76 0 0 0-2.9-3.325ZM33.844 31.05a36.589 36.589 0 0 1 3.608-3.179 45.564 45.564 0 0 1 4.079-2.814l.002-.001c-1.726.15-3.401.663-4.917 1.504a16.933 16.933 0 0 0-4.183 3.073 17.128 17.128 0 0 0-3.087 4.168 14.92 14.92 0 0 0-1.654 4.857l.012-.016c1.04-1.37 1.927-2.733 2.95-3.99a38.623 38.623 0 0 1 3.19-3.602ZM41.468 37.004c-.425-.447-.85-.887-1.272-1.327l-1.967-2.05c-.649-.699-1.267-1.41-1.971-2.234a6.13 6.13 0 0 0 .667 3.115 10.305 10.305 0 0 0 1.838 2.562c.504.509 1.055.97 1.645 1.376.262.186.52.38.795.546.896.553 1.883.94 2.915 1.146a28.36 28.36 0 0 0-2.65-3.134ZM70.398 38.307a8.557 8.557 0 0 0-2.56-3.468 29.586 29.586 0 0 1 1.074 3.924c.24 1.252.324 2.529.25 3.801a19.31 19.31 0 0 1-.195 1.695c-.106.69-.274 1.37-.502 2.031-.158.636-.455 1.224-.68 1.866-.246.634-.585 1.226-.826 1.924.592-.41 1.144-.874 1.648-1.388a9.549 9.549 0 0 0 1.284-1.767 8.74 8.74 0 0 0 1.065-2.807c.101-.477.169-.96.202-1.446a9.715 9.715 0 0 0-.76-4.365ZM43.135 48.136c-.313.686-.57 1.396-.769 2.123a10.766 10.766 0 0 0-.406 2.678 12.3 12.3 0 0 0 .125 2.44c.146.794.358 1.574.634 2.334.176-.806.212-1.578.348-2.339.161-.756.225-1.507.44-2.227.102-.488.23-.969.383-1.442.298-.922.649-1.826 1.05-2.708a19.318 19.318 0 0 1 2.3-3.74 28.507 28.507 0 0 1 3.125-3.385 9.946 9.946 0 0 0-4.255 2.315 11.999 11.999 0 0 0-2.975 3.951Z" fill="#493A43"/><path d="M74.367 68.004c-.135-.153-.249-.325-.377-.484a19.673 19.673 0 0 1-3.042-5.597 9.385 9.385 0 0 0 .719 3.59 10.268 10.268 0 0 0 1.97 3.154 1.345 1.345 0 0 1 .413 1.213 3.018 3.018 0 0 1-.824 1.269 5.088 5.088 0 0 1-3.12 1.288c.762.173 1.555.15 2.305-.066.47-.137.91-.36 1.299-.657.569-.4.999-.967 1.229-1.623a2.21 2.21 0 0 0-.572-2.087ZM51.715 76.129c-.198-.461-.347-.436-.434-.083a12.521 12.521 0 0 0 .181 3.856 20.88 20.88 0 0 0 .823 3.327 9.934 9.934 0 0 0 2.132 3.78s2.004-3.932 3.374-4.867a1.71 1.71 0 0 1 .176-.113s-.51-.349-1.242-.898c-1.62-1.216-4.327-3.416-5.01-5.002ZM40.738 50.952a1.612 1.612 0 0 0-1.239-.084c-.428.16-.791.456-1.036.842a4.666 4.666 0 0 0-.648 2.43c-.012.84.18 1.67.56 2.418a3.133 3.133 0 0 0 1.803 1.616 4.76 4.76 0 0 1-1.083-1.916 7.113 7.113 0 0 1-.28-2.112c-.014-.701.098-1.4.33-2.061a1.73 1.73 0 0 1 1.593-1.133Z" fill="#D69D94"/><path d="M58.447 91.778a95.001 95.001 0 0 1-4.515-3.461 78.275 78.275 0 0 1-2.965-2.529 69.04 69.04 0 0 1-1.37-1.262 68.242 68.242 0 0 1-3.065-3.065 70.852 70.852 0 0 1-2.247-2.491 34.941 34.941 0 0 1-2.833-3.823 15.142 15.142 0 0 1-1.142-2.09 9.572 9.572 0 0 1-.54-1.517l-.007-.027c-.054-.04-.109-.079-.162-.12-.035-.028-.072-.052-.106-.08-.047.31-.066.624-.056.937.007.344.032.687.074 1.028.122.85.328 1.686.614 2.495a22.81 22.81 0 0 0 2.272 4.569c.43.683.888 1.346 1.366 1.994a36.163 36.163 0 0 0 3.035 3.578 40.093 40.093 0 0 0 2.164 2.106 41.124 41.124 0 0 0 3.702 2.955 38.809 38.809 0 0 0 4.564 2.803 27.79 27.79 0 0 0 4.667 1.97l.271.074a45.576 45.576 0 0 0 2.1-.566 9.343 9.343 0 0 1-1.793-.863c-1.385-.783-2.716-1.698-4.028-2.615ZM65.846 94.281c.01.107.01.214 0 .32a1.431 1.431 0 0 1-.032.17l.032-.011.072-.025.076-.025a1.701 1.701 0 0 0-.148-.429ZM35.47 90.579a38.05 38.05 0 0 0-3.858-1.482 30.132 30.132 0 0 0-7.684-1.392c-.104-.003-.206-.017-.31-.02l-.042-.002.027.008a43.792 43.792 0 0 1 7.473 2.778 37.626 37.626 0 0 1 6.719 4.033c.43.341.883.69 1.324 1.036 1.095.296 2.205.551 3.33.767.933.178 1.877.325 2.828.447a357.44 357.44 0 0 0-6.152-4.176 31.542 31.542 0 0 0-3.654-1.997Z" fill="#FBA52E"/><path opacity=".3" fill-rule="evenodd" clip-rule="evenodd" d="M52.645 59.6c.166.211-.026.969-.032 1.211a10.213 10.213 0 0 0 2.528 7.301c1.665 1.717 4.711 3.06 6.892 1.556 2.224-1.533 1.502-5.97-1.62-5.5a5.54 5.54 0 0 1-4.258-1.128 18.014 18.014 0 0 1-3.51-3.44Z" fill="#F8A29F"/></svg>