<svg width="531" height="453" viewBox="0 0 531 453" fill="none" xmlns="http://www.w3.org/2000/svg">
<path d="M344.717 7.58261C331.477 10.9409 318.251 14.8483 304.553 18.0728C222.979 37.3282 125.367 25.4793 61.2595 88.8357C2.84588 146.567 -15.1856 243.07 16.2549 318.542C30.6223 353.04 56.3271 383.244 89.6419 400.211C125.958 418.671 167.447 420.227 207.251 423.325C227.925 424.937 248.705 426.732 268.942 431.491C301.756 439.201 336.29 463.596 370.189 445.467C382.168 439.074 391.427 426.908 392.223 413.376C393.048 399.373 385.247 386.56 379.54 373.739C373.832 360.919 370.556 344.803 379.188 333.75C383.183 328.638 389.158 325.484 395.112 322.9C434.473 305.799 475.482 284.925 499.94 247.28C527.794 204.411 538.257 148.109 525.63 98.4599C510.946 40.7288 462.862 3.91456 404.005 0.27468C383.317 -1.04187 363.996 2.68954 344.717 7.58261Z" fill="#FDD789"/>
</svg>
